<?xml version="1.0" encoding="utf-8"?>
<!-- Generator: Adobe Illustrator 15.1.0, SVG Export Plug-In . SVG Version: 6.00 Build 0)  -->
<!DOCTYPE svg PUBLIC "-//W3C//DTD SVG 1.1//EN" "http://www.w3.org/Graphics/SVG/1.1/DTD/svg11.dtd">
<svg version="1.1" id="Layer_1" xmlns="http://www.w3.org/2000/svg" xmlns:xlink="http://www.w3.org/1999/xlink" x="0px" y="0px"
	 width="153.5px" height="107.391px" viewBox="0 0 153.5 107.391" enable-background="new 0 0 153.5 107.391" xml:space="preserve">
<g>
	<path fill="#FFFFFF" d="M14.94,20.419h31.752c3.658,0,7.365,0.687,11.123,2.059c3.756,1.372,7.186,3.446,10.29,6.225
		c3.103,2.776,5.635,6.271,7.595,10.484s2.94,9.196,2.94,14.944c0,5.75-0.965,10.729-2.891,14.945
		c-1.928,4.214-4.41,7.709-7.448,10.484c-3.038,2.777-6.403,4.853-10.094,6.225c-3.692,1.372-7.269,2.058-10.731,2.058H14.94V84.51
		c3.789,0,6.272-0.489,7.448-1.47c1.176-0.979,1.764-2.646,1.764-4.998V30.219c0-2.352-0.588-4.018-1.764-4.997
		c-1.176-0.979-3.66-1.471-7.448-1.471V20.419z M34.148,77.455c0,1.438,0.113,2.612,0.343,3.526c0.228,0.916,0.718,1.635,1.47,2.156
		c0.75,0.522,1.796,0.882,3.136,1.077c1.338,0.196,3.087,0.294,5.243,0.294c4.834,0,8.754-0.718,11.76-2.155
		c3.004-1.437,5.341-3.479,7.007-6.125c1.666-2.646,2.776-5.831,3.332-9.556c0.554-3.724,0.833-7.872,0.833-12.445
		c0-5.88-0.475-10.778-1.421-14.7c-0.948-3.92-2.386-7.056-4.312-9.406c-1.928-2.354-4.312-4.002-7.154-4.949
		c-2.842-0.945-6.19-1.421-10.045-1.421c-2.156,0-3.904,0.099-5.243,0.294c-1.34,0.196-2.386,0.557-3.136,1.078
		c-0.752,0.522-1.242,1.241-1.47,2.154c-0.23,0.916-0.343,2.093-0.343,3.528V77.455z"/>
	<path fill="#FFFFFF" d="M87.655,30.219c0-2.352-0.588-4.018-1.764-4.997c-1.176-0.979-3.594-1.471-7.251-1.471v-3.332h31.653
		c4.64,0,8.541,0.49,11.711,1.471c3.168,0.979,5.718,2.254,7.646,3.821c1.926,1.566,3.297,3.35,4.115,5.341
		c0.815,1.994,1.225,4.004,1.225,6.027c0,2.154-0.506,4.133-1.518,5.929c-1.015,1.799-2.402,3.365-4.166,4.704
		c-1.765,1.34-3.808,2.369-6.125,3.087c-2.32,0.721-4.787,1.078-7.398,1.078v0.196c7.316,0.262,12.902,1.909,16.759,4.947
		c3.854,3.038,5.78,7.171,5.78,12.396c0,1.566-0.391,3.414-1.176,5.537c-0.783,2.124-2.058,4.133-3.822,6.025
		c-1.764,1.896-4.065,3.514-6.907,4.853c-2.843,1.34-6.32,2.009-10.438,2.009H78.641V84.51c3.658,0,6.076-0.489,7.251-1.47
		c1.176-0.979,1.764-2.646,1.764-4.998L87.655,30.219L87.655,30.219z M107.354,50.799c3.266,0,5.961-0.31,8.084-0.931
		c2.123-0.62,3.789-1.503,4.998-2.646s2.041-2.516,2.5-4.116c0.455-1.601,0.686-3.348,0.686-5.243c0-5.096-1.34-8.722-4.018-10.878
		c-2.68-2.154-7.023-3.232-13.035-3.232c-2.025,0-3.625,0.132-4.801,0.393c-1.176,0.263-2.076,0.604-2.695,1.028
		c-0.621,0.427-1.014,0.932-1.176,1.52c-0.164,0.589-0.246,1.242-0.246,1.96V50.8L107.354,50.799L107.354,50.799z M97.651,54.131
		v23.618c0,1.241,0.148,2.303,0.441,3.186c0.295,0.882,0.799,1.585,1.52,2.106c0.719,0.522,1.746,0.897,3.086,1.127
		c1.34,0.229,3.021,0.343,5.047,0.343c3.726,0,6.826-0.325,9.312-0.979c2.481-0.652,4.459-1.617,5.93-2.893
		c1.47-1.272,2.498-2.856,3.086-4.753c0.589-1.896,0.884-4.051,0.884-6.469c0-4.64-1.078-8.346-3.234-11.123
		c-2.156-2.775-5.652-4.165-10.486-4.165L97.651,54.131L97.651,54.131z"/>
</g>
</svg>
