<?xml version="1.0" encoding="utf-8"?>
<!-- Generator: Adobe Illustrator 16.0.3, SVG Export Plug-In . SVG Version: 6.00 Build 0)  -->
<!DOCTYPE svg PUBLIC "-//W3C//DTD SVG 1.1//EN" "http://www.w3.org/Graphics/SVG/1.1/DTD/svg11.dtd">
<svg version="1.1" id="Layer_1" xmlns="http://www.w3.org/2000/svg" xmlns:xlink="http://www.w3.org/1999/xlink" x="0px" y="0px"
	 width="612px" height="107.39px" viewBox="0 0 612 107.39" enable-background="new 0 0 612 107.39" xml:space="preserve">
<g>
	<path fill="#0080c6" d="M14.94,20.419h31.752c3.658,0,7.365,0.686,11.123,2.058c3.756,1.372,7.186,3.447,10.29,6.224
		c3.103,2.777,5.635,6.271,7.595,10.485s2.94,9.197,2.94,14.945c0,5.75-0.965,10.73-2.891,14.945
		c-1.928,4.214-4.41,7.709-7.448,10.485c-3.038,2.778-6.403,4.852-10.094,6.224c-3.692,1.372-7.269,2.058-10.731,2.058H14.94v-3.332
		c3.789,0,6.272-0.49,7.448-1.47c1.176-0.98,1.764-2.646,1.764-4.998V30.219c0-2.352-0.588-4.018-1.764-4.998
		c-1.176-0.979-3.66-1.47-7.448-1.47V20.419z M34.148,77.455c0,1.438,0.113,2.613,0.343,3.527c0.228,0.916,0.718,1.634,1.47,2.156
		c0.75,0.523,1.796,0.882,3.136,1.078c1.338,0.196,3.087,0.294,5.243,0.294c4.834,0,8.754-0.718,11.76-2.156
		c3.004-1.436,5.341-3.479,7.007-6.125c1.666-2.646,2.776-5.831,3.332-9.555c0.554-3.724,0.833-7.872,0.833-12.446
		c0-5.88-0.475-10.779-1.421-14.7c-0.948-3.92-2.386-7.056-4.312-9.407c-1.928-2.353-4.312-4.002-7.154-4.949
		c-2.842-0.946-6.19-1.421-10.045-1.421c-2.156,0-3.904,0.098-5.243,0.294c-1.34,0.196-2.386,0.556-3.136,1.078
		c-0.752,0.523-1.242,1.241-1.47,2.155c-0.23,0.916-0.343,2.092-0.343,3.528V77.455z"/>
	<path fill="#0080c6" d="M68.937,87.843v-3.332c1.96,0,3.609-0.261,4.949-0.784c1.338-0.521,2.45-1.24,3.332-2.156
		c0.882-0.914,1.617-2.009,2.205-3.282c0.588-1.274,1.142-2.662,1.666-4.165l19.796-54.097h3.528l21.462,55.175
		c0.718,1.896,1.421,3.446,2.107,4.654c0.686,1.21,1.453,2.156,2.303,2.843c0.849,0.686,1.779,1.16,2.793,1.421
		c1.012,0.262,2.237,0.392,3.675,0.392v3.332h-27.244v-3.332c1.828,0,3.266-0.049,4.312-0.146c1.044-0.099,1.813-0.295,2.303-0.589
		c0.49-0.294,0.799-0.669,0.931-1.127c0.13-0.456,0.196-1.044,0.196-1.764c0-0.522-0.164-1.355-0.49-2.499
		c-0.328-1.143-0.752-2.45-1.274-3.92c-0.524-1.47-1.112-3.004-1.764-4.606c-0.654-1.6-1.308-3.119-1.96-4.557H88.634
		c-0.392,1.372-0.85,2.744-1.372,4.116c-0.523,1.372-1.014,2.695-1.47,3.969c-0.458,1.274-0.85,2.418-1.176,3.43
		c-0.328,1.014-0.49,1.879-0.49,2.598c0,0.915,0.147,1.699,0.441,2.352c0.294,0.654,0.833,1.176,1.617,1.568
		c0.784,0.392,1.845,0.686,3.185,0.882c1.338,0.196,3.054,0.294,5.145,0.294v3.332H68.937z M110.194,61.187L99.806,35.413
		l-9.8,25.773H110.194z"/>
	<path fill="#0080c6" d="M169.288,20.419v3.332c-1.96,0-3.544,0.114-4.753,0.343c-1.209,0.229-2.156,0.604-2.842,1.127
		c-0.686,0.523-1.161,1.193-1.421,2.009c-0.262,0.818-0.392,1.813-0.392,2.989v47.824c0,1.176,0.13,2.173,0.392,2.989
		c0.26,0.817,0.735,1.486,1.421,2.009c0.686,0.523,1.632,0.898,2.842,1.127c1.208,0.229,2.793,0.343,4.753,0.343v3.332h-28.812
		v-3.332c1.96,0,3.543-0.113,4.753-0.343c1.208-0.229,2.156-0.604,2.842-1.127c0.686-0.522,1.159-1.191,1.421-2.009
		c0.26-0.816,0.392-1.813,0.392-2.989V30.219c0-1.176-0.132-2.171-0.392-2.989c-0.262-0.815-0.735-1.485-1.421-2.009
		c-0.686-0.522-1.634-0.897-2.842-1.127c-1.21-0.229-2.793-0.343-4.753-0.343v-3.332H169.288z"/>
	<path fill="#0080c6" d="M224.265,87.843h-51.352v-3.332c3.592,0,5.961-0.49,7.105-1.47c1.142-0.98,1.715-2.646,1.715-4.998V30.219
		c0-2.352-0.573-4.018-1.715-4.998c-1.144-0.979-3.447-1.47-6.909-1.47v-3.332h28.028v3.332c-1.96,0-3.545,0.114-4.753,0.343
		c-1.21,0.229-2.156,0.604-2.842,1.127c-0.686,0.523-1.161,1.193-1.421,2.009c-0.262,0.818-0.392,1.813-0.392,2.989v47.824
		c0,2.352,0.571,4.018,1.715,4.998c1.143,0.979,2.956,1.47,5.439,1.47c2.09,0,4.263-0.245,6.517-0.735
		c2.254-0.489,4.41-1.519,6.468-3.087c2.058-1.567,3.969-3.788,5.733-6.664c1.764-2.874,3.168-6.664,4.214-11.367h3.038
		L224.265,87.843z"/>
	<path fill="#0080c6" d="M218.973,20.419h27.832v3.332c-2.94,0-5.047,0.262-6.321,0.784c-1.274,0.523-1.911,1.372-1.911,2.548
		c0,0.523,0.277,1.47,0.833,2.842c0.554,1.372,1.274,2.94,2.156,4.704s1.862,3.643,2.94,5.635c1.078,1.994,2.107,3.92,3.087,5.782
		s1.845,3.528,2.597,4.998c0.75,1.47,1.257,2.564,1.519,3.283c0.456-1.045,1.421-2.825,2.891-5.342
		c1.47-2.514,2.989-5.193,4.557-8.035c1.568-2.843,2.972-5.569,4.214-8.184c1.24-2.612,1.862-4.54,1.862-5.782
		c0-1.044-0.605-1.845-1.813-2.4c-1.209-0.555-3.381-0.833-6.517-0.833v-3.332h22.442v3.332c-1.764,0-3.202,0.164-4.312,0.49
		c-1.111,0.327-2.091,0.85-2.94,1.567c-0.85,0.72-1.617,1.683-2.303,2.892s-1.487,2.662-2.401,4.36l-13.818,26.166v18.816
		c0,1.176,0.13,2.173,0.392,2.989c0.26,0.817,0.784,1.486,1.568,2.009c0.784,0.523,1.862,0.898,3.234,1.127
		c1.372,0.229,3.168,0.343,5.39,0.343v3.332h-30.772v-3.332c2.156,0,3.886-0.113,5.194-0.343c1.306-0.229,2.335-0.604,3.087-1.127
		c0.75-0.522,1.257-1.191,1.519-2.009c0.26-0.816,0.392-1.813,0.392-2.989V59.227l-14.994-29.498
		c-0.654-1.306-1.291-2.352-1.911-3.136c-0.622-0.784-1.291-1.388-2.009-1.813c-0.72-0.424-1.519-0.701-2.401-0.833
		c-0.882-0.13-1.977-0.195-3.283-0.195V20.419z"/>
	<path fill="#0080c6" d="M314.424,30.219c0-2.352-0.588-4.018-1.764-4.998c-1.176-0.979-3.594-1.47-7.251-1.47v-3.332h31.654
		c4.639,0,8.541,0.49,11.711,1.47c3.168,0.98,5.717,2.254,7.645,3.822c1.926,1.567,3.297,3.349,4.115,5.341
		c0.816,1.994,1.225,4.003,1.225,6.027c0,2.155-0.506,4.133-1.518,5.929c-1.014,1.798-2.402,3.365-4.166,4.704
		c-1.764,1.34-3.807,2.369-6.125,3.087c-2.32,0.72-4.787,1.078-7.398,1.078v0.196c7.316,0.262,12.902,1.91,16.758,4.948
		c3.854,3.038,5.781,7.171,5.781,12.397c0,1.567-0.391,3.414-1.176,5.537c-0.783,2.124-2.057,4.133-3.822,6.026
		c-1.764,1.896-4.066,3.513-6.908,4.852c-2.842,1.34-6.32,2.009-10.438,2.009h-37.337v-3.332c3.658,0,6.076-0.49,7.251-1.47
		c1.176-0.98,1.764-2.646,1.764-4.998V30.219z M334.123,50.799c3.266,0,5.961-0.31,8.084-0.931c2.123-0.62,3.789-1.503,4.998-2.646
		c1.209-1.143,2.041-2.515,2.5-4.116c0.455-1.6,0.686-3.347,0.686-5.243c0-5.096-1.34-8.722-4.018-10.878
		c-2.68-2.155-7.023-3.233-13.035-3.233c-2.025,0-3.625,0.132-4.801,0.392c-1.176,0.262-2.076,0.605-2.695,1.029
		c-0.621,0.426-1.014,0.931-1.176,1.519c-0.164,0.588-0.246,1.242-0.246,1.96v22.148H334.123z M324.42,54.131v23.618
		c0,1.241,0.148,2.303,0.441,3.185c0.295,0.882,0.799,1.585,1.52,2.107c0.719,0.523,1.746,0.898,3.086,1.127
		c1.34,0.229,3.021,0.343,5.047,0.343c3.725,0,6.826-0.326,9.311-0.979c2.482-0.652,4.459-1.617,5.93-2.892
		c1.469-1.273,2.498-2.857,3.086-4.753c0.588-1.895,0.883-4.05,0.883-6.468c0-4.639-1.078-8.346-3.234-11.123
		c-2.156-2.776-5.652-4.165-10.486-4.165H324.42z"/>
	<path fill="#0080c6" d="M429.182,73.73c0,2.026-0.18,3.92-0.539,5.685c-0.359,1.764-0.996,3.316-1.91,4.654c-0.916,1.34-2.107,2.401-3.578,3.186
		c-1.469,0.784-3.348,1.176-5.635,1.176c-3.723,0-6.502-1.453-8.33-4.361c-1.83-2.906-2.744-6.614-2.744-11.123
		c0-3.92-0.293-7.056-0.881-9.407c-0.588-2.353-1.504-4.148-2.744-5.391c-1.242-1.24-2.811-2.058-4.705-2.449
		c-1.895-0.393-4.148-0.589-6.762-0.589h-3.822v22.933c0,1.176,0.131,2.173,0.393,2.989c0.26,0.817,0.75,1.486,1.471,2.009
		c0.717,0.523,1.697,0.898,2.939,1.127c1.24,0.229,2.875,0.343,4.9,0.343v3.332h-28.813v-3.332c3.725,0,6.174-0.49,7.35-1.47
		c1.176-0.98,1.764-2.646,1.764-4.998V30.219c0-2.352-0.588-4.018-1.764-4.998c-1.176-0.979-3.625-1.47-7.35-1.47v-3.332h35.379
		c4.049,0,7.43,0.572,10.143,1.715c2.709,1.144,4.883,2.548,6.516,4.214s2.795,3.479,3.48,5.439s1.029,3.789,1.029,5.487
		c0,3.072-0.688,5.701-2.059,7.89c-1.373,2.189-3.152,3.969-5.342,5.341s-4.688,2.369-7.496,2.989
		c-2.811,0.621-5.652,0.931-8.525,0.931v0.196c3.135,0.523,5.648,1.553,7.545,3.087c1.895,1.535,3.396,3.3,4.508,5.292
		c1.111,1.993,1.961,4.084,2.549,6.271c0.588,2.19,1.143,4.199,1.666,6.027c0.521,1.83,1.143,3.332,1.861,4.508
		s1.764,1.764,3.137,1.764c0.652,0,1.207-0.26,1.666-0.783c0.455-0.522,0.832-1.177,1.127-1.96c0.293-0.784,0.504-1.633,0.637-2.549
		c0.131-0.914,0.195-1.764,0.195-2.548H429.182z M387.531,51.583c1.438,0.065,3.104,0.114,4.998,0.146
		c1.895,0.034,3.984,0.049,6.273,0.049c2.219,0,4.277-0.195,6.174-0.588c1.893-0.392,3.543-1.093,4.949-2.106
		c1.402-1.013,2.498-2.367,3.281-4.067c0.785-1.698,1.178-3.822,1.178-6.37c0-4.441-1.178-8.036-3.529-10.779
		c-2.352-2.744-6.436-4.116-12.25-4.116c-4.248,0-7.154,0.44-8.721,1.323c-1.568,0.882-2.354,2.336-2.354,4.36V51.583z"/>
	<path fill="#0080c6" d="M458.09,23.751c-1.959,0-3.545,0.114-4.752,0.343c-1.211,0.229-2.156,0.604-2.842,1.127
		c-0.688,0.523-1.162,1.193-1.422,2.009c-0.262,0.818-0.393,1.813-0.393,2.989v39.298c0,5.292,1.307,9.311,3.92,12.054
		c2.613,2.744,6.631,4.116,12.055,4.116c3.592,0,6.631-0.49,9.113-1.47c2.482-0.98,4.51-2.352,6.076-4.116
		c1.568-1.764,2.711-3.822,3.432-6.174c0.717-2.352,1.076-4.9,1.076-7.644V33.159c0-1.307-0.098-2.531-0.293-3.676
		c-0.195-1.142-0.654-2.139-1.373-2.988c-0.719-0.849-1.779-1.52-3.184-2.01c-1.406-0.489-3.283-0.734-5.635-0.734v-3.332h23.617
		v3.332c-2.156,0-3.871,0.245-5.145,0.734c-1.273,0.49-2.238,1.161-2.891,2.01c-0.654,0.85-1.078,1.847-1.275,2.988
		c-0.195,1.145-0.293,2.369-0.293,3.676v33.907c0,3.528-0.605,6.649-1.813,9.359c-1.211,2.712-2.908,4.998-5.098,6.86
		c-2.189,1.861-4.77,3.282-7.742,4.263c-2.973,0.979-6.223,1.47-9.75,1.47c-3.789,0-7.203-0.392-10.24-1.176
		c-3.039-0.784-5.637-1.976-7.791-3.577c-2.156-1.6-3.822-3.658-4.998-6.174c-1.178-2.515-1.766-5.471-1.766-8.869V30.219
		c0-1.176-0.131-2.171-0.391-2.989c-0.262-0.815-0.736-1.485-1.422-2.009c-0.686-0.522-1.633-0.897-2.842-1.127
		c-1.209-0.229-2.793-0.343-4.752-0.343v-3.332h28.811V23.751z"/>
	<path fill="#0080c6" d="M529.434,20.419v3.332c-1.961,0-3.545,0.114-4.754,0.343c-1.209,0.229-2.156,0.604-2.842,1.127
		c-0.686,0.523-1.16,1.193-1.42,2.009c-0.262,0.818-0.393,1.813-0.393,2.989v47.824c0,1.176,0.131,2.173,0.393,2.989
		c0.26,0.817,0.734,1.486,1.42,2.009c0.686,0.523,1.633,0.898,2.842,1.127c1.209,0.229,2.793,0.343,4.754,0.343v3.332h-28.813
		v-3.332c1.961,0,3.543-0.113,4.754-0.343c1.207-0.229,2.156-0.604,2.842-1.127c0.686-0.522,1.158-1.191,1.42-2.009
		c0.262-0.816,0.393-1.813,0.393-2.989V30.219c0-1.176-0.131-2.171-0.393-2.989c-0.262-0.815-0.734-1.485-1.42-2.009
		c-0.686-0.522-1.635-0.897-2.842-1.127c-1.211-0.229-2.793-0.343-4.754-0.343v-3.332H529.434z"/>
	<path fill="#0080c6" d="M551.189,20.419l35.279,50.47h0.197v-40.67c0-1.176-0.133-2.171-0.393-2.989c-0.262-0.815-0.752-1.485-1.471-2.009
		c-0.719-0.522-1.699-0.897-2.939-1.127c-1.242-0.229-2.875-0.343-4.9-0.343v-3.332h22.344v3.332c-3.463,0-5.75,0.49-6.859,1.47
		c-1.111,0.98-1.666,2.646-1.666,4.998v58.212h-3.822l-38.514-54.488h-0.195v44.101c0,1.176,0.129,2.173,0.391,2.989
		c0.262,0.817,0.768,1.486,1.52,2.009c0.75,0.523,1.797,0.898,3.137,1.127c1.338,0.229,3.086,0.343,5.242,0.343v3.332h-24.107
		v-3.332c2.023,0,3.658-0.113,4.9-0.343c1.24-0.229,2.219-0.604,2.939-1.127c0.717-0.522,1.207-1.191,1.469-2.009
		c0.262-0.816,0.393-1.813,0.393-2.989V27.769c-0.783-0.914-1.504-1.632-2.156-2.156c-0.654-0.521-1.355-0.931-2.107-1.225
		c-0.75-0.294-1.566-0.473-2.449-0.539c-0.883-0.064-1.945-0.098-3.186-0.098v-3.332H551.189z"/>
</g>
<g>
</g>
<g>
</g>
<g>
</g>
<g>
</g>
<g>
</g>
<g>
</g>
</svg>
