<?xml version="1.0" encoding="utf-8"?>
<!-- Generator: Adobe Illustrator 16.0.4, SVG Export Plug-In . SVG Version: 6.00 Build 0)  -->
<!DOCTYPE svg PUBLIC "-//W3C//DTD SVG 1.1//EN" "http://www.w3.org/Graphics/SVG/1.1/DTD/svg11.dtd">
<svg version="1.1" id="Layer_1" xmlns="http://www.w3.org/2000/svg" xmlns:xlink="http://www.w3.org/1999/xlink" x="0px" y="0px"
	 width="1344.219px" height="685.144px" viewBox="0 0 1344.219 685.144" enable-background="new 0 0 1344.219 685.144"
	 xml:space="preserve">
<g id="Layer_2">
</g>
<g id="h1">
	<g id="XMLID_10_">
		<g>
			<path fill="#304177" d="M819.938,15.248c52.141,0,104.016,0,156.883,0c-2.781,6.493-5.365,12.588-8.017,18.749
				c-47.305,0-94.606,0-142.903,0c0,2.849,0,5.102,0,7.354c-0.396,71.485-0.729,142.904-1.191,214.323
				c0,2.385-0.465,4.704-0.729,7.089c-2.648-1.06-5.365-2.054-8.017-3.048c-23.121-8.414-46.244-16.828-69.299-25.242
				c18.482,0,36.969,0,56.113,0c0.198-3.047,0.465-5.3,0.465-7.619c0.065-36.504,0.065-73.009,0-109.58
				c0-2.584,0.266-5.896-1.127-7.553c-5.764-6.824-3.312-13.714-1.457-20.869C807.083,64.407,813.511,39.894,819.938,15.248z"/>
		</g>
	</g>
	<g id="XMLID_9_">
		<g>
			<path fill="#304177" d="M538.898,234.474c18.483,0,36.637,0,54.789,0c-1.125,0.663-2.187,1.392-3.379,1.789
				c-23.65,8.877-47.236,17.689-70.889,26.5c-0.199-3.114-0.53-6.294-0.53-9.474c0.065-70.823,0.065-141.711,0.331-212.601
				c0-6.095-2.716-6.757-7.686-6.691c-45.25,0.133-90.5,0.066-135.685,0.133c-2.252-6.162-4.505-12.257-6.956-18.882
				c53.729,0,106.334,0,159.601,0c4.24,23.188,8.216,46.31,12.854,69.299c2.055,10.269,3.445,20.141-1.921,29.879
				c-0.994,1.656-0.928,4.107-0.928,6.162c-0.066,36.306,0,72.545,0,108.851C538.501,230.697,538.7,231.956,538.898,234.474z"/>
		</g>
	</g>
	<path fill="#66BBE7" d="M969.105,606.154c0.393-0.406,0.768-0.811,1.146-1.217C969.873,605.343,969.498,605.748,969.105,606.154z"
		/>
	<g id="XMLID_8_">
		<g>
			<path fill="#304177" d="M1294.296,340.476c1.191,1.987,0.729,5.167,0.729,7.751c0,45.78,0,91.56,0,137.339
				c-6.824,0-13.648-0.066-20.474-0.066c-101.828,0-203.59,0-305.418,0c0-11.527,0.134-95.469,0.064-102.756
				c0-2.119,0-4.174,0-6.293c0-12.92,0.133-25.838,0.198-38.691c0-2.65,0-5.367,0.066-8.017c82.812,0,165.693-0.066,248.574,0
				c2.85,0,5.697,0.663,8.479,1.524c9.076,2.716,18.087,5.631,27.162,8.414c6.162-10.666,12.322-21.399,19.146-33.324
				C1280.451,318.348,1287.605,329.279,1294.296,340.476z M1239.507,450.652c0-13.713,0.197-26.633-0.065-39.484
				c-0.134-9.475-6.359-16.763-14.179-17.357c-7.688-0.598-15.305,4.703-16.166,14.242c-1.26,13.98-0.332,28.227-0.332,42.604
				C1218.835,450.652,1228.576,450.652,1239.507,450.652z M1160.005,450.585c0-14.377,0.396-28.092-0.135-41.738
				c-0.396-8.281-6.758-14.442-13.91-15.039c-7.09-0.662-15.104,4.24-15.836,12.588c-1.191,14.51-0.33,29.283-0.33,44.189
				C1139.4,450.585,1149.14,450.585,1160.005,450.585z M1077.457,450.386c0-14.244,0.396-27.893-0.199-41.605
				c-0.332-8.68-7.223-14.906-14.576-14.973c-7.815-0.066-15.172,6.16-15.635,15.039c-0.729,13.646-0.199,27.361-0.199,41.539
				C1057.582,450.386,1067.253,450.386,1077.457,450.386z"/>
		</g>
	</g>
	<g id="XMLID_3_">
		<g>
			<path fill="#304177" d="M375.722,479.935c0.066,2.914-0.86,5.963-1.325,8.943c-33.655-0.066-67.312-0.066-100.966-0.066
				c-66.98,0-134.026,0.133-201.073,0.133c-0.596-0.066-1.259-0.197-1.855-0.266c-6.294,0-12.588,0.066-18.948,0.133
				c0-47.104-0.066-94.143,0.066-141.182c0-2.781,0.662-5.831,2.12-8.148c6.095-10.136,12.654-20.074,19.875-31.469
				C80.373,319.872,86.6,330.936,92.828,342c0.53,0,1.126,0.066,1.59-0.132c19.743-9.209,40.678-9.209,61.878-9.077
				c70.359,0.265,140.652-0.066,210.944-0.199c2.385,0,4.771-0.199,7.154-0.265c0,7.685,0.066,15.437,0.134,23.188
				C374.463,373.138,375.521,471.324,375.722,479.935z M296.618,453.632c0-13.646,0.332-26.566-0.066-39.42
				c-0.332-9.738-7.155-16.826-15.437-17.092c-7.487-0.268-14.774,5.697-15.438,15.172c-0.928,13.58-0.265,27.229-0.265,41.34
				C275.814,453.632,285.751,453.632,296.618,453.632z M214.268,453.632c0-12.256,0.132-24.049-0.066-35.842
				c-0.066-3.379-0.663-6.824-1.723-10.004c-2.385-7.088-7.751-10.799-15.039-10.467c-7.221,0.33-12.786,5.166-13.184,11.656
				c-1.06,14.844-0.331,29.748-0.331,44.654C194.126,453.632,203.732,453.632,214.268,453.632z M135.361,453.701
				c0-8.945,0.199-17.559-0.066-26.17c-0.199-6.295-0.199-12.787-1.723-18.75c-1.987-7.883-9.01-12.322-15.966-11.594
				c-6.691,0.598-13.118,6.559-13.449,14.441c-0.596,13.848-0.199,27.76-0.199,42.07
				C114.559,453.701,124.431,453.701,135.361,453.701z"/>
		</g>
	</g>
	<path fill="#4E62AD" d="M72.373,488.98c67.029-0.061,134.058-0.135,201.083-0.176c33.647-0.02,67.296,0.031,100.94,0.053
		c0.008,0.51,0.003,1.021-0.009,1.527c-97.898,0.008-195.801,0.021-293.7-0.049C77.917,490.335,75.144,489.455,72.373,488.98z"/>
	<path fill="#009DDD" d="M617.593,485.644c0.557-0.504,1.115-1.002,1.671-1.502c-0.238,1.104-0.479,2.201-0.718,3.309
		C618.227,486.847,617.909,486.246,617.593,485.644z"/>
	<path fill="#00A4E4" d="M527.162,483.792c0.479,0.133,0.969,0.23,1.462,0.297c-0.136,1.162-0.271,2.32-0.405,3.48
		c-0.351-0.033-0.703-0.072-1.057-0.107C527.162,486.24,527.162,485.017,527.162,483.792z"/>
	<line fill="none" x1="607.864" y1="588.246" x2="607.864" y2="574.808"/>
	<g id="XMLID_2_">
		<g>
			<path fill="#4E62AD" d="M802.181,482.453c-6.096-11.527-14.377-19.811-28.354-20.869c-18.353-1.391-30.674,6.691-38.16,22.99
				c-0.133,1.391-0.199,2.781-0.266,4.174c-0.332,6.492-0.662,13.051-0.994,19.543c0,26.633,0,53.266,0,80.363
				c2.717,0,5.035,0,7.354,0c10.533,0,21.002,0,31.535,0c9.938,0,19.875,0,30.543,0c0-3.182,0-5.766,0-8.348
				c0-27.43,0.064-54.855-0.065-82.283C803.771,492.853,802.71,487.685,802.181,482.453z M538.567,487.884
				c0,33.457-0.065,66.914-0.065,100.371h69.364v-13.449c-0.065-22.193-0.133-44.32-0.198-66.516
				c-0.198-6.492-0.396-12.986-0.662-19.48c0-1.061,0-2.117-0.065-3.182c-8.349-18.812-18.22-25.24-37.167-23.916
				C553.076,462.841,544.133,473.443,538.567,487.884z M637.017,298.671c-0.729,6.757-1.788,13.515-2.188,20.273
				c-0.528,8.414-0.528,16.828-0.795,25.242c0,14.84,0,29.681,0,44.521c0,8.877,0,17.689,0,26.832c4.97,0,8.349,0,11.66,0
				c16.562,0,33.191,0,49.754,0c2.719,0,5.5,0,9.408,0c0-10.602,0-20.271,0-29.945c0-17.557,0-35.047-0.064-52.536
				c-0.268-3.114-0.729-6.228-0.729-9.341c0.133-10.468,0.795-20.936-4.902-30.476C679.882,270.515,655.037,272.701,637.017,298.671
				z M518.891,606.21c-48.031,0-95.998,0-144.892,0c0-8.746,0-16.828,0-24.979c0.661-2.914,1.921-5.896,1.921-8.812
				c-0.396-27.361-0.993-54.656-1.523-82.018c0-0.531,0-1.062,0-1.525c0.465-2.979,1.393-6.027,1.325-8.943
				c-0.198-8.611-0.86-17.158-1.325-25.705c0-15.305-0.064-30.607-0.064-45.912c0.064-17.623,0.133-35.179,0.198-52.802
				c-0.065-7.751-0.134-15.503-0.134-23.188c0.134-60.289,0.134-120.578,0.397-180.866c0.133-39.155,0.662-78.243,1.06-117.331
				c45.185-0.066,90.435,0,135.685-0.133c4.97-0.066,7.686,0.596,7.686,6.691c-0.265,70.889-0.265,141.778-0.331,212.601
				c0,3.18,0.331,6.36,0.53,9.474c23.65-8.812,47.236-17.623,70.889-26.5c1.192-0.397,2.253-1.126,3.38-1.789
				c22.193-8.149,44.521-16.231,66.582-24.711c5.83-2.253,10.864-2.584,16.761-0.332c21.533,8.348,43.33,16.298,64.994,24.314
				c1.457,0.53,3.047,0.53,4.639,0.729c23.055,8.414,46.176,16.828,69.299,25.242c2.648,0.994,5.365,1.988,8.017,3.048
				c0.266-2.385,0.729-4.704,0.729-7.089c0.465-71.419,0.795-142.838,1.191-214.323c0-2.252,0-4.505,0-7.354
				c48.297,0,95.602,0,142.903,0c0.199,94.607,0.332,189.28,0.466,283.887c0,3.975,0.131,7.884,0.196,11.859
				c-0.065,2.65-0.065,5.366-0.065,8.017c-0.064,14.973-0.265,29.944-0.197,44.983c0.066,7.289,0.662,14.576,0.992,21.863
				c-0.33,15.438-0.729,30.938-1.06,46.377c0,11.461,0,22.986,0,34.518c0,28.355-0.065,56.777,0,85.133
				c0,2.451,1.125,4.902,1.724,7.354c-0.199,8.943-0.396,17.955-0.599,26.965c-0.396,0.396-0.795,0.795-1.125,1.193
				c-32.065,0-64.196,0.064-96.264,0.064v0.066l-49.889-0.066c-1.392,0-2.914,0-4.438-0.064l0.133,0.131L518.891,606.21z
				 M929.251,130.194c0-13.979,0.529-27.163-0.332-40.215c-0.266-3.842-4.504-7.42-6.955-11.064
				c-2.451,3.379-6.824,6.625-7.022,10.137c-0.795,13.515-0.332,27.097-0.332,41.142
				C919.115,130.194,923.688,130.194,929.251,130.194z M919.645,571.427c0-12.057,0.465-23.121-0.197-34.186
				c-0.267-4.902-2.318-10.07-8.879-10.4c-5.963-0.396-9.209,3.576-9.738,8.479c-1.191,11.926-1.391,23.918-2.055,36.107
				C906.727,571.427,912.689,571.427,919.645,571.427z M891.158,571.759c0-11.926,0.396-22.459-0.199-32.928
				c-0.33-5.432-1.789-11.461-9.076-11.926c-7.221-0.463-9.143,5.033-10.602,10.602c-0.596,2.252-0.596,4.637-0.596,7.021v26.896
				l1.457,0.33C878.304,571.759,884.531,571.759,891.158,571.759z M875.125,130.194c0-14.311,0.463-27.759-0.332-41.076
				c-0.266-3.511-4.504-6.824-6.957-10.203c-2.385,3.114-6.625,6.162-6.756,9.408c-0.797,13.78-0.332,27.627-0.332,41.871
				C865.121,130.194,869.691,130.194,875.125,130.194z M804.169,415.539c0-11.727,0-22.459,0-33.258
				c-0.135-3.908-0.135-7.816-0.332-11.726c-0.729-12.521-1.457-24.978-2.188-37.499c-12.984-27.892-53.929-27.097-66.119,3.445
				c-0.597,16.297-1.258,32.663-1.854,48.959c0.066,2.849,0.133,5.764,0.267,8.61c0.463,7.091,0.928,14.181,1.457,21.269
				c14.706,0.066,29.416,0.133,44.122,0.199C787.474,415.539,795.49,415.539,804.169,415.539z M608.331,388.641
				c0-15.37-0.066-30.741-0.066-46.111c-0.464-1.524-0.928-2.981-1.458-4.505c-5.365-16.43-15.7-24.38-31.865-24.711
				c-17.094-0.332-28.952,7.619-34.915,23.32c-0.528,1.458-1.191,2.849-1.854,4.306c-0.065,15.371-0.199,30.741-0.267,46.11
				c0,9.408,0,18.75,0,28.488c7.886,0,14.643,0,21.398,0c15.636,0,31.205-0.066,46.772-0.066c0.663-1.92,1.789-3.906,1.854-5.895
				C608.264,402.621,608.197,395.664,608.331,388.641z M492.059,124.563c0-13.979,0.53-27.163-0.33-40.215
				c-0.266-3.842-4.506-7.42-6.957-11.064c-2.45,3.379-6.823,6.625-7.021,10.137c-0.796,13.515-0.331,27.097-0.331,41.142
				C481.923,124.563,486.494,124.563,492.059,124.563z M469.6,576.994c0-11.527,0.465-22.062-0.133-32.596
				c-0.331-5.766-2.187-12.123-9.605-12.521c-7.089-0.332-9.938,5.367-10.27,10.932c-0.729,11.197-0.266,22.525-0.266,34.189
				C456.283,576.994,462.444,576.994,469.6,576.994z M452.374,124.563c0-13.979,0.529-27.163-0.331-40.215
				c-0.266-3.842-4.505-7.42-6.956-11.064c-2.451,3.379-6.824,6.625-7.021,10.137c-0.796,13.515-0.332,27.097-0.332,41.142
				C442.238,124.563,446.81,124.563,452.374,124.563z M442.9,577.457c0-12.189,0.33-22.988-0.065-33.787
				c-0.198-5.697-1.987-11.33-9.076-11.859c-6.824-0.463-9.673,4.572-10.137,10.008c-0.929,10.398-0.994,21-0.929,31.469
				c0,1.391,2.717,3.773,4.373,3.975C431.969,577.789,437.004,577.457,442.9,577.457z M414.346,124.563
				c0-13.979,0.53-27.163-0.331-40.215c-0.266-3.842-4.505-7.42-6.956-11.064c-2.45,3.379-6.823,6.625-7.021,10.137
				c-0.796,13.515-0.332,27.097-0.332,41.142C404.21,124.563,408.781,124.563,414.346,124.563z"/>
			<path fill="#FFFFFF" d="M928.919,89.979c0.861,13.052,0.332,26.236,0.332,40.215c-5.563,0-10.137,0-14.644,0
				c0-14.045-0.463-27.627,0.332-41.142c0.197-3.512,4.57-6.758,7.021-10.137C924.416,82.56,928.656,86.137,928.919,89.979z"/>
			<path fill="#4E62AD" d="M919.447,537.244c0.662,11.062,0.197,22.127,0.197,34.186c-6.955,0-12.918,0-20.869,0
				c0.664-12.188,0.86-24.182,2.055-36.105c0.529-4.902,3.775-8.877,9.738-8.48C917.126,527.171,919.181,532.339,919.447,537.244z"
				/>
			<path fill="#4E62AD" d="M890.958,538.833c0.596,10.467,0.197,21.002,0.197,32.926c-6.625,0-12.854,0-19.015,0l-1.457-0.33
				v-26.898c0-2.387,0-4.771,0.597-7.023c1.457-5.562,3.379-11.061,10.602-10.6C889.169,527.371,890.626,533.4,890.958,538.833z"/>
			<path fill="#FFFFFF" d="M874.792,89.118c0.795,13.317,0.332,26.766,0.332,41.076c-5.435,0-10.006,0-14.377,0
				c0-14.244-0.465-28.091,0.33-41.871c0.133-3.246,4.373-6.294,6.758-9.408C870.289,82.294,874.527,85.607,874.792,89.118z"/>
			<path fill="#4E62AD" d="M803.837,580.306c0,2.582,0,5.166,0,8.348c-10.666,0-20.604,0-30.541,0c-10.535,0-21.002,0-31.537,0
				c-2.317,0-4.639,0-7.354,0c0-27.098,0-53.73,0-80.363c0.33-6.492,0.662-13.051,0.994-19.543
				c0.063-1.393-18.948-3.564-18.813-4.955c7.484-16.299,40.513-29.818,58.864-28.428c13.979,1.061,40.604,14.037,46.7,25.564
				c0.528,5.232-18.381,11.924-18.381,17.094C803.904,525.451,803.837,552.876,803.837,580.306z"/>
			<path fill="#4E62AD" d="M607.866,574.806v13.449h-69.364c0-33.457-11.34-67.336-11.34-100.793
				c5.564-14.441,31.452-36.074,48.146-37.199c18.948-1.326,37.176,11.852,45.522,30.666c0.065,1.061-13.827,6.822-13.827,7.883
				c0.265,6.492,0.464,12.986,0.662,19.479C607.733,530.486,607.8,552.613,607.866,574.806z"/>
			<path fill="#FEF6F9" d="M491.729,84.348c0.86,13.052,0.33,26.236,0.33,40.215c-5.563,0-10.136,0-14.642,0
				c0-14.045-0.465-27.627,0.33-41.142c0.199-3.512,4.572-6.758,7.022-10.137C487.223,76.928,491.463,80.506,491.729,84.348z"/>
			<path fill="#4E62AD" d="M469.467,544.398c0.598,10.533,0.133,21.066,0.133,32.596c-7.154,0-13.315,0-20.271,0
				c0-11.66-0.464-22.988,0.266-34.188c0.331-5.562,3.181-11.262,10.27-10.93C467.281,532.275,469.136,538.632,469.467,544.398z"/>
			<path fill="#FEF6F9" d="M452.043,84.348c0.86,13.052,0.331,26.236,0.331,40.215c-5.564,0-10.137,0-14.644,0
				c0-14.045-0.464-27.627,0.332-41.142c0.198-3.512,4.571-6.758,7.022-10.137C447.538,76.928,451.778,80.506,452.043,84.348z"/>
			<path fill="#4E62AD" d="M442.834,543.667c0.396,10.799,0.065,21.6,0.065,33.789c-5.896,0-10.933,0.332-15.834-0.199
				c-1.656-0.199-4.373-2.584-4.373-3.975c-0.065-10.469,0-21.068,0.928-31.469c0.465-5.436,3.312-10.471,10.138-10.008
				C440.847,532.339,442.636,537.97,442.834,543.667z"/>
			<path fill="#FEF6F9" d="M414.015,84.348c0.861,13.052,0.331,26.236,0.331,40.215c-5.563,0-10.136,0-14.643,0
				c0-14.045-0.464-27.627,0.332-41.142c0.198-3.512,4.571-6.758,7.021-10.137C409.51,76.928,413.749,80.506,414.015,84.348z"/>
		</g>
	</g>
	<path fill="#5BC4F0" d="M932.876,221.765"/>
	<path fill="#5BC4F0" d="M932.876,221.765"/>
	<path fill="#5BC4F0" d="M632.505,283.829"/>
	<path fill="none" d="M680.347,588.654"/>
	<rect x="45.104" y="480.929" fill="#FFFFFF" width="1254.01" height="196.215"/>
</g>
<g id="Layer_3">
	<rect x="472.134" y="507.427" fill="none" width="539.953" height="232.988"/>
	<g enable-background="new    ">
		<path fill="#304177" d="M653.735,577.738c0,7.003-1.129,13.856-3.382,20.559c-2.256,6.706-5.401,12.788-9.434,18.245
			c-4.036,5.46-8.752,10.088-14.151,13.884c-5.401,3.8-11.245,6.35-17.533,7.654v0.356h51.264v3.56h-71.912
			c-8.783,0-17.088-1.513-24.92-4.539s-14.685-7.356-20.559-12.994c-5.874-5.635-10.502-12.398-13.884-20.292
			c-3.382-7.891-5.073-16.701-5.073-26.433c0-9.492,1.63-18.245,4.895-26.255c3.263-8.011,7.771-14.892,13.528-20.648
			c5.754-5.754,12.577-10.263,20.47-13.528c7.891-3.262,16.523-4.895,25.899-4.895c9.373,0,18.006,1.663,25.899,4.984
			c7.891,3.323,14.713,7.893,20.47,13.706c5.754,5.815,10.263,12.699,13.528,20.647
			C652.103,559.702,653.735,568.365,653.735,577.738z M649.819,577.738c0-8.425-1.485-16.376-4.45-23.853
			c-2.968-7.476-7.151-14.031-12.549-19.669c-5.401-5.635-11.837-10.085-19.313-13.35c-7.476-3.263-15.664-4.896-24.564-4.896
			s-17.088,1.603-24.564,4.807s-13.915,7.596-19.313,13.172c-5.401,5.579-9.584,12.135-12.549,19.669
			c-2.968,7.537-4.45,15.575-4.45,24.119c0,8.427,1.513,16.317,4.539,23.674c3.026,7.359,7.237,13.795,12.638,19.312
			c5.398,5.519,11.837,9.852,19.313,12.994c7.476,3.146,15.664,4.718,24.564,4.718c9.256,0,17.622-1.691,25.098-5.073
			c7.476-3.382,13.854-7.891,19.135-13.528c5.279-5.635,9.345-12.104,12.193-19.402C648.395,593.134,649.819,585.57,649.819,577.738
			z"/>
		<path fill="#304177" d="M741.934,630.693c-2.197,3.025-4.717,5.548-7.565,7.564c-2.848,2.02-5.935,3.561-9.256,4.628
			c-3.323,1.068-6.765,1.603-10.324,1.603c-5.696,0-10.443-1.01-14.239-3.026c-3.8-2.017-6.826-4.687-9.078-8.01
			c-2.256-3.321-3.857-7.059-4.807-11.214c-0.951-4.152-1.424-8.366-1.424-12.639v-49.483h3.916v49.128
			c0,3.443,0.355,7.031,1.068,10.769c0.712,3.738,2.047,7.151,4.005,10.235c1.958,3.087,4.566,5.668,7.832,7.743
			c3.263,2.077,7.503,3.115,12.727,3.115c4.509,0,8.75-0.918,12.728-2.76c3.975-1.838,7.414-4.478,10.324-7.921
			c2.906-3.44,5.22-7.623,6.941-12.549c1.719-4.923,2.581-10.529,2.581-16.821v-40.939h3.916v61.231
			c0,1.308,0.028,2.909,0.089,4.807c0.059,1.899,0.117,3.827,0.178,5.785c0.059,1.958,0.148,3.826,0.268,5.606
			c0.117,1.78,0.236,3.266,0.355,4.45h-3.916c-0.119-1.185-0.208-2.67-0.267-4.45c-0.062-1.78-0.12-3.707-0.179-5.785
			c-0.061-2.074-0.119-4.094-0.178-6.052c-0.061-1.958-0.088-3.707-0.088-5.251h-0.357
			C745.877,624.256,744.128,627.667,741.934,630.693z"/>
		<path fill="#304177" d="M844.727,623.484c0,3.087,0.147,6.38,0.445,9.879c0.295,3.501,0.623,6.38,0.979,8.633h-3.738
			c-0.238-1.185-0.416-2.64-0.533-4.361c-0.119-1.719-0.268-3.498-0.445-5.34c-0.178-1.838-0.297-3.648-0.355-5.429
			c-0.062-1.78-0.09-3.263-0.09-4.45h-0.533c-2.375,7.477-6.47,13.024-12.282,16.644c-5.815,3.618-12.046,5.429-18.69,5.429
			c-3.323,0-6.616-0.476-9.879-1.424c-3.266-0.951-6.202-2.373-8.811-4.272c-2.611-1.896-4.717-4.33-6.319-7.298
			c-1.603-2.965-2.403-6.467-2.403-10.502c0-5.812,1.514-10.502,4.539-14.062c3.026-3.56,6.792-6.318,11.303-8.276
			c4.51-1.958,9.346-3.232,14.508-3.827c5.162-0.593,9.879-0.89,14.15-0.89h14.24v-6.587c0-9.136-2.434-15.811-7.298-20.024
			c-4.867-4.211-11.214-6.319-19.046-6.319c-4.867,0-9.406,0.891-13.617,2.67c-4.213,1.78-7.982,4.155-11.303,7.12l-2.137-3.025
			c3.797-3.321,8.1-5.844,12.906-7.565c4.805-1.719,9.522-2.581,14.15-2.581c9.373,0,16.76,2.403,22.161,7.209
			c5.398,4.806,8.099,12.371,8.099,22.695V623.484z M840.811,597.318h-12.638c-4.511,0-9.256,0.267-14.24,0.801
			c-4.983,0.534-9.554,1.633-13.706,3.293c-4.154,1.663-7.564,4.035-10.234,7.12c-2.67,3.087-4.006,7.239-4.006,12.46
			c0,3.799,0.74,6.973,2.226,9.522c1.482,2.554,3.382,4.601,5.696,6.142c2.313,1.543,4.863,2.67,7.653,3.382
			c2.787,0.712,5.429,1.068,7.921,1.068c6.053,0,11.095-1.127,15.131-3.383c4.032-2.252,7.268-5.131,9.701-8.633
			c2.43-3.499,4.121-7.356,5.072-11.569c0.948-4.211,1.424-8.336,1.424-12.371V597.318z"/>
		<path fill="#304177" d="M950.813,507.427h3.916v134.568h-3.916v-22.072h-0.534c-3.56,8.071-8.633,14.182-15.219,18.334
			s-13.795,6.23-21.627,6.23c-5.936,0-11.423-1.099-16.465-3.293c-5.045-2.194-9.376-5.221-12.994-9.078
			c-3.621-3.854-6.438-8.425-8.455-13.706c-2.02-5.279-3.025-11.006-3.025-17.177c0-6.169,1.006-11.927,3.025-17.267
			c2.017-5.34,4.834-9.968,8.455-13.884c3.618-3.916,7.949-6.97,12.994-9.167c5.042-2.194,10.529-3.293,16.465-3.293
			c7.832,0,15.041,2.078,21.627,6.23c6.586,4.155,11.659,10.323,15.219,18.512h0.534V507.427z M876.41,601.234
			c0,5.34,0.859,10.443,2.58,15.308c1.719,4.867,4.184,9.108,7.387,12.728c3.205,3.621,7.09,6.496,11.66,8.633
			c4.566,2.136,9.7,3.204,15.396,3.204c5.457,0,10.471-1.068,15.041-3.204c4.566-2.137,8.514-5.012,11.837-8.633
			c3.321-3.619,5.933-7.86,7.832-12.728c1.897-4.864,2.849-10.026,2.849-15.486c0-5.456-0.951-10.618-2.849-15.485
			c-1.899-4.864-4.511-9.106-7.832-12.728c-3.323-3.618-7.271-6.497-11.837-8.633c-4.57-2.136-9.584-3.204-15.041-3.204
			c-5.696,0-10.83,1.099-15.396,3.293c-4.57,2.197-8.455,5.135-11.66,8.812c-3.203,3.68-5.668,7.951-7.387,12.815
			C877.27,590.792,876.41,595.894,876.41,601.234z"/>
	</g>
	<rect x="303.29" y="541.044" fill="none" width="258.433" height="80.963"/>
	<g enable-background="new    ">
		<path fill="#304177" d="M394.5,603.775c-0.875,0.164-1.722,0.246-2.542,0.246c-2.952,0-5.057-0.834-6.314-2.501
			c-1.258-1.667-1.886-3.759-1.886-6.273v-28.372h-8.2v-1.558h8.118v-11.07h1.804v11.07h11.07v1.558h-11.07v28.372
			c0,2.57,0.628,4.415,1.886,5.535c1.257,1.121,2.923,1.681,5.002,1.681c1.53,0,2.924-0.246,4.182-0.737l0.246,1.394
			C396.14,603.391,395.374,603.611,394.5,603.775z"/>
		<path fill="#304177" d="M409.177,575.239c0.546-1.749,1.325-3.307,2.337-4.674c1.011-1.366,2.173-2.528,3.485-3.485
			c1.312-0.956,2.733-1.681,4.264-2.173c1.53-0.492,3.116-0.738,4.756-0.738c2.624,0,4.81,0.465,6.56,1.395
			c1.749,0.93,3.143,2.16,4.182,3.689c1.038,1.531,1.776,3.253,2.214,5.166c0.437,1.914,0.656,3.854,0.656,5.822v22.796h-1.804
			v-22.632c0-1.53-0.164-3.17-0.492-4.92c-0.328-1.749-0.943-3.334-1.845-4.756c-0.902-1.421-2.119-2.61-3.649-3.567
			c-1.531-0.956-3.472-1.435-5.822-1.435c-2.078,0-4.032,0.424-5.863,1.271c-1.832,0.849-3.417,2.064-4.756,3.649
			c-1.34,1.586-2.406,3.513-3.198,5.78c-0.793,2.27-1.189,4.853-1.189,7.749v18.86h-1.804v-61.992h1.804v34.194H409.177z"/>
		<path fill="#304177" d="M452.39,583.767c0,2.296,0.341,4.564,1.025,6.806c0.683,2.242,1.722,4.251,3.116,6.027
			s3.157,3.212,5.289,4.305c2.132,1.094,4.646,1.64,7.544,1.64c2.952,0,5.576-0.587,7.872-1.763
			c2.296-1.175,4.291-2.883,5.986-5.125l1.312,1.147c-1.859,2.406-4.032,4.237-6.519,5.494c-2.488,1.257-5.371,1.887-8.651,1.887
			c-2.788,0-5.33-0.507-7.626-1.518c-2.296-1.011-4.278-2.419-5.945-4.223c-1.668-1.805-2.952-3.963-3.854-6.479
			c-0.902-2.514-1.353-5.248-1.353-8.199c0-2.842,0.465-5.466,1.396-7.872c0.932-2.405,2.205-4.482,3.822-6.232
			c1.617-1.749,3.521-3.102,5.713-4.059c2.191-0.956,4.547-1.436,7.067-1.436c2.958,0,5.534,0.521,7.726,1.559
			c2.191,1.039,4.013,2.405,5.466,4.1c1.452,1.695,2.534,3.622,3.247,5.781c0.712,2.16,1.068,4.359,1.068,6.601v1.559H452.39z
			 M484.288,582.208c-0.055-2.46-0.479-4.701-1.271-6.724c-0.793-2.022-1.874-3.758-3.239-5.207
			c-1.367-1.448-3.007-2.569-4.92-3.362c-1.914-0.792-4.046-1.188-6.396-1.188c-2.843,0-5.276,0.588-7.298,1.763
			c-2.023,1.176-3.677,2.624-4.961,4.346c-1.285,1.723-2.228,3.526-2.829,5.412c-0.602,1.886-0.902,3.54-0.902,4.961H484.288z"/>
	</g>
</g>
</svg>
