<svg width="110" height="84" viewBox="0 0 110 84" fill="none" xmlns="http://www.w3.org/2000/svg">
<rect width="110" height="84" fill="white"/>
<path d="M31.375 78C27 78 22.8681 76.8293 18.9792 74.4878C15.0903 72.1463 11.9306 68.7805 9.5 64.3902C7.16667 60 6 54.8293 6 48.878C6 42.9268 7.45833 37.122 10.375 31.4634C11.3472 29.4146 13.0972 26.7805 15.625 23.561C18.25 20.3415 20.6806 17.561 22.9167 15.2195L32.1042 6L38.6667 16.8293C34.0972 19.6585 30.0625 23.1707 26.5625 27.3659C23.0625 31.4634 21.3125 35.2195 21.3125 38.6341C21.3125 40.3902 21.7014 41.8049 22.4792 42.878C25.8819 40.439 29.6736 39.2195 33.8542 39.2195C36.8681 39.2195 39.7361 40.1463 42.4583 42C45.2778 43.7561 47.5139 46.0976 49.1667 49.0244C50.9167 51.8537 51.7917 54.7805 51.7917 57.8049C51.7917 61.2195 50.7708 64.4878 48.7292 67.6098C46.7847 70.7317 44.2083 73.2683 41 75.2195C37.8889 77.0732 34.6806 78 31.375 78ZM83.7292 78C79.3542 78 75.2222 76.8293 71.3333 74.4878C67.4444 72.1463 64.2847 68.7805 61.8542 64.3902C59.5208 60 58.3542 54.8293 58.3542 48.878C58.3542 44.6829 58.8889 40.9268 59.9583 37.6098C61.0278 34.1951 62.875 30.6341 65.5 26.9268C68.0278 23.4146 70.4097 20.4878 72.6458 18.1463C74.8819 15.7073 78.7708 11.6585 84.3125 6L90.875 16.8293C86.3056 19.6585 82.2708 23.1707 78.7708 27.3659C75.2708 31.4634 73.5208 35.2195 73.5208 38.6341C73.5208 40.3902 73.9097 41.8049 74.6875 42.878C78.0903 40.439 81.8819 39.2195 86.0625 39.2195C89.0764 39.2195 91.9444 40.1463 94.6667 42C97.4861 43.7561 99.7222 46.0976 101.375 49.0244C103.125 51.8537 104 54.7805 104 57.8049C104 61.2195 103.028 64.4878 101.083 67.6098C99.1389 70.7317 96.5625 73.2683 93.3542 75.2195C90.2431 77.0732 87.0347 78 83.7292 78Z" fill="#CFCFCF"/>
</svg>
