<?xml version="1.0" encoding="utf-8"?>

<!-- The icon can be used freely in both personal and commercial projects with no attribution required, but always appreciated. 
You may NOT sub-license, resell, rent, redistribute or otherwise transfer the icon without express written permission from iconmonstr.com -->

<!DOCTYPE svg PUBLIC "-//W3C//DTD SVG 1.1//EN" "http://www.w3.org/Graphics/SVG/1.1/DTD/svg11.dtd">
<svg version="1.1" xmlns="http://www.w3.org/2000/svg" xmlns:xlink="http://www.w3.org/1999/xlink" x="0px" y="0px"
	 width="512px" height="512px" viewBox="0 0 512 512" enable-background="new 0 0 512 512" xml:space="preserve">
<path id="microphone-4-icon" d="M188,235.166v-117c0-37.555,30.445-68,68-68c37.556,0,68,30.445,68,68v117
	c0,37.557-30.444,68.002-68,68.002C218.445,303.168,188,272.723,188,235.166z M354,200.166v35c0,54.039-43.963,98.002-98,98.002
	s-98-43.963-98-98.002v-35h-40v35c0,68.434,50.071,125.381,115.5,136.158v41.309c-38.252,2.789-66.5,12.566-66.5,24.201
	c0,13.807,39.784,25,88.861,25c49.076,0,88.86-11.193,88.86-25c0-11.605-28.111-21.363-66.222-24.18v-41.33
	C343.929,360.547,394,303.6,394,235.166v-35H354z"/>
</svg>
