<?xml version="1.0" encoding="utf-8"?>
<!-- Generator: Adobe Illustrator 16.0.4, SVG Export Plug-In . SVG Version: 6.00 Build 0)  -->
<!DOCTYPE svg PUBLIC "-//W3C//DTD SVG 1.1//EN" "http://www.w3.org/Graphics/SVG/1.1/DTD/svg11.dtd">
<svg version="1.1" id="Layer_1" xmlns="http://www.w3.org/2000/svg" xmlns:xlink="http://www.w3.org/1999/xlink" x="0px" y="0px"
	 width="612px" height="612px" viewBox="0 0 612 612" enable-background="new 0 0 612 612" xml:space="preserve">
<circle fill="none" stroke="#000000" stroke-width="6" stroke-miterlimit="10" cx="306" cy="306" r="264"/>
<rect x="104.51" y="191.997" fill="none" width="415.57" height="317.587"/>
<g enable-background="new    ">
	<path d="M225.15,191.993l89.279,228.48h-33.6l-24.96-68.8h-96.64l-25.6,68.8h-31.04l88.96-228.48H225.15z M246.27,326.073
		l-38.08-106.56h-0.64l-38.72,106.56H246.27z"/>
	<path d="M436.988,191.993c23.041,0,40.48,5.921,52.32,17.761s17.76,28.43,17.76,49.76c0,21.335-5.92,37.975-17.76,49.92
		c-11.84,11.95-29.279,17.815-52.32,17.6h-69.76v93.44h-30.4v-228.48H436.988z M426.748,301.434
		c17.281,0.215,29.92-3.305,37.92-10.56c8-7.25,12-17.705,12-31.36c0-13.65-4-24.05-12-31.2c-8-7.145-20.639-10.72-37.92-10.72
		h-59.52v83.84H426.748z"/>
</g>
</svg>
