<?xml version="1.0" encoding="utf-8"?>
<!-- Generator: Adobe Illustrator 16.0.4, SVG Export Plug-In . SVG Version: 6.00 Build 0)  -->
<!DOCTYPE svg PUBLIC "-//W3C//DTD SVG 1.1//EN" "http://www.w3.org/Graphics/SVG/1.1/DTD/svg11.dtd">
<svg version="1.1" id="Layer_1" xmlns="http://www.w3.org/2000/svg" xmlns:xlink="http://www.w3.org/1999/xlink" x="0px" y="0px"
	 width="612px" height="612px" viewBox="0 0 612 612" enable-background="new 0 0 612 612" xml:space="preserve">
<g>
	<path fill-rule="evenodd" clip-rule="evenodd" fill="#FFC83F" d="M428.802,472.409c-30.95-0.248-61.473,2.512-89.846,16.147
		c-12.967,6.229-25.365,13.648-38.006,20.557c-20.562,11.238-41.691,21.16-65.276,23.832c-23.727,2.688-44.455-5.167-62.596-20.162
		c-33.66-27.825-36.027-80.158-14.681-114.83c8.691-14.117,20.93-24.924,32.413-36.444c9.464-9.496,17.084-20.238,23.698-31.819
		c4.323-7.567,9.119-14.866,13.434-22.437c12.205-21.415,31.484-32.441,54.654-38.357c22.113-5.646,41.942-0.595,60.745,11.195
		c14.861,9.317,28.254,20.441,40.773,32.636c13.876,13.515,28.253,26.332,44.521,37.024c9.428,6.196,20.061,8.808,30.42,12.364
		c10.085,3.461,19.949,7.341,28.252,14.29c26.482,22.169,25.645,59.311-1.848,81.083c-13.254,10.495-28.033,16.407-45.283,14.968
		C436.409,472.141,432.595,472.409,428.802,472.409z"/>
	<path fill-rule="evenodd" clip-rule="evenodd" fill="#FFC83F" d="M167.61,334.784c-24.8,0.373-43.318-17.321-44.3-42.278
		c-0.575-14.64,2.906-28.605,7.088-42.43c4.06-13.418,9.211-26.522,11.522-40.437c1.56-9.393-0.28-18.982,1.605-28.359
		c0.261-1.298,0.432-2.622,0.785-3.895c2.874-10.367,8.986-16.017,17.844-16.543c8.973-0.533,18.419,5.364,22.074,14.203
		c3.185,7.703,5.815,15.634,8.978,23.348C198.577,211.499,206.57,223,215.385,234c26.147,32.633,14.609,67.82-8.161,88.035
		C197.232,330.905,186.656,334.498,167.61,334.784z"/>
	<path fill-rule="evenodd" clip-rule="evenodd" fill="#FFC83F" d="M548.846,316.276c1.731,40.424-43.053,58.427-69.447,46.519
		c-10.744-4.848-20.007-11.425-27.497-20.552c-10.982-13.384-11.68-27.797-4.625-43.097c3.353-7.27,7.798-13.876,12.277-20.458
		c9.209-13.53,17.359-27.564,22.22-43.349c2.416-7.845,6.876-14.289,14.451-18.212c9.36-4.847,17.446-2.692,22.896,6.274
		c3.207,5.278,4.65,11.205,5.829,17.141c2.386,12.015,6.715,23.209,12.572,33.967C545.79,289.693,548.836,301.858,548.846,316.276z"
		/>
	<path fill-rule="evenodd" clip-rule="evenodd" fill="#FFC83F" d="M226.778,214.123c-0.205-10.981,2.415-21.438,6.159-31.626
		c5.057-13.756,8.775-27.731,10.115-42.432c1.093-11.99,6.947-21.643,18.026-27.239c10.733-5.423,20.558-1.921,25.222,9.076
		c6.976,16.449,15.482,32.067,24.386,47.524c8.181,14.2,15.16,28.898,15.308,45.863c0.221,25.447-17.76,44.315-43.284,45.401
		c-9.784,0.417-19.288-1.023-28.564-3.979C236.585,251.117,226.719,235.677,226.778,214.123z"/>
	<path fill-rule="evenodd" clip-rule="evenodd" fill="#FFC83F" d="M437.35,254.794c-0.009,15.438-6.948,25.834-22.432,31.166
		s-31.288,5.668-46.794-0.135c-23.438-8.772-34.733-36.604-25.255-61.49c3.256-8.548,7.968-16.342,12.36-24.299
		c6.424-11.636,11.982-23.653,16.483-36.164c0.896-2.492,1.979-4.927,3.126-7.317c7.169-14.931,25.694-16.613,35.628-3.249
		c5.134,6.904,7.514,14.937,8.435,23.26c1.698,15.368,5.531,30.113,10.964,44.556C433.864,231.75,437.701,242.505,437.35,254.794z"
		/>
	<path fill-rule="evenodd" clip-rule="evenodd" fill="#FFC83F" d="M64.231,371.643c0.473-23.986,3.448-43.856,5.989-63.758
		c1.179-9.231-0.261-18.58,1.78-27.746c2.378-10.674,12.924-16.399,22.033-11.799c5.041,2.544,6.796,7.415,8.521,12.259
		c5.316,14.934,12.696,28.807,22.41,41.284c6.038,7.756,12.955,14.829,19.487,22.199c18.491,20.86,17.194,49.443-2.984,65.673
		c-22.671,18.237-56.446,11.432-70.388-14.184C66.124,386.465,64.197,378.622,64.231,371.643z"/>
	<path fill-rule="evenodd" clip-rule="evenodd" fill="#FFC840" d="M408.354,116.548c-0.188,11.358-12.436,18.725-21.207,14.233
		c-2.777-1.422-4.126-3.8-4.352-6.831c-0.213-2.837-0.061-5.649,0.673-8.431c1.975-7.495,3.948-14.971,1.63-22.82
		c-0.455-1.542-0.327-3.469,0.15-5.03c0.949-3.105,3.484-4.818,5.879-2.072C399.354,95.026,406.405,105.217,408.354,116.548z"/>
	<path fill-rule="evenodd" clip-rule="evenodd" fill="#FFC840" d="M253.031,91.791c0.804-8.857,6.919-17.537,13.325-25.972
		c2.401-3.162,4.982-2.036,6.453,1.332c0.595,1.362,1.013,2.911,1.05,4.387c0.171,6.746,1.854,12.982,5.177,18.905
		c2.396,4.272,0.912,8.07-2.724,11.053c-4.02,3.298-8.85,4.34-13.832,4.026C255.659,105.09,252.86,101.46,253.031,91.791z"/>
	<path fill-rule="evenodd" clip-rule="evenodd" fill="#FFC840" d="M491.093,192.824c0.742-9.31,2.47-19.328,6.781-28.713
		c1.205-2.623,2.104-6.441,5.802-6.039c3.81,0.416,3.645,4.389,4.141,7.221c1.598,9.1,3.005,18.235,4.408,27.368
		c1.236,8.038-1.46,11.039-10.281,11.629C493.939,204.826,490.932,201.907,491.093,192.824z"/>
	<path fill-rule="evenodd" clip-rule="evenodd" fill="#FFC841" d="M165.622,143.546c-0.071,3.939-0.731,7.648-4.717,9.618
		c-4.253,2.102-8.548,1.853-12.399-0.825c-3.77-2.623-3.952-6.562-3.173-10.74c1.386-7.437,2.591-14.908,3.975-22.345
		c0.342-1.837,0.824-4.024,3.161-4.193c2.538-0.183,2.84,2.255,3.334,3.93c1.419,4.812,4.4,8.797,6.627,13.175
		C164.255,135.755,165.685,139.432,165.622,143.546z"/>
	<path fill-rule="evenodd" clip-rule="evenodd" fill="#FFC843" d="M78.465,254.107c-6.019-0.091-8.018-2.62-7.059-8.59
		c0.688-4.285,1.078-8.617,1.679-12.917c0.42-3.006,1.128-5.961,2.666-8.612c0.841-1.45,1.848-3.218,3.887-2.488
		c1.802,0.645,1.522,2.562,1.186,3.964c-1.048,4.37,0.42,8.186,2.227,11.983c1.299,2.732,2.585,5.456,2.808,8.564
		C86.272,251.797,84.125,254.192,78.465,254.107z"/>
</g>
<rect x="200.596" y="355.413" transform="matrix(0.9514 -0.308 0.308 0.9514 -113.3843 114.5848)" fill-rule="evenodd" clip-rule="evenodd" fill="none" width="211.288" height="122.017"/>
<text transform="matrix(0.8848 -0.2865 0.3081 0.9514 222.1533 499.5527)"><tspan x="0" y="0" fill="#3284BF" font-family="'HelveticaNeue-Bold'" font-size="160">B</tspan><tspan x="112.639" y="0" fill="#3284BF" font-family="'HelveticaNeue-Light'" font-size="160">U</tspan></text>
</svg>
