<?xml version="1.0" encoding="utf-8"?>
<!-- Generator: Adobe Illustrator 16.0.4, SVG Export Plug-In . SVG Version: 6.00 Build 0)  -->
<!DOCTYPE svg PUBLIC "-//W3C//DTD SVG 1.1//EN" "http://www.w3.org/Graphics/SVG/1.1/DTD/svg11.dtd">
<svg version="1.1" id="Layer_1" xmlns="http://www.w3.org/2000/svg" xmlns:xlink="http://www.w3.org/1999/xlink" x="0px" y="0px"
	 width="612px" height="612px" viewBox="0 0 612 612" enable-background="new 0 0 612 612" xml:space="preserve">
<g id="UvC9dZ.tif">
	<g>
		<path fill-rule="evenodd" clip-rule="evenodd" fill="#EC5F2D" d="M402.454,316.571c-0.432,0.415-0.863,0.83-1.295,1.245
			c-0.609,3.147-2.456,6.195-0.759,9.526c-0.694,1.51-1.396,3.016-2.681,4.145c0.299,1.359,0.601,2.717,0.942,4.265
			c-1.504,1.267-2.627-2.546-3.811-0.547c-0.441,0.744,0.21,2.295,0.644,3.365c0.896,2.206,3.553,3.528,3.229,6.371
			c-0.074,1.703-1.463,2.595-2.345,3.8c-0.425,2.103,3.733,2.504,2.027,4.779c-1.372,1.826-3.741,1.122-5.734,0.884
			c-5.542-0.66-10.357,1.025-14.679,4.4c-1.003,1.121,0.053,1.6,0.698,2.209c0.661,0.835,1.184,1.694,0.507,2.768
			c-12.341,13.331-22.336,28.47-31.664,43.871c-12.229,20.195-28.694,36.906-42.739,55.565
			c-7.235,9.611-15.041,18.896-20.993,29.455c-1.372,2.436-3.853,3.616-6.04,5.115c-1.963,0.945-3.951,2.016-5.071-1.062
			c1.279-2.103,4.379-3.04,3.982-6.22c0.073-0.243,0.146-0.489,0.211-0.735c0.585-1.145,1.079-2.33,1.501-3.55
			c0.768-2.054,1.379-4.148,1.812-6.299c0.206-0.86,0.518-1.675,0.945-2.448c2.289-4.206,0.871-8.75,1.188-13.127
			c-0.102-3.897-2.219-7.185-3.271-10.793c-1.519-2.829-4.119-2.975-7.85-1.841c2.37-6.343,6.375-10.522,8.042-15.996
			c0.518-1.701,5.434-6.387,10.445-4.823c0.925,0.288,2.137,0.592,2.689-0.584c0.477-1.016-0.051-1.843-0.915-2.625
			c-6.75-6.111-6.746-7.676-0.144-15.063c2.645-1.192,2.869-4.329,4.854-6.052c1.269-1.982,1.394-4.742,3.968-5.837
			c2.108-1.685,4.574-0.488,6.848-0.845c1.182-0.186,2.537-0.15,1.784-2.019c-0.73-2.276-7.256-0.856-3.733-5.849
			c2.441-1.569,4.065,0.595,6.006,1.313c0.401,1.179,1.166,1.985,2.382,2.332c1.765-0.103,4.452,3.588,5.067-1.235
			c-2.09-1.257-4.178-2.515-6.268-3.773c-1.256-1.618-3.927-3.554,0.834-3.857c1.572-0.099,3.08-0.456,4.56-0.964
			c0.709-0.065,1.419-0.13,2.128-0.195c4.032-0.477,2.158-4.271,3.511-6.253c0.462-0.417,0.925-0.834,1.388-1.251
			c1.307-1.118,2.774-1.249,4.365-0.747c0.546,0.171,1.118,0.344,1.653-0.062c-0.485,0.183-0.967,0.176-1.447-0.037
			c-2.66-2.622-5.279-5.279-8.146-7.675c2.466-4.101,4.932-8.202,7.398-12.303c-0.065-0.759,0.69-0.947,1.005-1.442
			c5.906-12.244,11.812-24.488,17.717-36.732c0.504-0.661,2.394,2.086,2.048-0.879c-0.125-1.078-0.541-2.285,0.175-3.369
			c2.185-3.348,2.982-7.306,4.794-10.816c3.767-13.379,7.578-26.744,13.677-39.313c-0.007-1.662,1.094-3.393-0.312-4.966
			c0.568-1.595,1.138-3.19,1.705-4.785c1.817-5.556,6.178-9.956,7.204-15.865c0.123-0.535,0.304-1.053,0.525-1.555
			c0.899-1.621,2.065-3.095,2.735-4.852c0.548-1.208,1.461-2.208,1.965-3.444c1.318-1.648,0.901-4.371,3.305-5.345
			c5.551-16.337,13.326-31.657,21.413-46.834c0.084-3.148,2.21-5.311,3.731-7.766c0.926-1.272,1.614-2.664,2.085-4.167
			c0.438-1.291,1.007-2.508,1.969-3.5c1.519-2.056,1.714-4.596,2.523-6.912c1.312-1.868,1.505-4.289,3.004-6.062
			c-0.02-0.345,0.012-0.686,0.089-1.023c2.333-1.211,1.834-4.492,4.163-5.707c1.942-0.245,3.131-1.35,3.617-3.238
			c1.423-1.909,0.106-4.125,0.688-6.123c1.614-4.239,3.203-8.495,7.245-11.157c1.644-1.034,4.341-0.109,5.112-2.762
			c0.55-0.961,1.184-1.856,1.909-2.685c1.627-1.773,3.55-3.318,4.392-5.699c0.417-0.983,0.962-1.889,1.622-2.723
			c1.024-1.159,1.786-2.485,2.432-3.888c0.977-1.58,2.343-2.798,3.71-4.019c1.663-1.276,3.232-2.64,4.326-4.465
			c0.263-0.449,0.564-0.873,0.878-1.285c0.92-1.208,2.164-2.155,2.863-3.542c0.363-1.045-0.198-2.148,0.214-3.177
			c2.464-2.457,5.805-0.395,8.499-1.649c1.254-1.351,2.994-1.736,4.623-2.335c3.635-0.708,7.041-2.121,10.487-3.407
			c8.099-3.065,14.327,4.331,22.006,3.943c2.782-0.141,5.609,0.64,8.412,1c2.206,0.526,4.409,0.524,6.612-0.002
			c0.395-0.037,0.742-0.184,1.041-0.443c3.815-1.151,6.014,2.812,9.414,2.969c2.897,0.799,3.49,3.306,4.219,5.713
			c2.128,2.893,6.317,2.423,8.503,5.22c0.415,0.356,0.704,0.796,0.875,1.315c0.116,2.872,1.717,4.823,3.973,6.368
			c0.405,0.367,0.742,0.787,1.021,1.252c1.034,1.725,1.246,4.328,4.245,3.944c3.353,4.201,5.938,8.778,6.946,14.131
			c0.81,2.242,0.446,4.589,0.644,6.883c0.072,1.913,0.755,3.712,1.077,5.572c0.292,1.46,0.822,2.789,2.09,3.705
			c1.825,4.881,0.357,9.873-0.371,14.551c-1.246,8.006,1.75,15.731,0.492,23.603c-0.489,0.426-0.998,0.43-1.526,0.076
			c-1.099-1.396-1.21-3.16-1.773-4.756c-0.509-1.804-0.714-3.69-1.458-5.432c-0.415-0.971-0.858-1.93-1.264-2.908
			c-0.46-1.176-0.744-2.45-1.911-3.166c-0.338-0.186-0.663-0.428-0.949-0.666c-0.899,0.834,0.467,1.382,0.262,2.119
			c0.572,4.893,1.806,9.647,2.681,14.458c0.039,1.703,1.164,2.734,2.346,3.731c0.39,0.756,0.192,1.472-0.136,2.18
			c-1.028,1.744-0.146,3.371,0.338,5.023c0.453,1.232,0.812,2.504,1.824,3.403c0.439,0.123,0.888,0.185,1.343,0.123
			c0.851-0.258,1.601-1.048,2.604-0.525c2.354,9.457,4.633,18.904,3.895,28.801c-2.184,29.271-7.559,57.567-24.705,82.341
			c-1.059,0.747-0.473,2.01-0.916,2.952c-0.33,0.879-1.246,2.394-1.104,2.447c1.432,0.546,1.476-1.194,2.365-1.677
			c0.6-0.562,1.448-0.77,1.995-1.407c0.972,0.114,2.743-0.779,1.765,1.616c-4.643,11.339-10.555,21.674-21.866,27.721
			c-4.17,2.229-6.47,2.002-9.104-3.272c-2.691-5.393-3.307-8.526,0.95-13.221c3.307-3.65,1.017-7.732-7.253-14.845
			c0.453,11.176-1.904,21.196-3.806,31.29c-1.448,7.699-3.476,15.197-8.038,21.72c-5.923,8.462-11.979,10.013-21.539,5.666
			c-3.664-1.644-4.958-5.04-6.247-8.42c-0.032-1.702-1.413-1.191-2.357-1.404c-0.697-1.471-1.305-2.995-2.109-4.404
			c-2.584-4.528-7.747-4.66-10.439-0.343c-2.865,4.597-2.031,9.861-2.755,14.846c-0.352,2.428-0.711,4.854-1.065,7.281
			c-2.607,10.991-2.757,22.03-2.024,33.312c0.506,7.814,2.432,15.525,1.292,23.62c-0.67,4.764,2.061,9.87,1.525,15.065
			c-0.197,1.908-0.064,3.789-2.484,4.286c-2.392,0.49-4.481-0.03-6.089-1.984c-1.499-1.82-0.898-3.551,0.525-4.939
			c3.201-3.129,1.955-6.193-0.491-8.624c-3.095-3.077-4.731-6.183-4.659-10.784c0.062-4.033-2.673-7.02-7.258-6.395
			c-7.397,1.01-15.101-0.524-22.165,3.679c-3.353,1.994-6.583-1.013-5.669-5.101c2.338-10.47,1.718-21.244,3.719-31.809
			c0.885-4.665,1.612-10.493-0.762-15.607c-0.675-1.456-1.049-3.364-0.752-4.804c2.806-13.696-4.854-25.457-6.951-38.228
			c-0.33-1.998-0.35-4.068-0.959-6.006C403.924,315.926,403.188,316.142,402.454,316.571z"/>
		<path fill-rule="evenodd" clip-rule="evenodd" fill="#2EB2AD" d="M74.535,385.682c-0.801-2.097-2.808-3.76-2.284-6.335
			c-0.268-3.521-2.729-6.369-3.039-9.883c0.033-1.527,0.206-2.994,1.75-3.827c0.927-0.147,1.618,0.262,2.161,0.908
			c0.344,0.155,0.152,0.938,0.846,0.796c-0.235-0.238-0.418-0.512-0.572-0.85c-0.922-1.568-2.509-2.441-3.659-3.745
			c-0.795-0.777-1.552-1.582-2.167-2.518c-0.297-0.512-0.495-1.057-0.626-1.632c-0.254-1.805-0.446-3.596,1.12-4.99
			c1.528-1.246-0.161-2.46-0.038-3.691c-2.046-2.33-2.495-5.557-4.457-7.933c-1.298-3.874-2.091-7.875-2.963-11.856
			c-1.83-5.11,2.101-2.292,3.018-1.857c3.872,1.833,7.296,4.573,11.515,5.745c3.722,0.468,7.262,1.722,10.909,2.497
			c0.876,0.216,1.61,0.808,2.515,0.965c0.811,0.141,1.308-0.1,0.485-0.097c-0.114,0.001-0.175,0.001-0.264-0.006
			c-3.625-1.71-8.117-1.262-10.87-4.762c-4.489-2.184-8.291-5.09-10.646-9.664c-0.586-1.14-1.429-2.495-2.502-2.981
			c-10.127-4.586-14.06-13.577-17.266-24.914c5.463,4.451,11.589,5.354,16.16,9.443c5.536,4.952,11.89,8.531,18.891,10.981
			c1.587,0.964,3.59,0.881,5.111,2.024c0.688,1.504,1.539,3.088-1.355,2.936c-2.405,0.078-4.844-1.143-8.521,0.802
			c5.348,1.932,9.734,3.806,14.286,5.102c10.271,2.927,20.895,4.562,29.626,11.726c10.035,8.233,33.249,2.638,39.117-9
			c3.226,1.664,1.108,4.856,1.977,7.244c0.717,1.974,0.423,4.331,0.711,6.497c0.062,2.429-0.105,4.869,0.036,7.269
			c1.254,2.1,1.224-0.683,1.959-0.548c0.527-0.211,1.009-0.146,1.454,0.184c3.563-6.868,2.126-14.797,4.649-21.885
			c-0.483-1.292-1.103-2.651,1.255-2.537c1.662,1.342,2.319,2.919,2.484,5.206c0.452,6.282-0.41,12.638,1.24,18.871
			c0.648,2.449-0.634,4.691-1.966,6.872c-2.154,3.526-4.897,6.664-3.465,11.702c0.976,3.437-3.5,5.708-4.415,9.07
			c-0.743,1.174-0.231,2.368-0.032,3.551c0.364,0.919,0.771,1.836,0.29,2.837c-1.209,3.607-3.668,6.72-4.197,10.597
			c-0.171,1.566-0.925,2.766-2.256,3.605c-4.342,1.778-5.583,6.41-8.625,9.422c-8.62,8.535-18.375,15.698-27.478,23.39
			c1.562-0.527,3.192-1.465,5.095-1.458c2.263-0.353,2.954,2.174,4.794,2.589c1.027-0.128,2.044-0.161,3.047,0.159
			c1.721,0.511,2.49,3.157,4.874,2.121c4.893-1.61,7.274-5.775,9.944-9.666c2.435-3.546,5.297-6.791,8.062-11.302
			c-2.136,1.326-2.913,3.032-4.524,3.527c-2.209,0.725-4.278,1.104-4.858-2.042c1.489-6.513,7.103-10.544,9.833-16.315
			c0.983-1.02,2.032-1.965,3.28-2.664c3.184-3.77,4.652-8.556,7.257-12.597c13.298-20.632,27.216-40.794,48.379-54.472
			c1.201-0.776,2.464-1.498,2.849-3.042c0.353-1.191,0.962-1.94,2.344-1.366c6.888-1.265,12.217-5.849,18.39-8.639
			c1.622-2.1,3.715-2.994,6.357-2.479c2.216,0.68,4.114-0.348,6.056-1.132c2.864-0.456,5.671-1.022,7.41-3.719
			c1.401-1.784,2.515-4.794,3.888,0.26c1.151,4.232,1.281,8.406,1.166,12.654c-0.455,16.696,1.841,32.965,7.731,48.622
			c2.705,7.189,7.32,12.874,14.351,16.479c2.296,1.176,4.223,3.073,6.318,4.641c-2.161,4.149-5.789,6.983-9.058,10.144
			c-0.435,0.354-0.901,0.668-1.379,0.962c-1.669,0.953-3.051,2.307-4.613,3.356c-1.153,1.312,0.997,1.751,0.78,2.821
			c0.084,1.108-0.289,2.102-0.709,3.09c-0.57,1.261-1.17,2.502-2.092,3.553c-3.035,2.295-5.747,4.927-8.137,7.891
			c-2.263,1.773-5.048,2.818-7.03,4.995c-2.253,1.443-2.709,4.04-3.936,6.142c-0.995,0.74-2.292,0.938-3.225,1.791
			c-0.86,1.104-1.466,2.518-3.438,2.651c0.417-3.654,2.976-6.749,2.438-10.886c-4.398,1.784-7.277,4.406-9.069,8.994
			c-2.846,7.288-8.541,10.959-16.619,11.496c-6.699,0.446-12.912,3.579-19.773,4.142c-4.652,0.381-8.887,0.508-13.073-1.555
			c-4.946-1.567-10.344-1.333-15.069-3.782c-6.592-4.541-14.563-6.491-21.055-11.242c-1.426-1.043-2.666-0.785-4.191,0.594
			c-3.675,3.318-8.256,5.139-12.848,6.958c-2.603,1.032-5.235,1.779-7.751,1.048c-8.422-2.448-16.719-2.023-25.394-1.279
			c-4.895,0.42-10.341-3.153-15.163-5.978c-12.06-7.065-17.103-19.045-22.29-30.98c0.597-0.746,1.4-0.922,2.299-0.833
			c1.456,0.331,2.439,1.368,3.482,2.318c0.616,0.543,1.221,1.102,1.846,1.637c1.5,1.182,2.627,2.755,4.147,3.922
			c0.355,0.435,0.619,0.921,0.822,1.441c0.187,0.527,0.318,1.068,0.424,1.617c0.668,1.523-0.256,4.457,3.144,3.484
			c0.87-1.563,0.736-3.125,0.097-4.693c-1.917-4.177-5.457-7.144-8.057-10.806c-2.674-3.606-5.849-6.904-7.139-11.376
			C76.206,389.964,75.627,387.811,74.535,385.682z"/>
		<path fill-rule="evenodd" clip-rule="evenodd" fill="#2EB2AD" d="M266.733,179.535c7.694,0.303,8.15,0.648,7.172,10.113
			c-1.136,11.004-2.509,21.995-4.23,32.921c-0.591,3.753,1.321,8.555-1.904,11.108c-4.348,3.443-10.068,4.553-15.607,5.058
			c-4.187,0.383-8.437,0.076-12.786,0.624c4.332,2.411,6.694,7.455,12.497,7.531c4.037,0.053,7.135,2.863,9.955,5.645
			c1.911,1.404,4.417-0.753,6.261,1.047c0.697,0.712,1.987,1.412,2.003,2.139c0.269,12.094,1.908,24.229-0.825,36.253
			c-1.185,0.975-2.102,2.14-2.574,3.621c-0.498,2.423-2.699,2.947-4.461,3.853c-10.052,5.163-20.37,9.727-31.015,13.535
			c-5.346,1.798-10.401,4.182-15.018,7.45l0.059-0.04c-1.224,0.661-2.264,0.548-3.034-0.711c0.137-5.398,6.043-5.607,7.996-9.069
			c-1.957,1.138-3.517,3.735-6.588,3.127c-1.607-0.466-2.625-1.511-3.084-3.112c-0.559-3.576,2.153-4.871,4.49-6.428
			c8.812-11.223,9.54-25.114,12.046-38.245c3.221-16.873,2.537-33.602-3.938-50.037c-2.447-6.209,0.981-13.244,1.163-19.967
			c0.222-8.208,3.181-16.01,4.625-24.135c2.78-0.354,3.109,3.713,5.868,3.366c0.243-0.375,0.714-0.896,0.633-1.004
			c-7.272-9.726-4.571-20.377-2.458-30.731c2.199-10.773,3.164-21.712,4.286-32.544c3.124-0.078,2.928,3.016,4.978,3.131
			c3.494-1.015-0.091-2.444,0.214-3.646c-3.121-4.431-4.011-9.185-2.898-14.579c2.397-11.625,3.588-23.529,7.756-34.736
			c3.453-9.282,7.771-12.574,14.913-12.033c8.629,0.653,13.722,5.288,15.794,14.511c2.568,11.432,2.308,23.134-0.487,34.2
			c-2.663,10.542-2.714,21.03-3.623,31.613c-0.936,10.891-1.465,21.821-0.352,32.571c0.849,8.192-2.455,12.271-9.05,15.211
			c-0.797,0.827-1.581,1.675-2.772,2.074C264.101,179.026,265.507,178.434,266.733,179.535z"/>
		<path fill-rule="evenodd" clip-rule="evenodd" fill="#2EB2AD" d="M175.693,300.541c-3.178-2.898-6.29-5.875-9.56-8.666
			c-1.938-1.653-1.49-3.748-1.356-5.702c1.146-16.76,2.111-33.516,1.948-50.333c-0.063-6.424,2.569-12.425,4.267-18.539
			c0.703-2.53,3.057-3.818,5.292-4.897c10.653-5.145,21.677-6.134,32.896-2.254c12.901,4.462,13.793,15.958,15.443,26.999
			c1.117,7.482-3.922,14.292-2.85,21.368c1.26,8.315,0.736,16.303-0.696,24.362c-1.342,7.554-4.932,14.329-7.96,21.287
			c-0.512,3.045-2.015,5.649-3.635,8.204c-0.235,0.15-0.474,0.296-0.712,0.442c-3.096-0.901-4.746,2.355-7.446,2.591
			c-2.042,0.866-4.099,0.718-6.164,0.097c-2.646-2.982-7.007-2.475-9.934-4.886c-2.212-1.743-5.05-0.228-7.369-1.416
			c-3.198-0.44-5.754-1.954-7.642-4.581c-0.291-1.449,0.289-2.047,1.746-1.788c1,0.763,2.009,1.505,3.382,1.285
			c1.543-0.237,3.027,0.241,5.006,0.666C178.464,303.194,176.201,302.799,175.693,300.541z"/>
		<path fill-rule="evenodd" clip-rule="evenodd" fill="#EC5F2D" d="M404.7,313.01c2.89,3.407,2.717,8.271,2.897,11.777
			c0.322,6.215,2.931,11.35,4.449,16.958c1.427,5.275,3.225,10.342,1.801,16.056c-0.75,3-1.15,6.481,1.854,9.136
			c1.511,1.337,1.593,3.243,0.407,5.045c-1.377,2.09-1.456,4.201-0.054,6.327c0.225,0.34,0.612,0.911,0.494,1.085
			c-3.596,5.331-0.997,11.636-2.76,17.231c-0.291,0.926-1.491,1.909-1.296,2.589c1.441,5.042,0.611,9.622-1.098,14.566
			c-1.015,2.935,1.635,5.184,4.971,2.872c4.996-3.464,10.323-4.488,16.14-2.992c1.547,0.398,2.755-0.139,4.124-0.611
			c5.961-2.059,11.673,2.433,10.627,8.729c-0.555,3.332,0.272,5.174,2.753,7.309c5.377,4.626,5.438,7.212,1.072,12.526
			c-0.716,0.87-1.331,1.533-0.458,2.594c1.118,1.362,2.521,2.039,4.31,1.91c1.268-0.092,2.497-0.234,2.871-1.734
			c0.146-0.59,0.069-1.233,0.207-1.827c1.212-5.214-2.975-9.284-3.221-13.729c-0.233-4.206,3.84-8.509-0.017-13.075
			c-0.936-1.107-0.212-2.72,0.087-4.149c0.412-1.979,1.236-4.387,0.519-6.005c-4.772-10.748,0.99-21.282,0.317-31.906
			c-0.079-1.27,1.032-2.173,2.162-2.795c-2.615,18.674-0.711,37.249,1.357,55.799c2.032,18.232-2.694,35.725-5.447,53.44
			c-0.284,1.824-0.557,3.648-0.834,5.474c0.058,3.507-2.794,6.322-2.354,9.919c0.46,17.701-2.126,35.343-1.024,53.056
			c0.496,1.162,0.911,2.722-0.143,3.362c-1.89,1.15-2.517-0.908-2.893-2.039c-2.441-7.342-7.619-8.938-14.498-7.207
			c-2.832,0.822-5.674,1.608-8.568,2.193c-3.628,2.308-3.686,6.87-6.227,9.863c-1.304,2.039,0.039,4.49-1.024,6.568
			c0,1.102,0,2.205-0.002,3.31c-0.849,0.713-1.689,0.726-2.526-0.024c-1.908-2.087-1.383-4.676-1.473-7.137
			c-0.621-1.466,0.357-2.806,0.321-4.228c1.863-5.066,6.182-8.882,7.652-14.518c-3.986,3.016-4.059,8.097-7.281,11.193
			c-0.562,0.272-1.102,0.229-1.615-0.123c-1.796-13.088,1.087-24.616,10.988-33.969c1.355-1.279,3.739-3.034,1.034-5.396
			c-0.785-3.287,2.188-3.656,3.893-5.011l-0.017-0.01c2.282-1.535,4.597-2.975,7.542-2.379c0.901,0.102,1.75,0.445,2.64,0.632
			c0.805,0.168,1.352,0.023,0.53-0.013c-0.059-0.002-0.111-0.174-0.222-0.268c-1.374-0.54-2.797-0.45-4.178-0.699
			c-3.015-0.479-5.823-2.026-8.988-1.641c-4.348,0.074-8.725,0.284-12.246-2.994c-1.615-9.694-2.285-19.471-2.389-29.283
			c-0.095-8.904,1.067-17.885-3.066-28.094c10.1,7.564,16.453,17.705,29.088,18.634c-1.015-3.415-3.596-4.553-6.019-5.85
			c2.024-3.884,5.544-0.751,8.179-1.743c3.738-0.924,5.228,4.173,8.935,3.326c2.62-0.492,5.298-0.822,7.521-3.148
			c-1.817,0.006-3.112,1.238-4.674,1.205c-0.596-0.017-1.147-0.176-1.663-0.47c-0.42-0.528-0.359-1.02,0.108-1.48
			c1.299-1.578-0.238-1.609-1.051-1.689c-7.19-0.694-13.976-3.431-21.047-4.382c-6.729-0.906-11.697-4.495-16.901-8.164
			c-1.97-1.388-1.834-2.987-1.673-4.801c1.316-14.705,2.471-29.428,4.062-44.104c0.936-8.627-0.07-17.227,0.289-25.776
			c0.579-13.818-4.139-26.393-7.202-39.389C404.218,319.569,403.84,316.293,404.7,313.01z"/>
		<path fill-rule="evenodd" clip-rule="evenodd" fill="#2EB2AD" d="M138.391,335.077c-0.602-2.878-3.059-2.125-4.93-2.52
			c-4.001-2.882,0.07-2.63,1.345-3.464c-2.284-2.622-5.524-2.649-8.496-2.636c-9.629,0.042-16.184-3.701-19.965-13.065
			c-3.228-7.993-8.031-15.589-10.612-23.625c-3.748-11.667-6.525-24.163,3.613-35.239c3.286-3.589,5.995-7.508,10.5-9.666
			c1.145-1.019,2.708-1.341,3.871-2.331c5.07-2.007,10.208-1.928,14.89,0.7c8.498,4.77,16.159,10.527,19.613,20.261
			c-0.395,0.506-0.767,0.467-1.121-0.045c-2.684,1.449-2.851,1.493-2.251,3.782c1.913,7.304,1.448,14.689,0.212,21.929
			c-0.588,3.448,1.273,4.092,3.291,5.248c2.404-0.023,1.644,1.455,1.297,2.735c-0.91,5.773,0.367,11.664-1.811,18.812
			c4.943-4.971,3.327-10.629,5.818-14.784c2.043,1.72,2.384,4.033,2.127,6.542c0.612,2.124,1.075,4.243-0.147,6.324
			c-2.167,3.027,1.997,5.2,0.722,8.807c-2.748,7.775-8.888,10.655-15.452,13.516C139.509,337.026,138.257,337.409,138.391,335.077z"
			/>
		<path fill-rule="evenodd" clip-rule="evenodd" fill="#2FB2AD" d="M390.072,419.058c1.653,1.613,3.722,2.263,5.937,2.566
			c1.972,1.505,0.549,3.118,0.166,4.703c-0.405,1.085-0.938,2.119-1.357,3.196c-0.115,0.297-0.631,0.478-0.342,0.921
			c0.443-0.311,0.644-0.895,1.212-1.085c1.182-0.337,2.221-0.137,3.086,0.759c0.113,0.601,0.046,1.331,0.371,1.78
			c3.646,5.065,0.414,11.238,2.656,16.457c1.655,3.857-0.225,4.408-3.462,5.771c-19.229,8.103-38.032,2.337-56.919-1.151
			c-4.227-0.779-8.325-2.258-12.55-3.041c-3.724-0.692-4.693-1.816-1.984-5.017c10.106-11.931,18.422-25.184,27.536-37.846
			c3.456-4.801,7.069-5.336,12.079-3.146c4.968,2.171,10.827,2.286,14.901,6.521c1.571,1.017,2.497,1.954-0.061,2.969
			c-0.478,0.189,0.397,0.281,0.458,0.577C383.366,417.641,388.096,416.102,390.072,419.058z"/>
		<path fill-rule="evenodd" clip-rule="evenodd" fill="#2FB2AD" d="M77.903,308.082c-4.567-3.262-9.133-6.523-13.7-9.785
			c-2.952-1.786,1.09-3.663-0.071-5.478c2.911-3.941,9.09-4.445,10.44-9.934c-1.252-0.409-1.595,0.794-2.325,1.272
			c-1.485,1.44-2.896,2.948-4.659,4.06c-4.591,2.345-9.184,4.591-13.421-0.624c0.186-1.068,0.992-1.387,1.899-1.579
			c2.579,0.288,4.792-0.552,6.718-2.249c1.484-1.046,3.137-1.878,4.16-3.387c-4.046-0.149-7.435,1.92-11.062,3.03
			c-6.669,2.042-12.385,0.313-17.656-3.806c-6.74-10.399-11.06-21.399-8.438-34.113c1.865-9.039,9.943-16.95,17.089-17.754
			c4.179-0.471,5.545,1.347,5.844,4.707c0.314,3.522,1.592,4.785,5.334,4.108c8.073-1.46,13.781,1.734,18.608,8.591
			c6.336,9,8.29,19.261,10.77,29.472c0.801,3.299-0.864,6.448-1.106,9.7c-0.849,2.792,0.269,5.656-0.295,8.459
			c-0.438,1.356-1.437,2.342-2.275,3.435c-1.014,1.292-1.633,2.774-2.065,4.349c-1.018,2.402-0.718,5.187-2.172,7.459
			C78.996,308.412,78.456,308.432,77.903,308.082z"/>
		<path fill-rule="evenodd" clip-rule="evenodd" fill="#EC5F2D" d="M448.043,556.143c0.992,6.317,0.997,12.544-0.653,18.827
			c-1.037,3.948-3.433,6.028-7.113,6.626c-2.793,0.451-5.725,0.586-8.535,0.289c-10.41-1.104-13.134-4.398-12.131-14.733
			c0.588-6.067,0.846-12.308,5.028-17.367c2.145-3.492,5.597-4.965,9.313-6.047C443.065,542.889,446.669,546.063,448.043,556.143z"
			/>
		<path fill-rule="evenodd" clip-rule="evenodd" fill="#EC5F2D" d="M281.503,478.396c0.035,0.629,0.07,1.258,0.106,1.885
			c-1.286,1.523-1.984,3.282-2.126,5.271c-1.377,1.463-1.283,3.774-2.933,5.081l0.124-0.126c-2.54-0.419-3.588,1.685-4.891,3.101
			c-3.301,3.587-7.567,4.746-11.538,2.644c-4.241-2.241-6.84-6.332-6.357-11.674c0.304-3.364,1.704-6.276,3.455-9.058
			c4-6.358,8.035-12.693,12.056-19.039c8.492-2.755,9.82-2.059,13.879,7.269C283.083,468.679,284.499,473.806,281.503,478.396z"/>
		<path fill-rule="evenodd" clip-rule="evenodd" fill="#ED6230" d="M461.473,373.238c0.868-1.557-1.118-4.635,2.517-4.717
			c0.995,0.439,1.441,1.768,2.765,1.686c0.479-0.04,0.942-0.068,1.405-0.137c2.013-1.251,1.516-4.107,3.473-5.363
			c5.884,0.947,8.699,4.584,7.591,9.86c-1.594,7.581-3.278,15.12-10.912,19.609c-1.511-2.936-0.388-5.635-0.812-8.188
			c-0.29-1.748-1.085-2.104-2.15-0.409c-2.512,0.745-1.316-1.841-2.256-2.509c0-1.6,0-3.198-0.003-4.797
			C461.362,376.978,460.571,375.379,461.473,373.238z"/>
		<path fill-rule="evenodd" clip-rule="evenodd" fill="#34B3AF" d="M91.528,296.76c4.715,3.779,5.779,9.667,8.451,14.625
			c-2.898,5.604-4.067,5.997-8.586,2.882c-2.733-1.359-5.467-2.719-8.201-4.078c-1.928-1.111-2.028-3.172-2.605-4.991
			c-0.303-1.7,0.188-3.288,0.681-4.879C83.525,295.782,87.102,295.046,91.528,296.76z"/>
		<path fill-rule="evenodd" clip-rule="evenodd" fill="#46B7B3" d="M189.052,327.559c-0.817-0.407-1.635-0.814-2.453-1.221
			c-2.289-1.571-5.105-2.104-7.357-3.747c-0.889-1.141-1.779-2.282-2.668-3.422c-0.545-1.36-0.384-2.705,0.086-4.044
			c3.246,0.509,6.492,1.019,9.738,1.528c-0.209,0.975-0.711,1.428,1.171,1.493c4.812,0.167,9.624,0.26,14.441,0.297
			c1.214,0.053,2.533-0.251,3.373,1.021c0.501,1.638-0.214,2.882-1.627,3.439c-2.567,1.013-4.189,2.91-5.844,4.996
			C194.575,332.102,192.888,331.955,189.052,327.559z"/>
		<path fill-rule="evenodd" clip-rule="evenodd" fill="#3EBAB6" d="M213.558,318.768c0.511,1.189,1.578,1.452,2.701,1.624
			c-8.359,4.869-14.49,12.47-22.198,18.15c-1.75,1.289-3.711,2.686-3.911,5.25c0.353,0.18,0.528,0.418,0.527,0.714
			c0,0.325-0.045,0.487-0.131,0.487c-0.847,0.923-1.992,1.491-2.866,2.386c-3.625,5.379-6.707,11.162-11.981,16.521
			c-0.107-5.93,3.18-9.334,5.615-13.084c1.975-3.042,5.077-5.418,5.465-9.384c0.459-1.239,0.961-2.456,1.833-3.48
			c1.677-1.746,3.377-3.471,5.063-5.214c4.737-3.757,9.249-7.784,14-11.52C209.405,319.857,211.032,318.228,213.558,318.768z"/>
		<path fill-rule="evenodd" clip-rule="evenodd" fill="#EF6938" d="M449.399,108.327c-0.397,0.631-0.793,1.263-1.19,1.894
			c-1.589,2.237-3.561,4.181-5.021,6.516c-0.398,0.729-0.796,1.458-1.191,2.188c-1.568,1.551-2.478,0.565-3.277-0.84
			c-0.147-0.519-0.193-1.057-0.162-1.595c0.113-0.745,0.391-1.442,0.719-2.109c0.171-0.401,0.383-0.797,0.598-1.176
			c0.188-0.353,0.407-0.703,0.627-1.04c0.178-0.342,0.281-0.714,0.294-1.108c-0.003,0.002,0.019-0.575,0.019-0.575
			c5.522-9.545,12.563-17.641,22.194-23.266c0.343,1.186,3.83,1.488,1.001,3.564c-1.343,1.243-3.488,1.815-3.49,4.176
			c-0.031,0.342-0.106,0.673-0.225,0.996c-2.154,0.972-3.502,2.771-4.763,4.659c-1.205,1.125-2.408,2.25-3.613,3.375
			C451.302,105.562,449.624,106.522,449.399,108.327z"/>
		<path fill-rule="evenodd" clip-rule="evenodd" fill="#F1F9F8" d="M213.558,318.768c-6.507,5.05-13.013,10.101-19.52,15.151
			c-0.815,0.512-1.462,0.11-2.098-0.373c-1.214-1.294-2.83-2.087-4.135-3.271c0.415-0.905,0.831-1.811,1.247-2.716
			c3.608,2.815,6.893,2.898,8.605-1.838c1.335-3.69,5.418-2.979,7.366-5.439c0.634-1.186,1.466-2.198,2.568-2.979
			c2.346-1.714,4.432-3.895,7.557-4.21c2.956-2.101,5.913-4.201,9.515-6.76C223.675,313.591,216.738,314.516,213.558,318.768z"/>
		<path fill-rule="evenodd" clip-rule="evenodd" fill="#42B9B5" d="M279.033,414.128c0.431-1.27,0.862-2.537,1.292-3.805
			c1.487-0.666,2.257-2.221,3.68-2.97c0.833-0.194,1.597-0.142,2.158,0.617c-3.943,6.178-6.792,12.901-9.74,19.574
			c-1.955,1.051-3.517,0.585-4.728-1.229c-2.337,1.401-3.987,7.604-7.458,1.065c-0.535-4.688,4.347-3.696,6.185-5.896
			C273.716,419.528,275.755,416.103,279.033,414.128z"/>
		<path fill-rule="evenodd" clip-rule="evenodd" fill="#49BAB7" d="M177.931,346.417c0-4.254,0.321-8.541-0.111-12.751
			c-0.294-2.882,1.802-3.983,3.212-5.317c0.665-0.63,3.291,0.001,4.426,0.858c1.969,1.485-0.15,3.386-0.443,4.994
			C184.168,338.841,181.458,342.722,177.931,346.417z"/>
		<path fill-rule="evenodd" clip-rule="evenodd" fill="#EBF7F6" d="M75.404,391.906c2.506,3.628,5.014,7.257,7.521,10.886
			c0.282,0.288,0.406,0.599,0.37,0.932c-0.036,0.345-0.093,0.516-0.168,0.516c-2.257,0.633-4.636-0.929-6.863,0.372
			c-2.066-0.331-3.427-1.661-4.614-3.24c-0.152-0.578-0.128-1.312-0.482-1.711c-4.185-4.725-2.863-7.193,3.121-7.832
			C74.696,391.347,75.068,391.372,75.404,391.906z"/>
		<path fill-rule="evenodd" clip-rule="evenodd" fill="#FCE6DD" d="M448.043,556.143c-0.796-1.591-1.673-3.146-2.372-4.776
			c-2.346-5.472-5.971-8.391-12.203-6.337c-4.267,1.012-3.057-1.63-2.541-3.809c12.226-2.061,13.206-1.502,17.808,10.437
			c0.318-1.193,0.571-2.133,0.822-3.073C451.923,551.679,450.327,553.979,448.043,556.143z"/>
		<path fill-rule="evenodd" clip-rule="evenodd" fill="#42B8B4" d="M268.09,253.582c-2.108-0.221-4.442,0.902-6.261-1.048
			c4.752,0.4,3.764-1.916,2.501-4.828c-1.042-2.403-5.392-3.446-4.09-6.018c1.385-2.735,5.11-3.7,8.653-4.79
			C268.036,242.648,267.662,248.105,268.09,253.582z"/>
		<path fill-rule="evenodd" clip-rule="evenodd" fill="#E4F4F4" d="M69.035,280.737c-2.078,1.129-3.376,3.465-5.942,3.839
			c-1.853,1.462-4.082,1.88-6.316,2.287c-0.751,0.086-1.503,0.172-2.255,0.258c-0.738,0.632-1.592,0.922-2.56,0.882
			c-2.376-0.403-4.756-0.98-7.12,0.072c-0.97-0.602-3.496-0.999-0.51-2.283c1.213-0.522,2.884,0.208,3.938-1.143
			c5.595-1.27,10.997-3.178,16.447-4.933C66.306,279.205,68.31,277.403,69.035,280.737z"/>
		<path fill-rule="evenodd" clip-rule="evenodd" fill="#E9F6F5" d="M76.686,280.723c-0.391,7.803-7.124,9.365-12.279,12.48
			c-0.482,0.454-0.92,0.415-1.315-0.118c-1.522-2.248-4.594-0.146-6.185-2.204c3.671-1.318,7.989-0.823,11.018-3.937
			c1.266-1.2,2.532-2.399,3.799-3.599C73.417,282.547,74.325,280.259,76.686,280.723z"/>
		<path fill-rule="evenodd" clip-rule="evenodd" fill="#4ABCB9" d="M86.307,320.435c1.29-0.773,1.571-1.633,0.229-2.635
			c-0.07-2.886,2.351-1.991,3.409-1.73c4.528,1.115,8.133-0.643,11.642-3.056c1.335,0.798,2.254,1.852,2.174,3.522
			c-0.438,1.945-2.336,1.794-3.622,2.523C95.724,321.491,91.234,323.163,86.307,320.435z"/>
		<path fill-rule="evenodd" clip-rule="evenodd" fill="#74C9C7" d="M70.454,369.701c0.056,3.317,4.21,5.874,1.793,9.648
			c-3.653-5.068-7.386-10.086-9.59-16.021c0.945-1.611,2.337-2.146,4.131-1.714C70.937,362.98,69.242,366.999,70.454,369.701z"/>
		<path fill-rule="evenodd" clip-rule="evenodd" fill="#5EC5C2" d="M165.546,349.859c-0.255,1.499,0.792,3.52-1.111,4.344
			c-1.396,0.604-2.031-0.824-2.514-1.96c0.849-2.821,0.931-5.639-0.04-8.452c-0.602-4.891,1.055-9.945-1.066-14.726
			c0.106-0.575,0.018-1.458,0.354-1.671c1.443-0.917,1.576,0.295,1.721,1.28c0.553,3.766,1.084,7.535,1.625,11.302
			c1.659,2.189,0.569,4.901,1.381,7.252C166.125,348.15,166.291,349.065,165.546,349.859z"/>
		<path fill-rule="evenodd" clip-rule="evenodd" fill="#3AB6B2" d="M69.035,280.737c-2.031-2.807-4.136-0.371-5.932,0.19
			c-4.885,1.526-9.599,3.612-14.833,3.723c-3.359-1.658-8.545,0.318-10.042-5.046c9.699,6.682,18.84,1.701,28.113-1.264
			c1.158-0.37,2.639-1.914,3.789-0.041C70.788,279.37,70.067,280.217,69.035,280.737z"/>
		<path fill-rule="evenodd" clip-rule="evenodd" fill="#42BBB7" d="M285.213,400.506c0.358-0.034,0.718-0.056,1.079-0.068
			c3.876-0.879,4.554-6.617,9.324-6.139c-0.792,5.064-5.279,7.624-7.803,11.516c-1.448-0.377-2.379,0.685-3.485,1.26
			c-0.898,0.372-1.538,1.581-2.773,0.857c0.131-1.427-7.041-0.429-1.243-3.739C283.205,404.637,283.85,402.094,285.213,400.506z"/>
		<path fill-rule="evenodd" clip-rule="evenodd" fill="#F3AC96" d="M377.85,238.776c-1.088,6.342-4.342,11.543-8.562,16.234
			c-0.722-3.73,1.13-6.845,2.417-10.094c1.389-2.115,1.95-4.707,3.77-6.577C376.353,238.018,377.15,238.125,377.85,238.776z"/>
		<path fill-rule="evenodd" clip-rule="evenodd" fill="#F4AA94" d="M321.082,369.616c5.44-0.646,6.103,4.603,8.902,7.216
			c-1.734,1.356-3.595,0.887-5.458,0.375C321.546,376.747,319.981,373.299,321.082,369.616z"/>
		<path fill-rule="evenodd" clip-rule="evenodd" fill="#F39C80" d="M412.257,498.052c4.405-0.522,7.949,3.444,12.456,2.4
			c0.384,0.377,0.463,0.663,0.239,0.861c-0.169,0.151-0.357,0.229-0.56,0.229c-2.206,0.427-4.613,0.429-6.575,1.364
			C411.845,505.751,411.642,502.482,412.257,498.052z"/>
		<path fill-rule="evenodd" clip-rule="evenodd" fill="#EAF6F6" d="M101.586,313.014c-2.276,4.143-5.292,6.006-10.117,3.883
			c-1.502-0.661-3.636-1.235-4.934,0.904c-1.664-0.201-3.016-0.935-3.985-2.326c2.904-0.718,6.13,0.916,8.843-1.207
			c4.014,2.474,5.929-1.308,8.585-2.882C100.515,311.928,101.05,312.471,101.586,313.014z"/>
		<path fill-rule="evenodd" clip-rule="evenodd" fill="#55C0BD" d="M176.66,315.125c0.676,1.363,0.776,2.713-0.086,4.043
			c-6.559-0.633-8.862-3.347-7.375-8.688c1.577,0.862,3.119,1.765,4.02,3.42C174.412,314.177,175.795,313.922,176.66,315.125z"/>
		<path fill-rule="evenodd" clip-rule="evenodd" fill="#F4A48B" d="M430.927,541.221c0.911,1.227-0.135,3.758,2.541,3.809
			c-2.943,1.586-5.887,3.172-8.829,4.755c-0.147-1.689,0.923-3.676-1.184-4.891C425.207,542.171,428.64,542.859,430.927,541.221z"/>
		<path fill-rule="evenodd" clip-rule="evenodd" fill="#F07246" d="M411.165,169.876c-1.577,2.413-3.153,4.826-4.729,7.238
			c-2.649-5.193,1.229-8.637,3.362-12.55c1.128-0.555,2.162-0.683,2.876,0.636C412.599,166.897,411.083,168.128,411.165,169.876z"/>
		<path fill-rule="evenodd" clip-rule="evenodd" fill="#4FBDBA" d="M60.606,330.126c3.21,3.049,3.208,7.174,3.729,11.125
			c0.78,1.392,1.082,2.776-0.074,4.134C61.488,340.671,58.527,336.002,60.606,330.126z"/>
		<path fill-rule="evenodd" clip-rule="evenodd" fill="#F9D6C9" d="M282.565,463.491c-2.738-5.437-6.326-9.277-13.167-7.011
			c2.327-3.927,7.122,0.292,9.663-2.926c3.178,2.533,4.43,6.004,4.806,9.897C283.45,464.022,283.017,464.034,282.565,463.491z"/>
		<path fill-rule="evenodd" clip-rule="evenodd" fill="#E1F3F3" d="M86.428,337.725c-4.037-0.403-7.928-1.249-11.288-3.712
			c1.062-0.194,2.188-0.266,2.774-1.403c4.452,1.29,8.903,2.579,13.354,3.869C90.369,339.671,88.179,337.847,86.428,337.725z"/>
		<path fill-rule="evenodd" clip-rule="evenodd" fill="#9ED9D9" d="M134.806,329.094c-0.742,1.041-3.016,1.487-1.345,3.464
			c-2.878,2.193-6.169,1.099-9.301,1.095c-1.119-0.001-1.84-0.877-1.568-2.062c0.106-0.461,1.065-1.164,1.082-1.148
			C127.927,334.311,130.941,328.076,134.806,329.094z"/>
		<path fill-rule="evenodd" clip-rule="evenodd" fill="#F17246" d="M546.781,98.9c-0.099-0.232-0.084-0.458,0.043-0.676
			c5.12,1.291,9.507,3.233,8.702,9.79c-1.858,1.429-2.797,0.022-3.782-1.231l0.067,0.058
			C549.856,104.369,547.832,101.943,546.781,98.9z"/>
		<path fill-rule="evenodd" clip-rule="evenodd" fill="#76CCCA" d="M295.617,394.299c-3.936,0.789-4.764,6.293-9.322,6.139
			c3.036-3.656,6.289-7.09,10.18-9.868c0.797,0.016,1.88,0.003,1.927,0.924C298.491,393.263,296.444,393.241,295.617,394.299z"/>
		<path fill-rule="evenodd" clip-rule="evenodd" fill="#F9D4C9" d="M439.322,452.499c-3.126,0.576-6.59-2.188-9.451,0.96
			c-1.839-0.319-2.649-1.554-3.36-3.682c7.506,1.822,14.652,1.208,21.766,1.371c0.026,0.374,0.125,0.729,0.297,1.063
			C445.574,455.075,442.412,452.62,439.322,452.499z"/>
		<path fill-rule="evenodd" clip-rule="evenodd" fill="#51BEBA" d="M175.693,300.541c1.625,0.756,3.234,1.545,4.878,2.255
			c1.123,0.486,3.357-0.176,2.824,2.025c-0.452,1.861-2.23,2.2-3.905,1.396c-1.394-0.668-3.264-0.432-4.146-2.103
			C175.46,302.923,175.576,301.731,175.693,300.541z"/>
		<path fill-rule="evenodd" clip-rule="evenodd" fill="#F1794E" d="M567.695,141.395c-3.054,1.506-2.738-1.259-3.449-2.722
			c1.213-1.821,0.039-3.622-0.043-5.435c0.397-1.976-1.157-4.787,2.328-5.435C566.92,132.333,567.308,136.864,567.695,141.395z"/>
		<path fill-rule="evenodd" clip-rule="evenodd" fill="#F7C8BA" d="M424.687,142.558c-2.024,1.322-1.036,5.495-4.85,5.125
			c1.164-3.4,2.495-6.755,3.42-10.218c0.482-1.806,1.3-1.634,2.536-1.175c0.542,0.376,0.911,0.88,1.108,1.511
			C427.259,139.895,426.837,141.629,424.687,142.558z"/>
		<path fill-rule="evenodd" clip-rule="evenodd" fill="#D6EEEE" d="M91.528,296.76c-3.469,0.772-7.383,0.489-9.661,4.079
			c-0.84-0.09-0.876-0.822-1.113-1.393c0.665-1.373,1.329-2.746,1.994-4.118c1.953-0.35,3.84-0.938,5.706-1.58
			c0.929-0.455,2.071,0.149,2.95-0.593C93.576,294.284,91.836,295.546,91.528,296.76z"/>
		<path fill-rule="evenodd" clip-rule="evenodd" fill="#F18E6F" d="M354.219,304.075c-0.607,4.25-0.705,8.698-4.559,11.681
			c-0.507,0.314-0.906,0.212-1.199-0.306C349.837,311.383,350.814,307.115,354.219,304.075z"/>
		<path fill-rule="evenodd" clip-rule="evenodd" fill="#A4DBDB" d="M202.447,318.96c-6.073,0-12.146,0-18.3,0
			c-0.146-1.786,2.065-1.047,2.252-2.309c5.353,1.254,10.823,1.073,16.258,1.316c0.315,0.298,0.389,0.543,0.222,0.739
			C202.734,318.875,202.591,318.96,202.447,318.96z"/>
		<path fill-rule="evenodd" clip-rule="evenodd" fill="#F6B7A3" d="M427.195,505.423c-1.297,1.67-2.596,3.341-3.893,5.011
			l-0.455,0.145l-0.402-0.263c-0.942,0.803-1.856,0.714-2.748-0.087C418.847,503.4,424.105,506.104,427.195,505.423z"/>
		<path fill-rule="evenodd" clip-rule="evenodd" fill="#53C1BE" d="M182.472,446.374c5.324,0.058,10.176,2.001,15.069,3.779
			C192.412,449.317,186.552,451.393,182.472,446.374z"/>
		<path fill-rule="evenodd" clip-rule="evenodd" fill="#67C7C5" d="M215.148,313.092c-2.146,2.229-4.676,3.844-7.639,4.764
			c-0.394-0.273-0.525-0.545-0.393-0.816c0.131-0.271,0.263-0.406,0.395-0.406c0.419-1.274,0.837-2.548,1.256-3.823
			c0.001,0-0.096,0.089-0.096,0.089c1.115-1.016,1.459-3.076,3.622-2.67C213.246,311.184,214.197,312.138,215.148,313.092z"/>
		<path fill-rule="evenodd" clip-rule="evenodd" fill="#F4B09A" d="M477.685,353.777c0.8,3.681,3.025,6.594,5.148,9.562
			c-4.625-0.26-6.539-3.309-7.516-7.318C476.2,355.373,475.243,352.784,477.685,353.777z"/>
		<path fill-rule="evenodd" clip-rule="evenodd" fill="#F6BDAB" d="M486.617,79.825c-3.146,2.073-6.103,4.554-10.172,4.567
			c-0.826-0.552-1.875-0.99-1.217-2.321C478.827,80.321,482.751,80.229,486.617,79.825z"/>
		<path fill-rule="evenodd" clip-rule="evenodd" fill="#3AB6B2" d="M67.925,286.945c-2.574,4.386-6.943,3.75-11.018,3.937
			c-1.22-0.502-2.438-1.006-3.658-1.508c-0.628-0.621-1.936-0.899-1.127-2.242c0.8-0.003,1.6-0.007,2.399-0.01
			C59.062,292.533,63.466,287.642,67.925,286.945z"/>
		<path fill-rule="evenodd" clip-rule="evenodd" fill="#F6B7A5" d="M411.155,516.515c0.219-6.493,0.923-7.014,6.953-5.134
			c1.514,2.608-1.489,1.75-2.094,2.731l0.122-0.077C414.577,515.066,413.662,517.39,411.155,516.515z"/>
		<path fill-rule="evenodd" clip-rule="evenodd" fill="#F8D3C6" d="M471.632,364.707c0.599,2.385-0.739,4.432-1.393,6.513
			c-0.745,2.367-1.596,0.201-2.346-0.348c-1.974-2.558-0.889-5.026,0.222-7.493C469.287,363.822,470.461,364.264,471.632,364.707z"
			/>
		<path fill-rule="evenodd" clip-rule="evenodd" fill="#E9F5F6" d="M66.735,362.138c-1.357,0.397-2.715,0.795-4.075,1.192
			c-1.172-0.788-2.822-1.704-2.518-3.088c0.726-3.297,4.121,0.708,5.412-1.668c1.417-0.82,1.798,0.492,2.473,1.2l0.28-0.054
			C68.589,361.049,67.976,361.797,66.735,362.138z"/>
		<path fill-rule="evenodd" clip-rule="evenodd" fill="#3EBAB6" d="M216.201,320.433c4.062-4.384,9.106-6.788,15.017-7.45
			C226.434,315.912,221.432,318.405,216.201,320.433z"/>
		<path fill-rule="evenodd" clip-rule="evenodd" fill="#76CBC9" d="M75.404,391.906c-0.37-0.057-0.742-0.082-1.116-0.077
			c-0.118-2.056-4.413-4.278,0.246-6.146C77.25,387.417,80.16,389.126,75.404,391.906z"/>
		<path fill-rule="evenodd" clip-rule="evenodd" fill="#F0754B" d="M439.452,116.539c0.087,1.608,0.767,2.583,2.545,2.388
			c-0.875,4.087-2.885,5.284-6.447,2.532c0.55-1.597,1.097-3.194,1.644-4.791c0.258-0.395,0.617-0.632,1.08-0.717
			C438.733,116.011,439.132,116.2,439.452,116.539z"/>
		<path fill-rule="evenodd" clip-rule="evenodd" fill="#83CFCF" d="M390.072,419.058c-2.669-2.046-8.092,0.862-8.721-4.852
			c0.846-0.844,1.76-0.894,2.729-0.222C386.423,415.271,388.886,416.41,390.072,419.058z"/>
		<path fill-rule="evenodd" clip-rule="evenodd" fill="#FEF4F0" d="M534.503,88.313c-4.1,0.708-6.342-3.153-9.814-3.991
			c2.757-0.905,5.751-2.941,7.393,1.534c0.734,0.795,1.949,0.375,2.724,1.073C534.939,87.442,534.838,87.903,534.503,88.313z"/>
		<path fill-rule="evenodd" clip-rule="evenodd" fill="#EC6636" d="M399.979,327.372c-5.469-3.911,0.793-6.37,1.181-9.555
			c0.111,2.437,0.222,4.875,0.33,7.312C401.849,326.457,402.318,327.862,399.979,327.372z"/>
		<path fill-rule="evenodd" clip-rule="evenodd" fill="#D9EFEF" d="M212.294,310.229c-1.207,0.89-2.415,1.78-3.622,2.67
			c0.693-3.314,2.391-6.117,4.446-8.735c0.972,0.012,1.947,0.024,2.921,0.036C214.791,306.21,213.542,308.22,212.294,310.229z"/>
		<path fill-rule="evenodd" clip-rule="evenodd" fill="#D0ECEC" d="M394.876,426.099c0.161-1.548,1.723-2.738,1.135-4.477
			c0.854,0.326,1.709,0.651,2.564,0.977c0.803,0.666,0.581,1.904,1.42,2.55c0.036,1.362,0.307,2.79-1.08,3.741
			c-1.371-0.591-2.742-1.143-4.139-0.058C394.418,427.906,394.482,426.996,394.876,426.099z"/>
		<path fill-rule="evenodd" clip-rule="evenodd" fill="#ADDEDE" d="M85.375,293.115c-1.013-3.078-1.302-6.077,0.953-8.8
			c0.654,1.971,1.076,4.064,2.871,5.433c-0.053,1.739-0.272,3.381-2.32,3.951C86.304,293.695,85.803,293.5,85.375,293.115z"/>
		<path fill-rule="evenodd" clip-rule="evenodd" fill="#F7BBA8" d="M435.468,504.364c-2.919-0.894-5.449,1.305-8.289,1.049
			c0.437-0.793,0.873-1.586,1.309-2.377c1.605-2.394,4.305-0.236,6.186-1.487c1.732,0.01,3.599-0.395,4.729,1.507
			C438.702,505.331,436.835,504.095,435.468,504.364z"/>
		<path fill-rule="evenodd" clip-rule="evenodd" fill="#9BD8D8" d="M68.027,359.773c-0.824-0.4-1.648-0.8-2.473-1.2
			c-0.645-1.774-2.57-3.376-1.709-5.249c0.299-0.651,2.839-0.915,4.218,0.283C68.051,355.662,68.04,357.718,68.027,359.773z"/>
		<path fill-rule="evenodd" clip-rule="evenodd" fill="#AFDFDF" d="M165.443,380.876c-1.317-1.872,0.338-2.752,1.29-3.867
			c4.735,2.766,3.172-4.906,7.151-3.672c-1.269,2.136-2.082,4.7-4.602,6.176C168.203,380.533,167.123,381.548,165.443,380.876z"/>
		<path fill-rule="evenodd" clip-rule="evenodd" fill="#F4B19D" d="M323.269,379.388c-0.267,2.592,2.108,6.666-3.511,6.253
			c4.173-6.081-3.494-1.947-3.542-4.502C318.375,380.355,321.136,381.01,323.269,379.388z"/>
		<path fill-rule="evenodd" clip-rule="evenodd" fill="#E2F3F3" d="M266.733,179.535c-2.659,0.619-5.185,2.458-8.492,0.817
			c1.861-2.774,4.713-2.677,7.268-3.204C265.917,177.943,266.325,178.739,266.733,179.535z"/>
		<path fill-rule="evenodd" clip-rule="evenodd" fill="#75CBC9" d="M263.021,307.913c-0.82,4.528-3.178,5.99-7.41,3.719
			C257.689,309.613,260.139,308.333,263.021,307.913z"/>
		<path fill-rule="evenodd" clip-rule="evenodd" fill="#F7CEC3" d="M296.183,406.57c-0.444,2.96-0.425,6.288-4.854,6.052
			C292.897,410.565,291.496,406.127,296.183,406.57z"/>
		<path fill-rule="evenodd" clip-rule="evenodd" fill="#EF8463" d="M450.581,495.528c-3.657-4.361,2.138-6.478,2.354-9.919
			C453.143,489.152,453.061,492.623,450.581,495.528z"/>
		<path fill-rule="evenodd" clip-rule="evenodd" fill="#FBE4DB" d="M385.022,223.949c-0.793,2.07-1.586,4.141-2.379,6.211
			c-1.988-0.056-2.025-1.029-1.143-2.434c-0.629-1.385-1.625-2.742-0.09-4.196C382.81,222.204,383.872,223.347,385.022,223.949z"/>
		<path fill-rule="evenodd" clip-rule="evenodd" fill="#F08F70" d="M417.521,155.023c-0.219,2.687-0.414,5.38-2.591,7.38
			c-0.73-0.135-1.102-0.597-1.193-1.313c0.839-2.479,1.68-4.957,2.519-7.434C417.342,153.496,417.896,153.829,417.521,155.023z"/>
		<path fill-rule="evenodd" clip-rule="evenodd" fill="#61C4C1" d="M187.805,330.275c2.111-0.291,4.018-0.146,4.846,2.285
			c-0.77,1.923-1.76,3.634-3.988,4.161c-0.985-0.187-1.536-0.68-1.233-1.768C187.554,333.394,187.679,331.834,187.805,330.275z"/>
		<path fill-rule="evenodd" clip-rule="evenodd" fill="#F8DDD4" d="M534.503,88.313c-0.074-0.307-0.082-0.615-0.023-0.926
			c1.634-1.346,2.537,0.429,3.752,0.877c4.978,1.487,0.203,3.157,0.09,4.74C535.368,92.81,536.562,89.238,534.503,88.313z"/>
		<path fill-rule="evenodd" clip-rule="evenodd" fill="#FADFD4" d="M317.63,385.836c-1.427,0.663-2.885,1.945-4.274,1.875
			c-4.136-0.208-0.57,2.073-1.119,2.946c-1.961-0.189-2.981-1.426-2.722-3.224c0.25-1.716,1.905-1.816,3.329-1.805
			C314.44,385.644,316.035,385.763,317.63,385.836z"/>
		<path fill-rule="evenodd" clip-rule="evenodd" fill="#F07145" d="M570.195,193.208c-0.75,0.822-1.499,1.643-2.249,2.465
			c-1.849-1.594-1.598-3.991-2.321-6.021c-0.292-1.267-0.356-2.533,0.039-3.792c0.434-0.917,0.979-1.653,2.174-1.318
			C568.672,187.418,570.258,190.089,570.195,193.208z"/>
		<path fill-rule="evenodd" clip-rule="evenodd" fill="#FADFD4" d="M318.504,394.432c2.834,0.865,1.048,1.71,0.195,2.971
			c-0.702,1.04-0.96,2.271-2.391,1.182c-1.075-0.817-1.924-1.934-2.872-2.917C314.828,394.039,317.149,396.221,318.504,394.432z"/>
		<path fill-rule="evenodd" clip-rule="evenodd" fill="#B2E0E1" d="M384.08,413.984c-0.909,0.073-1.817,0.146-2.729,0.222
			c-1.328-0.238-2.825-0.015-3.717-1.307c-0.583-3.79,5.264,2.729,3.768-2.453C383.933,410.386,385.292,411.211,384.08,413.984z"/>
		<path fill-rule="evenodd" clip-rule="evenodd" fill="#FEF1EC" d="M434.673,501.549c-1.651,2.206-4.107,1.059-6.186,1.485
			c-0.957-1.61-2.639-1.234-4.093-1.492c0.167-0.345,0.272-0.709,0.318-1.09C428.155,499.71,431.469,500.117,434.673,501.549z"/>
		<path fill-rule="evenodd" clip-rule="evenodd" fill="#AADDDD" d="M249.555,312.765c-2.12,0.827-4.238,1.653-6.357,2.479
			c0.535-4.045,4.13-3.784,6.803-4.784C250.495,310.275,250.557,310.44,249.555,312.765z"/>
		<path fill-rule="evenodd" clip-rule="evenodd" fill="#8CD2D0" d="M64.261,345.384c0.024-1.378,0.049-2.756,0.074-4.134
			c2.495,2.349,2.824,5.622,3.69,8.665C66.467,348.657,64.355,347.859,64.261,345.384z"/>
		<path fill-rule="evenodd" clip-rule="evenodd" fill="#4FBDBA" d="M149.648,297.143c-0.432-0.912-0.865-1.824-1.297-2.735
			c-0.243-2.465,0.922-4.472,2.045-6.529C150.658,291.047,151.373,294.203,149.648,297.143z"/>
		<path fill-rule="evenodd" clip-rule="evenodd" fill="#F29F83" d="M426.123,137.717c-0.108-0.475-0.22-0.951-0.33-1.426
			c0.146-1.696,0.812-3.04,2.512-3.674c1.653,2.193,2.729,4.399,0.154,6.689C427.519,139.014,426.904,138.244,426.123,137.717z"/>
		<path fill-rule="evenodd" clip-rule="evenodd" fill="#F4AE99" d="M551.744,106.783c1.261,0.411,2.521,0.821,3.782,1.231
			c0.47,1.03,0.942,2.06,1.412,3.09C551.836,113.718,552.186,109.774,551.744,106.783z"/>
		<path fill-rule="evenodd" clip-rule="evenodd" fill="#6AC7C4" d="M271.695,426.315c1.576,0.41,3.152,0.819,4.728,1.229
			c-0.579,1.347-0.657,3.668-2.597,3.196C272.052,430.31,271.805,428.108,271.695,426.315z"/>
		<path fill-rule="evenodd" clip-rule="evenodd" fill="#49BDB9" d="M165.715,336.944c0-5.05,0-8.415,0-11.781
			C167.312,328.496,167.893,331.852,165.715,336.944z"/>
		<path fill-rule="evenodd" clip-rule="evenodd" fill="#F7CFC2" d="M308.782,397.87c0.639,0.396,1.607,0.649,1.851,1.216
			c0.657,1.528-0.619,1.422-1.563,1.446c-2.973,0.075-5.945,0.135-8.919,0.2C302.259,397.461,306.572,400.837,308.782,397.87z"/>
		<path fill-rule="evenodd" clip-rule="evenodd" fill="#A9DCDD" d="M179.242,322.591c3.125-0.072,5.779,0.78,7.356,3.747
			C183.367,326.62,180.673,325.842,179.242,322.591z"/>
		<path fill-rule="evenodd" clip-rule="evenodd" fill="#EC693E" d="M348.461,315.45c0.397,0.1,0.797,0.201,1.196,0.304
			c0.28,1.133,0.818,2.28,0.752,3.391c-0.053,0.894-0.837,1.743-1.295,2.612c-0.638-0.872-1.274-1.745-1.912-2.617
			C347.622,317.91,348.041,316.68,348.461,315.45z"/>
		<path fill-rule="evenodd" clip-rule="evenodd" fill="#F5BDAC" d="M413.736,161.089c0.397,0.438,0.796,0.875,1.193,1.313
			c-0.535,1.182-1.07,2.363-1.605,3.544c-0.374,0.517-0.771,0.51-1.19,0.054c-0.32-1.225-1.398-1.216-2.336-1.437
			C410.767,163.016,411.213,160.878,413.736,161.089z"/>
		<path fill-rule="evenodd" clip-rule="evenodd" fill="#EE6736" d="M416.015,514.112c0.698-0.911,1.396-1.82,2.094-2.731
			c0.53-0.383,1.059-0.767,1.589-1.152c0.913,0.029,1.829,0.059,2.748,0.087C421.278,513.237,418.921,514.141,416.015,514.112z"/>
		<path fill-rule="evenodd" clip-rule="evenodd" fill="#F28663" d="M411.155,516.515c1.557-1.036,2.909-2.482,4.981-2.479
			c-0.062,2.356-1.783,3.704-3.512,4.5C410.599,519.468,411.239,517.521,411.155,516.515z"/>
		<path fill-rule="evenodd" clip-rule="evenodd" fill="#51BEBA" d="M171.961,302.829c-0.582,0.595-1.164,1.191-1.746,1.787
			c-1.827-1.259-3.273-2.837-4.284-5.021C169.038,298.89,170.272,301.286,171.961,302.829z"/>
		<path fill-rule="evenodd" clip-rule="evenodd" fill="#79CDCB" d="M147.1,263.448c0.374,0.015,0.747,0.031,1.121,0.045
			c1.859,2.14,1.869,4.862,2.342,7.438c-0.406,0.567-0.827,0.578-1.263,0.034C148.566,268.46,147.833,265.955,147.1,263.448z"/>
		<path fill-rule="evenodd" clip-rule="evenodd" fill="#FAE0D7" d="M475.229,82.071c0.405,0.773,0.81,1.547,1.217,2.321
			c-1.646,0.391-3.292,0.783-4.938,1.175C469.366,80.805,474.472,83.751,475.229,82.071z"/>
		<path fill-rule="evenodd" clip-rule="evenodd" fill="#EF8462" d="M468.115,363.379c-0.074,2.498-0.146,4.996-0.222,7.493
			c-0.434-0.011-0.87-0.022-1.306-0.033c-1.271-1.617-0.591-3.286-0.131-4.948c0.113-1.73,0.227-3.459,0.35-5.356
			C468.294,361.288,467.73,362.514,468.115,363.379z"/>
		<path fill-rule="evenodd" clip-rule="evenodd" fill="#F8CFC3" d="M466.457,365.891c0.046,1.649,0.09,3.299,0.133,4.948
			c-0.484,0.649-1.268,1.92-1.405,1.854c-1.868-0.899-0.783-2.757-1.195-4.171C464.812,367.644,465.636,366.767,466.457,365.891z"/>
		<path fill-rule="evenodd" clip-rule="evenodd" fill="#8CD2D2" d="M243.457,110.389c1.669,1.102,3.088,2.435,4.172,4.502
			c-1.655-0.122-3.136,0.274-4.386-0.856C243.315,112.819,243.386,111.605,243.457,110.389z"/>
		<path fill-rule="evenodd" clip-rule="evenodd" fill="#F4B09B" d="M461.473,373.238c-1.169,2.227,3.394,2.614,1.617,5.036
			c-0.889-0.205-2.62,3.648-2.67-0.539C460.397,376.167,460.193,374.517,461.473,373.238z"/>
		<path fill-rule="evenodd" clip-rule="evenodd" fill="#F08360" d="M377.85,238.776c-1.056,0.03-2.112,0.061-3.168,0.091
			l-0.195,0.042c-0.194-2.495,0.359-4.492,3.273-4.918c1.379,1.263-0.06,2.64,0.162,3.95
			C377.975,238.226,377.95,238.504,377.85,238.776z"/>
		<path fill-rule="evenodd" clip-rule="evenodd" fill="#F17D56" d="M374.486,238.909c0,0,0.213-0.047,0.205-0.044
			c0.566,2.791-0.658,4.693-2.986,6.052C371.568,242.421,372.185,240.275,374.486,238.909z"/>
		<path fill-rule="evenodd" clip-rule="evenodd" fill="#F3A992" d="M404.7,313.01c0.017,3.278,0.033,6.556,0.053,9.834
			c-1.877-1.684-0.062-4.72-2.299-6.272C403.201,315.384,403.95,314.197,404.7,313.01z"/>
		<path fill-rule="evenodd" clip-rule="evenodd" fill="#F17B54" d="M417.521,155.023c-0.422-0.456-0.844-0.912-1.266-1.368
			c0.924-1.82,0.292-4.736,3.493-4.949C420.31,151.271,419.31,153.285,417.521,155.023z"/>
		<path fill-rule="evenodd" clip-rule="evenodd" fill="#F5B8A5" d="M399.979,327.372c1.347-0.178,1.089-1.44,1.511-2.243
			c3.068,4.683-1.489,4.846-3.77,6.359C398.472,330.116,399.224,328.744,399.979,327.372z"/>
		<path fill-rule="evenodd" clip-rule="evenodd" fill="#79CDCB" d="M63.091,293.085c0.438,0.039,0.876,0.078,1.314,0.117
			c1.36,1.755-1.522,3.341-0.202,5.094C58.059,297.791,62.243,295.082,63.091,293.085z"/>
		<path fill-rule="evenodd" clip-rule="evenodd" fill="#4ABDB9" d="M86.599,293.159c0.866-1.138,1.732-2.275,2.599-3.412
			c0.736,1.137,1.471,2.273,2.206,3.409c-0.417,0.994-1.283,1.246-2.237,1.351C87.86,294.916,86.425,295.568,86.599,293.159z"/>
		<path fill-rule="evenodd" clip-rule="evenodd" fill="#F8CEC0" d="M377.922,237.941c-1.753-1.249,0.069-2.642-0.162-3.951
			c0.338-0.547,0.673-1.095,1.008-1.643c0.814-0.291,1.492-0.099,2.032,0.577C380.242,234.827,379.772,236.78,377.922,237.941z"/>
		<path fill-rule="evenodd" clip-rule="evenodd" fill="#CDEBEB" d="M81.758,305.259c1.343,1.392,1.336,3.176,1.434,4.931
			c-2.114,0.178-3.865-0.555-5.289-2.108c0.388-0.082,0.779-0.138,1.174-0.169C80.159,307.219,80.389,305.665,81.758,305.259z"/>
		<path fill-rule="evenodd" clip-rule="evenodd" fill="#F29B80" d="M567.838,184.543c-0.46,0.446-0.921,0.893-1.381,1.34
			c-1.671,0.062-1.738-1.085-1.733-2.29c-0.225-0.856-0.27-1.707,0.062-2.549c0.427-0.804,1.034-1.389,1.952-1.586
			c0.357,0.072,0.716,0.103,1.078,0.092C567.823,181.213,567.831,182.878,567.838,184.543z"/>
		<path fill-rule="evenodd" clip-rule="evenodd" fill="#EF6838" d="M413.49,553.253c-0.429,1.408-0.855,2.812-1.284,4.221
			c-1.285-2.441-0.947-5.076-0.926-7.675c0.33,0,0.658,0,0.988,0.003C413.667,550.602,413.006,552.13,413.49,553.253z"/>
		<path fill-rule="evenodd" clip-rule="evenodd" fill="#A4DBDB" d="M100.139,319.06c1.208-0.84,2.415-1.682,3.622-2.523
			c0.224,0.929,2.177,1.261,1.358,2.262C103.758,320.46,101.872,320.219,100.139,319.06z"/>
		<path fill-rule="evenodd" clip-rule="evenodd" fill="#82CFCE" d="M399.995,425.148c-2.268,0.149-1.683-1.288-1.42-2.55
			c0.35-0.812,0.4-2.507,1.584-1.863C402.562,422.043,400.619,423.674,399.995,425.148z"/>
		<path fill-rule="evenodd" clip-rule="evenodd" fill="#5DC0BD" d="M71.65,401.371c2.212-0.083,3.058,2.391,5.058,2.703
			c0.287,0.527,0.215,1.001-0.216,1.421c-0.902,0-1.805-0.001-2.709-0.001C72.287,404.524,71.669,403.104,71.65,401.371z"/>
		<path fill-rule="evenodd" clip-rule="evenodd" fill="#F2997D" d="M396.38,348.742c-0.266-1.912,0.583-3.139,2.345-3.8
			C400.885,347.442,400.819,347.55,396.38,348.742z"/>
		<path fill-rule="evenodd" clip-rule="evenodd" fill="#A4DBDB" d="M189.938,344.719c-0.006-0.326,0.064-0.636,0.212-0.927
			c1.68-1.214,3.36-2.428,6.33-4.575c-1.614,3.434-3.225,4.676-4.95,5.819C190.876,345.545,190.346,345.44,189.938,344.719z"/>
		<path fill-rule="evenodd" clip-rule="evenodd" fill="#FBE2DA" d="M563.067,132.652c-0.151-2.519-0.87-5.101,0.817-7.417
			c1.102,0.063,2.169,0.188,2.654,1.411c-2.787,1.252-1.331,3.954-2.022,5.924C564.056,133.02,563.571,133.026,563.067,132.652z"/>
		<path fill-rule="evenodd" clip-rule="evenodd" fill="#96D6D6" d="M165.546,349.859c-0.007-0.849-0.014-1.698-0.021-2.547
			c-0.905-2.429-0.973-4.853,0.047-7.271c2.439,2.941,0.497,6.507,1.378,9.669C166.483,349.759,166.014,349.81,165.546,349.859z"/>
		<path fill-rule="evenodd" clip-rule="evenodd" fill="#AEDEDE" d="M266.694,295.596c-2.427-3.541,0.907-2.989,2.574-3.621
			C269.246,293.775,269.089,295.481,266.694,295.596z"/>
		<path fill-rule="evenodd" clip-rule="evenodd" fill="#AADDDE" d="M187.43,334.954c0.484,0.421,0.968,0.842,1.452,1.263
			c0.96,0.964,0.744,1.986,0.151,3.027c-0.752,0.729-1.504,1.458-2.255,2.187C186.484,339.221,185.916,336.983,187.43,334.954z"/>
		<path fill-rule="evenodd" clip-rule="evenodd" fill="#78CCCA" d="M52.122,287.131c0.376,0.747,0.751,1.495,1.127,2.242
			c-2.803-0.432-5.607-0.865-8.41-1.297C47.014,285.795,49.704,287.511,52.122,287.131z"/>
		<path fill-rule="evenodd" clip-rule="evenodd" fill="#EF6838" d="M413.676,564.61c0.844,0.008,1.686,0.015,2.526,0.024
			c0.118,1.523,0.236,3.049,0.432,5.58C414.373,568.185,413.645,566.602,413.676,564.61z"/>
		<path fill-rule="evenodd" clip-rule="evenodd" fill="#8ED3D2" d="M266.6,433.481c-0.874,1.995-1.669,3.537-4.026,3.847
			C263.159,435.18,264.061,433.746,266.6,433.481z"/>
		<path fill-rule="evenodd" clip-rule="evenodd" fill="#70CAC8" d="M284.003,406.628c1.042-1.34,1.856-3.741,3.811-0.814
			c-0.549,0.721-1.1,1.438-1.65,2.157c-0.712-0.015-1.424-0.031-2.135-0.047c-0.391-0.281-0.524-0.566-0.402-0.857
			C283.75,406.775,283.875,406.628,284.003,406.628z"/>
		<path fill-rule="evenodd" clip-rule="evenodd" fill="#FADACE" d="M272.692,496.727c1.294,2.244,3.382,0.698,5.071,1.062
			c-1.248,2.206-3.494,1.784-5.193,1.398C270.036,498.608,271.433,497.515,272.692,496.727z"/>
		<path fill-rule="evenodd" clip-rule="evenodd" fill="#FBDDD3" d="M380.8,232.923c-0.676-0.19-1.353-0.379-2.03-0.573
			c0.579-1.739,0.926-3.612,2.731-4.625c0.015,0.983,0.183,1.895,1.143,2.434C382.626,231.479,381.846,232.29,380.8,232.923z"/>
		<path fill-rule="evenodd" clip-rule="evenodd" fill="#88D1D0" d="M138.391,335.077c0.838,0.427,1.676,0.855,2.514,1.282
			c-1.636,1.653-3.536,1.435-5.531,0.827C135.551,335.216,136.987,335.171,138.391,335.077z"/>
		<path fill-rule="evenodd" clip-rule="evenodd" fill="#F3A891" d="M367.583,259.795c2.625,1.497,1.961,3.2,0.312,4.966
			C366.281,263.201,367.336,261.473,367.583,259.795z"/>
		<path fill-rule="evenodd" clip-rule="evenodd" fill="#68C8C6" d="M149.299,270.966c0.421-0.011,0.843-0.022,1.263-0.034
			c0.155,2.54,0.706,5.102-0.419,7.803C148.944,276.093,149.532,273.483,149.299,270.966z"/>
		<path fill-rule="evenodd" clip-rule="evenodd" fill="#F17147" d="M379.199,363.783c-0.484-0.852-0.969-1.704-1.454-2.556
			c0.842-1.597,2.82-0.186,3.794-1.435C383.841,362.931,380.71,362.88,379.199,363.783z"/>
		<path fill-rule="evenodd" clip-rule="evenodd" fill="#F19476" d="M564.114,132.676c0.762-2.028-1.832-5.408,2.425-6.029
			c0.091,0.386,0.089,0.772-0.008,1.156c-2.318,1.683-0.754,4.186-1.32,6.24C564.184,134.118,563.54,133.886,564.114,132.676z"/>
		<path fill-rule="evenodd" clip-rule="evenodd" fill="#F5B5A1" d="M463.093,383.071c0.872,0.729,0.767,2.335,2.256,2.509
			c0.123,0.997,0.496,2.313-0.501,2.778c-1.312,0.611-1.635-0.833-1.772-1.68C462.886,385.506,463.068,384.276,463.093,383.071z"/>
		<path fill-rule="evenodd" clip-rule="evenodd" fill="#51BEBA" d="M177.857,309.197c2.655-0.563,5.221-0.664,7.369,1.416
			C182.78,310.085,180.095,310.808,177.857,309.197z"/>
		<path fill-rule="evenodd" clip-rule="evenodd" fill="#9CD8D8" d="M173.218,313.899c-2.063-0.289-2.964-1.945-4.019-3.42
			C171.312,310.71,174.405,309.79,173.218,313.899z"/>
		<path fill-rule="evenodd" clip-rule="evenodd" fill="#FEEAE3" d="M551.725,306.666c-0.383,0.422-0.767,0.845-1.149,1.267
			c-0.569,0.881-1.35,1.705-2.384,1.076c-0.986-0.6-0.699-1.719-0.315-2.679c0.503-0.66,1.007-1.319,1.509-1.979
			C549.418,305.876,550.206,306.641,551.725,306.666z"/>
		<path fill-rule="evenodd" clip-rule="evenodd" fill="#5BBFBC" d="M155.635,314.036c0.048-2.107,0.097-4.214,0.146-6.322
			C156.281,309.833,159.319,312.013,155.635,314.036z"/>
		<path fill-rule="evenodd" clip-rule="evenodd" fill="#EF683B" d="M538.231,88.265c-1.251-0.292-2.502-0.584-3.752-0.877
			c-0.794-0.522-2.239-0.02-2.398-1.531C534.606,85.443,536.899,85.629,538.231,88.265z"/>
		<path fill-rule="evenodd" clip-rule="evenodd" fill="#F6BBAA" d="M523.647,84.766c-2.203,1.939-4.406,1.191-6.609,0.002
			C519.241,83.676,521.444,84.11,523.647,84.766z"/>
		<path fill-rule="evenodd" clip-rule="evenodd" fill="#E1F3F3" d="M165.572,340.041c-0.016,2.424-0.031,4.848-0.047,7.271
			c-2.177-2.192-0.926-4.857-1.012-7.338C164.867,339.997,165.219,340.019,165.572,340.041z"/>
		<path fill-rule="evenodd" clip-rule="evenodd" fill="#F7C3B3" d="M324.526,377.207c1.818-0.125,3.637-0.249,5.457-0.374
			c0.675,0.272,1.719,0.973,0.499,1.265c-1.841,0.439-3.875,0.067-5.826,0.04C324.644,377.822,324.6,377.513,324.526,377.207z"/>
		<path fill-rule="evenodd" clip-rule="evenodd" fill="#F8C9B8" d="M381.539,359.792c-1.265,0.479-2.528,0.956-3.794,1.435
			c-0.708-0.273-2.053-0.695-2.031-0.797c0.263-1.125,1.284-1.393,2.28-1.625C378.922,360.047,380.37,359.417,381.539,359.792z"/>
		<path fill-rule="evenodd" clip-rule="evenodd" fill="#81CFCD" d="M165.443,380.876c1.279-0.454,2.559-0.909,3.838-1.363
			c-0.175,1.641-0.929,2.942-2.292,3.883C166.475,382.556,165.958,381.716,165.443,380.876z"/>
		<path fill-rule="evenodd" clip-rule="evenodd" fill="#EE6D46" d="M477.685,353.777c-0.791,0.748-1.579,1.496-2.367,2.244
			c-0.363-0.835-0.728-1.67-1.089-2.505C475.498,352.022,476.776,350.472,477.685,353.777z"/>
		<path fill-rule="evenodd" clip-rule="evenodd" fill="#C2E6E7" d="M224.808,323.883c-0.781,0.456-1.563,0.911-2.344,1.366
			c-1.411-0.865-1.371-1.737,0.027-2.549C223.837,321.918,224.678,322.232,224.808,323.883z"/>
		<path fill-rule="evenodd" clip-rule="evenodd" fill="#5FC6C4" d="M207.512,316.633c-0.014,0.407-0.015,0.814-0.002,1.222
			c-0.406,1.242-1.266,2.019-2.486,2.425c-0.55-1.042-1.554-1.197-2.576-1.32c0.081-0.329,0.151-0.66,0.209-0.994
			C204.275,317.523,205.894,317.078,207.512,316.633z"/>
		<path fill-rule="evenodd" clip-rule="evenodd" fill="#FADFD4" d="M311.055,393.335c-2.003-0.438-4.003-0.876-6.006-1.313
			C307.739,389.314,309.404,391.293,311.055,393.335z"/>
		<path fill-rule="evenodd" clip-rule="evenodd" fill="#F3AA92" d="M329.485,355.872c0.132,0.805-0.146,1.326-1.005,1.442
			c-0.683,0.217-1.563,1.286-1.976,0.401c-0.306-0.663,0.186-2.02,0.76-2.702C328.507,353.533,328.604,355.881,329.485,355.872z"/>
		<path fill-rule="evenodd" clip-rule="evenodd" fill="#94D5D5" d="M64.649,383.903c1.22,0.776,2.22,1.923,1.276,2.917
			c-1.279,1.35-1.519-0.212-1.62-1.141C64.246,385.138,64.51,384.562,64.649,383.903z"/>
		<path fill-rule="evenodd" clip-rule="evenodd" fill="#EF6838" d="M416.204,561.325c-0.053-2.251-0.979-4.638,1.024-6.568
			C417.256,557.004,417.202,559.238,416.204,561.325z"/>
		<path fill-rule="evenodd" clip-rule="evenodd" fill="#D0EBEC" d="M160.399,396.64c0.798-0.882,1.597-1.763,2.395-2.646
			c0.394,0.456,0.79,0.911,1.185,1.366c-0.238,1.254-0.888,2.225-1.983,2.892C161.132,398.043,160.59,397.515,160.399,396.64z"/>
		<path fill-rule="evenodd" clip-rule="evenodd" fill="#D9EFEF" d="M195.16,315.5c2.055-0.032,4.109-0.065,6.164-0.098
			C199.296,317.169,197.241,317.153,195.16,315.5z"/>
		<path fill-rule="evenodd" clip-rule="evenodd" fill="#93D5D5" d="M395.076,428.804c1.32-1.841,2.591-1.412,3.837,0.085
			c-0.046,0.411-0.092,0.819-0.14,1.229c-1.218,0.02-2.435,0.042-3.652,0.062c-0.332-0.296-0.448-0.598-0.352-0.908
			C394.868,428.96,394.97,428.804,395.076,428.804z"/>
		<path fill-rule="evenodd" clip-rule="evenodd" fill="#6CC7C5" d="M172.855,325.288c-0.418,0.845-0.836,1.691-1.255,2.537
			c-1.121-1.295-1.872-2.944-0.619-4.224C171.613,322.956,172.582,324.264,172.855,325.288z"/>
		<path fill-rule="evenodd" clip-rule="evenodd" fill="#99D7D6" d="M257.076,435.313c0.243-2.098,1.405-2.537,3.225-1.791
			C260.047,435.599,258.876,436.022,257.076,435.313z"/>
		<path fill-rule="evenodd" clip-rule="evenodd" fill="#8BD2D2" d="M113.717,242.533c-0.737,1.695-1.932,2.63-3.87,2.331
			C110.257,242.625,111.786,242.245,113.717,242.533z"/>
		<path fill-rule="evenodd" clip-rule="evenodd" fill="#89D1D1" d="M259.143,439.712c1.116-0.144,1.407,0.438,1.102,0.952
			c-0.363,0.609-0.997,1.176-1.645,1.457c-0.525,0.228-1.247-0.118-0.784-0.912C258.182,440.58,258.794,440.093,259.143,439.712z"/>
		<path fill-rule="evenodd" clip-rule="evenodd" fill="#99D7D8" d="M117.406,331.28c-0.003-0.012-0.366-0.748-0.465-1.516
			c-0.026-0.205,0.784-0.754,1.161-0.712c0.489,0.054,1.108,0.441,1.35,0.867C119.841,330.606,119.275,330.926,117.406,331.28z"/>
		<path fill-rule="evenodd" clip-rule="evenodd" fill="#C3E6E7" d="M189.938,344.719c0.53,0.105,1.061,0.211,1.591,0.317
			c-0.8,1.575-2.052,2.408-3.85,2.343C187.618,345.8,188.411,344.949,189.938,344.719z"/>
		<path fill-rule="evenodd" clip-rule="evenodd" fill="#F4B19C" d="M440.604,114.111c0.096,0.709-0.171,1.174-0.895,1.333
			c-0.381,0.333-0.822,0.522-1.33,0.546c-0.517,0.017-0.95-0.163-1.305-0.54c-0.014-0.424-0.028-0.848-0.043-1.272
			c0.299-0.352,0.658-0.625,1.085-0.813c0.455-0.094,0.911-0.101,1.371-0.027C439.927,113.497,440.296,113.761,440.604,114.111z"/>
		<path fill-rule="evenodd" clip-rule="evenodd" fill="#F5B4A2" d="M441.843,111.662c-0.311,0.438-0.621,0.878-0.933,1.317
			c-0.397,0.357-0.862,0.539-1.397,0.547c-0.533,0.003-1.018-0.143-1.451-0.461c-0.258-0.531-0.128-0.963,0.332-1.311
			c0.348-0.042,0.697-0.057,1.047-0.046c0.345-0.302,0.742-0.493,1.2-0.557C441.105,111.17,441.506,111.34,441.843,111.662z"/>
		<path fill-rule="evenodd" clip-rule="evenodd" fill="#FDF0EB" d="M438.394,111.753c-0.002,0.432-0.002,0.862-0.004,1.293
			c0.335,0.324,0.414,0.6,0.24,0.827c-0.156,0.203-0.309,0.305-0.455,0.305l-0.571-0.052l-0.571,0.052
			C437.063,113.132,437.295,112.198,438.394,111.753z"/>
		<path fill-rule="evenodd" clip-rule="evenodd" fill="#EF7E5B" d="M437.075,115.45c0.405-0.087,0.811-0.099,1.22-0.035
			c0.277,0.237,0.386,0.489,0.325,0.756c-0.062,0.275-0.135,0.414-0.217,0.414c-0.402,0.043-0.805,0.071-1.21,0.084
			C437.155,116.262,437.116,115.856,437.075,115.45z"/>
		<path fill-rule="evenodd" clip-rule="evenodd" fill="#F08F6F" d="M440.72,111.712c-0.427-0.001-0.854-0.003-1.279-0.005
			c0.458-0.408,0.916-0.817,1.373-1.226l-0.072-0.074c0.271,0.295,0.357,0.586,0.261,0.875
			C440.908,111.569,440.813,111.712,440.72,111.712z"/>
		<path fill-rule="evenodd" clip-rule="evenodd" fill="#FEF4F0" d="M470.182,322.464c7.093-10.423,1.21-19.719-2.536-29.2
			c-0.527-1.443,0.545-2.002,1.463-2.648c3.177,2.958,3.203,7.394,5.132,10.938c1.275,2.277,4.943,1.109,5.782,4.014
			c3.09,8.104,5.025,9.017,16.113,7.594c-1.904,4.612-1.938,4.637-8.02,6.062c-2.942,0.74-5.879,1.135-8.766-0.232
			c-2.285-2.494-2.866,0.278-4.014,1.299c-1.801,1.195-1.394,5.303-5.158,3.91C469.814,323.621,469.817,323.042,470.182,322.464z"/>
		<path fill-rule="evenodd" clip-rule="evenodd" fill="#FEF8F5" d="M419.719,336.947c-1.174-17.576-4.194-33.843-9.619-50.204
			C420.791,291.275,427.321,325.083,419.719,336.947z"/>
		<path fill-rule="evenodd" clip-rule="evenodd" fill="#FBDDD1" d="M544.323,301.446c-3.927,9.272-8.517,13.084-13.496,12.337
			c-1.062-0.159-2.054-0.005-2.213-1.401c-0.115-1.026-0.033-2.726,0.893-2.543C536.222,311.163,538.632,304.746,544.323,301.446z"
			/>
		<path fill-rule="evenodd" clip-rule="evenodd" fill="#FBE8E0" d="M560.593,180.754c-1.292-5.545-2.943-11.033-2.799-16.818
			c-0.566-1.346,0.026-1.731,1.292-1.562l0.35-0.175c0.829,1.127,1.487,2.349,2.013,3.643c0.55,2.375,1.318,4.664,2.637,6.739
			c0.274,0.458,0.463,0.95,0.566,1.472c-0.002,0.261-0.007,0.525-0.007,0.787c0.021,2.029,1.241,4.1-0.19,6.087
			C563.157,181.1,561.898,180.388,560.593,180.754z"/>
		<path fill-rule="evenodd" clip-rule="evenodd" fill="#FBE6DF" d="M479.351,318.992c2.964-1.501,5.847,0.01,8.764,0.232
			c-5.541,3.688-3.464,9.555-4.18,14.623c-0.568,0.366-1.106,0.322-1.61-0.131c-0.687-2.369,0.371-4.904-0.689-7.238
			C480.697,324.036,482.06,320.894,479.351,318.992z"/>
		<path fill-rule="evenodd" clip-rule="evenodd" fill="#F8CDBD" d="M546.781,98.9c2.001,2.442,5.334,4.038,5.03,7.94
			C547.981,105.557,545.113,103.667,546.781,98.9z"/>
		<path fill-rule="evenodd" clip-rule="evenodd" fill="#F4AB93" d="M480.022,305.568c-1.612-1.793-5.686-0.04-5.782-4.014
			c3.144,0.447,1.54-2.559,2.863-3.897C479.106,299.995,479.727,302.715,480.022,305.568z"/>
		<path fill-rule="evenodd" clip-rule="evenodd" fill="#FDECE7" d="M282.565,463.491c0.434-0.014,0.868-0.025,1.302-0.039
			c0.085,5.12,2.611,10.626-2.364,14.943C282.142,473.447,283.401,468.544,282.565,463.491z"/>
		<path fill-rule="evenodd" clip-rule="evenodd" fill="#F7C8BA" d="M547.876,306.33c0.05,1.966,1.015,2.392,2.699,1.603
			c-0.798,2.559-2.042,5.808-4.896,4.649C544.356,312.044,545.68,308.033,547.876,306.33z"/>
		<path fill-rule="evenodd" clip-rule="evenodd" fill="#EF8665" d="M563.986,172.977c-4.076-0.919-2.487-4.548-3.351-7.004
			c0.769-0.707,1.516-0.665,2.246,0.062c0.396,0.852,0.791,1.705,1.187,2.557C563.061,170.036,565.854,171.549,563.986,172.977z"/>
		<path fill-rule="evenodd" clip-rule="evenodd" fill="#EE815F" d="M426.123,137.717c2.006-1.285,2.35-0.116,2.336,1.584
			c-0.087,2.446-0.01,5.079-3.772,3.257C425.166,140.944,425.646,139.331,426.123,137.717z"/>
		<path fill-rule="evenodd" clip-rule="evenodd" fill="#F7C6B8" d="M560.593,180.754c1.287-2.303,2.555-0.802,3.827,0.016
			l0.478-0.35l0.443,0.391c-0.062,0.87-0.125,1.741-0.188,2.611c-0.496,0.658-0.976,0.647-1.443-0.032
			C561.494,183.902,560.281,183.229,560.593,180.754z"/>
		<path fill-rule="evenodd" clip-rule="evenodd" fill="#F8CCBD" d="M470.343,324.025c2.642,0.062,2.676-3.365,4.994-3.734
			c-0.478,3.792-2.895,5.941-6.209,7.33C468.489,326.07,469.639,325.123,470.343,324.025z"/>
		<path fill-rule="evenodd" clip-rule="evenodd" fill="#FBEBE5" d="M563.709,183.39c0.482,0.01,0.964,0.021,1.443,0.032
			c0.435,0.82,0.868,1.641,1.305,2.46c0.069,1.189,0.14,2.379,0.209,3.568c-0.494,0.429-1.065,0.605-1.716,0.532
			c-1.752-1.395-3.116-2.937-2.034-5.4C563.181,184.185,563.443,183.788,563.709,183.39z"/>
		<path fill-rule="evenodd" clip-rule="evenodd" fill="#FADCD2" d="M443.188,116.737c0.489-3.084,1.817-5.523,5.021-6.516
			C448.139,113.63,445.748,115.248,443.188,116.737z"/>
		<path fill-rule="evenodd" clip-rule="evenodd" fill="#F29B7F" d="M482.695,333.689c0.415,0.052,0.827,0.104,1.239,0.157
			c0.437,1.373,2.123,3.56,0.243,3.955c-2.136,0.448-3.143-1.789-2.512-4.113C482.011,333.229,482.354,333.252,482.695,333.689z"/>
		<path fill-rule="evenodd" clip-rule="evenodd" fill="#F7C4B4" d="M566.638,195.45c-3.597,0.168-2.572-3.043-3.524-4.812
			c0.668-0.654,1.499-0.577,2.324-0.525C567.59,191.496,567.011,193.497,566.638,195.45z"/>
		<path fill-rule="evenodd" clip-rule="evenodd" fill="#F29C81" d="M279.056,485.66c-0.186-2.283-0.193-4.481,2.553-5.375
			c-0.036,2.502-1.075,4.673-2.284,6.785C278.536,486.732,278.446,486.265,279.056,485.66z"/>
		<path fill-rule="evenodd" clip-rule="evenodd" fill="#F9D2C6" d="M566.638,195.45c-0.446-1.618-0.892-3.236-1.338-4.854
			c-0.383-0.299-0.484-0.553-0.309-0.762c0.156-0.186,0.315-0.279,0.478-0.279c0.397-0.031,0.798-0.066,1.197-0.104
			c1.917,1.768,0.986,4.122,1.28,6.223C567.51,195.599,567.073,195.525,566.638,195.45z"/>
		<path fill-rule="evenodd" clip-rule="evenodd" fill="#FAE5DE" d="M565.469,189.555c-0.051,0.349-0.106,0.696-0.169,1.042
			c-0.728,0.013-1.456,0.027-2.187,0.042c0.205-2.028-2.97-3.945-0.197-6.057C563.172,186.545,563.837,188.297,565.469,189.555z"/>
		<path fill-rule="evenodd" clip-rule="evenodd" fill="#ED754F" d="M562.882,166.035c-0.749-0.021-1.496-0.042-2.246-0.062
			c-0.605-1.192-1.598-2.262-1.2-3.773C562.824,161.464,562.161,164.371,562.882,166.035z"/>
		<path fill-rule="evenodd" clip-rule="evenodd" fill="#F9D0C2" d="M455.531,100.611c0.612-2.55,1.102-5.228,4.763-4.659
			C458.947,97.75,458.089,100.05,455.531,100.611z"/>
		<path fill-rule="evenodd" clip-rule="evenodd" fill="#F39E83" d="M469.108,290.617c-0.489,0.883-0.976,1.765-1.463,2.648
			c-1.261-1.11-1.979-2.481-2.131-4.772C466.925,289.326,468.017,289.972,469.108,290.617z"/>
		<path fill-rule="evenodd" clip-rule="evenodd" fill="#F6C0B0" d="M566.738,179.457c-0.465,0.451-0.93,0.903-1.397,1.354
			l0.038,0.016c-0.826-1.888-0.939-3.923-1.229-5.923l-0.08-0.404c0.489-0.481,0.911-0.403,1.271,0.158
			C567.252,175.837,566.426,177.813,566.738,179.457z"/>
		<path fill-rule="evenodd" clip-rule="evenodd" fill="#F8D5C9" d="M565.341,174.658c-0.422-0.052-0.846-0.104-1.271-0.157
			c-0.028-0.508-0.056-1.015-0.084-1.523c0.248-1.458-2.121-2.964,0.082-4.386C565.394,170.424,565.659,172.48,565.341,174.658z"/>
		<path fill-rule="evenodd" clip-rule="evenodd" fill="#FBE4DB" d="M559.086,162.375c-0.432,0.52-0.86,1.04-1.292,1.561
			c-0.742-1.5-2.179-3.388,0.307-4.201C559.276,159.349,558.797,161.422,559.086,162.375z"/>
		<path fill-rule="evenodd" clip-rule="evenodd" fill="#F9D9CE" d="M279.056,485.66c0.09,0.47,0.179,0.939,0.269,1.41
			c-0.215,1.74-0.014,3.806-2.775,3.562C276.298,488.427,277.239,486.824,279.056,485.66z"/>
		<path fill-rule="evenodd" clip-rule="evenodd" fill="#F6C1B0" d="M564.114,132.676c0.366,0.456,0.732,0.911,1.097,1.367
			c-0.141,1.581,0.98,3.425-0.965,4.63c-0.393-2.007-0.785-4.014-1.179-6.021C563.415,132.687,563.765,132.695,564.114,132.676z"/>
		<path fill-rule="evenodd" clip-rule="evenodd" fill="#F19375" d="M460.519,94.957c-1.223-3.388,1.2-3.728,3.492-4.177
			C462.845,92.172,461.68,93.565,460.519,94.957z"/>
		<path fill-rule="evenodd" clip-rule="evenodd" fill="#FBE5DD" d="M482.695,333.689l-0.513,0.042l-0.517-0.042
			c-0.009-2.403-0.021-4.807-0.031-7.211C483.568,328.648,482.344,331.285,482.695,333.689z"/>
		<path fill-rule="evenodd" clip-rule="evenodd" fill="#F8D1C4" d="M470.343,324.025c-0.405,1.199-0.81,2.397-1.215,3.596
			c-3.31-2.467,0.581-3.463,1.054-5.157C470.234,322.984,470.29,323.505,470.343,324.025z"/>
		<path fill-rule="evenodd" clip-rule="evenodd" fill="#F5B5A3" d="M422.818,151.909c1.272-2.888,1.801-4.09,2.441-5.547
			C426.376,148.476,425.672,149.738,422.818,151.909z"/>
		<path fill-rule="evenodd" clip-rule="evenodd" fill="#F4BBAA" d="M449.399,108.327c-1.227-2.646,1.309-3.108,2.519-4.339
			C451.974,105.953,450.983,107.312,449.399,108.327z"/>
		<path fill-rule="evenodd" clip-rule="evenodd" fill="#F3A992" d="M412.134,166.001c0.397-0.038,0.795-0.056,1.193-0.054
			c-0.724,1.31-1.444,2.619-2.165,3.929C409.729,168.144,411.083,167.11,412.134,166.001z"/>
		<path fill-rule="evenodd" clip-rule="evenodd" fill="#F9FCFC" d="M205.104,369.723c4.93-3.003,8.601-7.115,11.059-12.349
			c0.874-1.859,2.198-4.333,4.363-3.406c2.474,1.06,0.895,3.9,0.206,5.456c-4.9,11.061-9.177,22.603-16.863,32.043
			c-5.24,6.436-12.877,10.729-17.753,17.711c-0.814,1.167-2.149,1.367-3.304,0.688c-1.601-0.942-0.033-2.141-0.014-3.23
			c4.456-4.789,7.892-10.475,12.944-14.736c1.492-1.204,2.623-2.729,3.729-4.272c1.13-1.841,2.777-3.274,3.99-5.048
			c0.254-0.523,0.586-0.992,1.001-1.401c-0.59,0.126-0.667,0.699-0.959,1.113c-1.102,1.867-2.807,3.233-3.946,5.044
			c-0.999,1.293-1.843,2.714-3.125,3.774c-2.719,2.389-4.768,5.705-8.773,6.305c-0.924-0.21-1.509-0.771-1.757-1.687
			c-0.034-2.365,1.651-4.206,1.972-6.467c1.081-2.756,3.078-4.718,5.485-6.321c2.156-0.492,3.779-1.594,4.365-3.873
			c0.208-0.507,0.484-0.972,0.8-1.416C201.421,375.592,204.059,373.32,205.104,369.723z"/>
		<path fill-rule="evenodd" clip-rule="evenodd" fill="#F4FAFA" d="M160.399,396.64c0.532,0.538,1.063,1.073,1.596,1.611
			c-2.671,5.639-6.914,10.237-10.244,15.439c-0.143,0.576-0.497,0.971-1.03,1.218c-4.677,1.33-5.853,6.705-9.979,8.669
			c-0.672,0.485-1.353,0.964-1.994,1.493c-2.519,2.65-5.186,5.031-9.174,4.954c-3.17,0.384-5.767,3.418-10.41,1.691
			c8.468-4.67,14.578-11.196,21.535-16.702c5.819-4.606,11.605-9.254,15.132-15.995C156.864,397.042,158.455,396.62,160.399,396.64z
			"/>
		<path fill-rule="evenodd" clip-rule="evenodd" fill="#F4FAFA" d="M137.013,432.433c-1.122-0.052-2.244-0.104-3.365-0.156
			c-0.532-3.114,2.039-4.06,3.851-5.54c0.903-0.527,1.84-0.996,2.738-1.532c1.587-0.931,2.803-2.28,4.053-3.596
			c2.621-4.112,7.884-3.558,11.236-6.381c2.405-1.355,2.966-4.904,6.738-4.881c-5.466,9.268-9.092,19.934-20.154,24.788
			c-3.228,0.757-3.646-0.841-2.399-3.198c0.75-1.416,2.275-2.307,3.714-3.074c0.501-0.239,0.968-0.591,1.517-0.785
			c-0.232-0.176-0.511-0.084-0.873,0.299C141.606,429.589,139.813,431.887,137.013,432.433z"/>
		<path fill-rule="evenodd" clip-rule="evenodd" fill="#48BFBB" d="M198.968,378.333c-0.009,0.391-0.065,0.775-0.168,1.151
			c-1.044,1.989-2.952,2.89-4.827,3.832c-1.691,1.987-3.383,3.975-5.074,5.963c-1.503,2.307-2.294,5.436-6,5.2
			c-0.31-1.652-4.458-0.9-2.494-3.978c4.397-2.71,8.336-5.927,11.269-10.243c1.334-1.362,2.477-2.875,3.479-4.499
			c1.268-4.669,2.449-0.181,3.671,0.034C199.653,376.595,199.515,377.452,198.968,378.333z"/>
		<path fill-rule="evenodd" clip-rule="evenodd" fill="#51BDBA" d="M196.508,392.102c-4.429,4.978-8.394,10.393-13.711,14.533
			c-0.646-3.339,4.828-3.872,3.46-7.543c-0.205-1.313,0.596-1.842,1.68-2.148c2.773-2.266,5.548-4.532,8.322-6.797
			C196.903,390.727,196.986,391.379,196.508,392.102z"/>
		<path fill-rule="evenodd" clip-rule="evenodd" fill="#DCF0F0" d="M192.527,380.492c-3.224,4.325-5.892,9.324-12.122,10.009
			c2.267-5.288,8.346-7.002,11.096-11.838C192.444,378.935,192.923,379.467,192.527,380.492z"/>
		<path fill-rule="evenodd" clip-rule="evenodd" fill="#B9E3E4" d="M76.492,405.495c0.072-0.474,0.144-0.946,0.216-1.42
			c2.172-4.237,4.11-0.747,6.125,0.185c1.779,1.729,2.717,3.897,3.29,6.264c0.078,0.946-0.106,1.808-0.84,2.479
			c-3.248,0.745-2.735-3.256-4.899-3.88c0.021-0.806,0.297-1.83-1.167-1.364C78.309,407.004,77.401,406.249,76.492,405.495z"/>
		<path fill-rule="evenodd" clip-rule="evenodd" fill="#E0F2F2" d="M85.332,410.376c-1.61-1.721-1.955-3.96-2.498-6.117
			c0.03-0.488,0.06-0.977,0.091-1.467c2.853,3.604,6.77,6.453,7.99,11.221c-0.708,0.709-1.52,0.704-2.386,0.354
			C86.798,413.572,86.402,411.704,85.332,410.376z"/>
		<path fill-rule="evenodd" clip-rule="evenodd" fill="#59C3C0" d="M155.527,415.228c-2.387,4.244-8.083,3.789-10.78,7.592
			c-0.507,0.412-1.029,0.412-1.564,0.061c1.03-4.19,4.09-6.671,7.478-8.876c0.354-0.139,0.718-0.243,1.092-0.312
			C151.94,416.831,154.034,415.292,155.527,415.228z"/>
		<path fill-rule="evenodd" clip-rule="evenodd" fill="#46BEBA" d="M138.368,427.537c-1.722,1.432-3.75,2.56-4.72,4.739
			c-2.249,0.862-1.764-3.222-4.073-2.252c3.489-1.337,5.83-4.25,8.742-6.38C139.583,424.925,139.3,426.227,138.368,427.537z"/>
		<path fill-rule="evenodd" clip-rule="evenodd" fill="#CFEBEC" d="M89.051,414.056c0.623-0.014,1.245-0.028,1.866-0.043
			c2.891,1.79,0.283,4.076,0.549,6.104c-3.99,0.723-4.292-3.03-6.063-4.999c-0.013-0.323,0.014-0.642,0.081-0.957
			C86.629,412.616,87.857,413.912,89.051,414.056z"/>
		<path fill-rule="evenodd" clip-rule="evenodd" fill="#6FC9C7" d="M144.454,428.612c-1.275,1.28-2.632,2.492-3.806,3.859
			c-1.732,2.019,0.107,2.246,1.462,2.663c-3.921,3.292-3.252-2.076-5.098-2.702c2.081-2.302,4.604-3.944,7.502-5.03
			c0.357,0.288,0.467,0.562,0.33,0.825C144.712,428.483,144.582,428.612,144.454,428.612z"/>
		<path fill-rule="evenodd" clip-rule="evenodd" fill="#BAE3E4" d="M184.214,399.373c-0.494,0.346-1.026,1.025-1.476,0.975
			c-1.521-0.172-3.22,2.259-4.362,0.215c-1.107-1.982,1.234-2.665,2.38-3.678c0.606-0.537,1.35-0.919,2.032-1.371
			c0.749,0.115,1.253,0.555,1.605,1.199C184.713,397.623,184.129,398.475,184.214,399.373z"/>
		<path fill-rule="evenodd" clip-rule="evenodd" fill="#AFDFDF" d="M198.968,378.333c-0.048-0.847-0.096-1.693-0.144-2.539
			c2.093-2.024,4.186-4.048,6.279-6.071C205.123,374.064,202.868,376.785,198.968,378.333z"/>
		<path fill-rule="evenodd" clip-rule="evenodd" fill="#C3E6E8" d="M184.098,396.794c-0.436-0.427-0.872-0.854-1.309-1.28
			c0.015-0.347,0.051-0.693,0.109-1.036c2-1.732,4-3.466,6-5.199c0.726,2.674-1.337,4.281-2.401,6.272
			C185.953,396.457,185.442,397.428,184.098,396.794z"/>
		<path fill-rule="evenodd" clip-rule="evenodd" fill="#43BBB6" d="M66.735,362.138c0.524-0.806,1.048-1.613,1.571-2.419
			c0.723,0.728,1.445,1.454,2.167,2.182c0.329,1.357,2.256,2.336,0.961,4.077c-1.164,1.021-0.861,2.427-0.979,3.723
			C68.805,367.381,68.998,364.156,66.735,362.138z"/>
		<path fill-rule="evenodd" clip-rule="evenodd" fill="#42BDB9" d="M85.403,415.117c2.021,1.667,4.042,3.333,6.064,5.001
			c-1.132,2.633-2.433,2.842-4.385,0.596C85.61,419.02,85.749,417.04,85.403,415.117z"/>
		<path fill-rule="evenodd" clip-rule="evenodd" fill="#B1DFE0" d="M279.033,414.128c-2.675,2.682-4.11,6.813-8.611,7.357
			C272.95,418.631,274.566,414.711,279.033,414.128z"/>
		<path fill-rule="evenodd" clip-rule="evenodd" fill="#E5F4F5" d="M79.217,407.759c0.179-0.925-0.398-2.187,0.78-2.617
			c0.306-0.111,1.19,0.908,1.571,1.548c0.769,1.293,0.682,2.342-1.185,2.434C79.995,408.668,79.606,408.213,79.217,407.759z"/>
		<path fill-rule="evenodd" clip-rule="evenodd" fill="#D4EDEE" d="M184.098,396.794c0.8-0.415,1.6-0.829,2.4-1.243
			c0.479,0.462,0.958,0.928,1.438,1.391c-0.559,0.718-1.118,1.436-1.678,2.152c-0.682,0.092-1.363,0.186-2.044,0.279
			C182.677,398.581,183.923,397.664,184.098,396.794z"/>
		<path fill-rule="evenodd" clip-rule="evenodd" fill="#76CCCA" d="M285.213,400.506c-1.202,4.063-1.853,4.553-4.901,3.687
			C281.946,402.964,283.58,401.734,285.213,400.506z"/>
		<path fill-rule="evenodd" clip-rule="evenodd" fill="#98D7D6" d="M89.051,414.056c-1.148,1.469-2.395-0.476-3.568,0.104
			c-0.145-0.372-0.212-0.759-0.2-1.158c0.017-0.874,0.032-1.75,0.049-2.626C87.074,411.096,88.052,412.586,89.051,414.056z"/>
		<path fill-rule="evenodd" clip-rule="evenodd" fill="#9AD7D7" d="M86.428,337.725c1.579-0.553,3.578,0.53,4.841-1.246
			c0.986,0.509,3.501,0.901,0.759,2.149C90.451,339.347,88.109,339.197,86.428,337.725z"/>
		<path fill-rule="evenodd" clip-rule="evenodd" fill="#82CFCE" d="M161.881,343.79c1.792,2.811,1.838,5.628,0.039,8.453
			C161.907,349.425,161.894,346.607,161.881,343.79z"/>
		<path fill-rule="evenodd" clip-rule="evenodd" fill="#80CFCD" d="M73.974,365.813c0.779,1.35,1.924,2.554,1.735,4.508
			c-2.074-0.014-2.624-1.3-2.752-2.999C72.126,366.033,72.999,365.889,73.974,365.813z"/>
		<path fill-rule="evenodd" clip-rule="evenodd" fill="#C3E6E7" d="M73.974,365.813c-0.339,0.503-0.677,1.005-1.016,1.509
			c-0.507-0.448-1.015-0.896-1.522-1.346c-0.321-1.357-0.642-2.716-0.962-4.075C72.211,362.694,73.2,364.157,73.974,365.813z"/>
		<path fill-rule="evenodd" clip-rule="evenodd" fill="#CDEAEB" d="M192.527,380.492c-0.342-0.61-0.685-1.221-1.027-1.83
			c1.218-0.967,2.435-1.936,3.653-2.903C195.144,377.817,194.554,379.553,192.527,380.492z"/>
		<path fill-rule="evenodd" clip-rule="evenodd" fill="#52C1BD" d="M95.51,423.385c0.156,1.176-0.308,1.624-0.931,1.253
			c-0.609-0.364-1.165-1.06-1.403-1.73c-0.215-0.604,0.373-1.287,1.026-0.945C94.828,422.29,95.225,423.056,95.51,423.385z"/>
		<path fill-rule="evenodd" clip-rule="evenodd" fill="#89D1D0" d="M284.003,406.628c0.008,0.432,0.016,0.863,0.024,1.294
			c-0.737,1.567-1.864,2.531-3.702,2.401c0.41-0.798,0.82-1.594,1.229-2.392C282.371,407.498,283.187,407.062,284.003,406.628z"/>
		<path fill-rule="evenodd" clip-rule="evenodd" fill="#E3F3F3" d="M251.18,117.41c7.249-1.35,12.507-4.37,18.651-4.346
			C268.286,118.136,260.733,120.157,251.18,117.41z"/>
		<path fill-rule="evenodd" clip-rule="evenodd" fill="#F3FAF9" d="M186.521,242.627c-3.397-1.229-7.095-2.041-9.316-7.675
			c11.38,5.822,22.664,3.514,34.107,4.809c-8.658,8.554-16.646,11.842-26.39,11.086c1.102-4.673,6.501-3.33,8.576-6.311
			c0.07-0.101-0.02-0.379-0.119-0.514c-0.115-0.156-0.322-0.245-0.49-0.364C190.911,242.417,188.505,243.82,186.521,242.627z"/>
		<path fill-rule="evenodd" clip-rule="evenodd" fill="#53BFBC" d="M186.521,242.627c2.187-0.056,4.413-0.356,6.367,1.031
			C190.712,243.648,188.392,244.527,186.521,242.627z"/>
		<path fill-rule="evenodd" clip-rule="evenodd" fill="#FCECE5" d="M447.934,437.837c-0.525,0.985-0.614,2.668-2.456,1.598
			c-7.438-4.319-15.604-4.504-23.864-4.293c-1.873,0.049-5.093,1.387-5.191-1.109c-0.075-1.891,2.581-4.371,5.129-4.95
			c2.147-0.486,4.49-0.114,6.746-0.122c2.876,0.639,5.887,0.031,8.737,0.918c3.324,0.639,6.238,2.21,9.078,3.967
			C447.628,434.759,447.585,436.387,447.934,437.837z"/>
		<path fill-rule="evenodd" clip-rule="evenodd" fill="#FBDED3" d="M434.56,420.056c-6.631,1.179-13.26,2.357-19.888,3.536
			c8.168-6.698,17.311-8.276,27.241-5.746C440.368,421.599,436.724,418.363,434.56,420.056z"/>
		<path fill-rule="evenodd" clip-rule="evenodd" fill="#FBE2D8" d="M433.508,425.344c6.805,0.067,12.686,2.357,17.369,7.375
			c0.942,1.009,2.065,2.191,0.967,3.748c-0.849,1.204-1.776,0.085-2.668-0.074c-1.206-1.058-2.562-1.882-4.021-2.552
			c-2.326-1.672-5.028-2.526-7.668-3.524c-1.386-0.311-2.885-0.089-4.167-0.773C430.521,428.051,430.958,426.634,433.508,425.344z"
			/>
		<path fill-rule="evenodd" clip-rule="evenodd" fill="#FBE1D7" d="M413.49,553.253c-1.928-0.612-0.793-2.307-1.222-3.451
			c2.254-5.833,4.36-11.779,11.473-15.32C420.963,541.799,417.598,547.722,413.49,553.253z"/>
		<path fill-rule="evenodd" clip-rule="evenodd" fill="#EC5F2D" d="M429.129,438.238c4.973-0.514,9.393,2.281,14.303,1.97
			c0.855-0.053,1.842,1.018,1.709,2.177c-0.161,1.388-1.444,1.348-2.384,1.249C437.799,443.113,432.756,442.748,429.129,438.238z"/>
		<path fill-rule="evenodd" clip-rule="evenodd" fill="#FBE2D9" d="M449.327,452.2c2.784-0.813,5.17-2.944,8.808-2.845
			c-2.152,5.551-6.202,6.877-11.104,6.805c-1.215,0.576-2.428,0.636-2.907-0.818c-0.486-1.465,0.456-2.153,1.856-2.339
			C447.119,452.851,448.411,453.297,449.327,452.2z"/>
		<path fill-rule="evenodd" clip-rule="evenodd" fill="#F28C6B" d="M433.508,425.344c-0.814,1.275-2.359,2.656,0.494,3.4
			c1.502,0.392,3.001,0.791,4.501,1.187c-0.128,0.773-0.837,0.829-1.364,1.109c-3.218,0.454-5.985-1-8.842-2.08
			C430.57,428.528,429.76,423.653,433.508,425.344z"/>
		<path fill-rule="evenodd" clip-rule="evenodd" fill="#F4A68D" d="M449.327,452.2c-0.66,1.218-1.892,1.262-3.039,1.474
			c-0.844,0.155-1.642,0.671-1.256,1.479c0.253,0.531,1.304,0.685,1.995,1.008c-1.829,0.568-4.232,3.039-4.507-1.425
			c-0.125-1.993-2.441-1.041-3.198-2.236c3.082-0.096,6.165-0.19,9.251-0.287C448.821,451.976,449.071,451.972,449.327,452.2z"/>
		<path fill-rule="evenodd" clip-rule="evenodd" fill="#EC5F2D" d="M411.346,433.8c-1.605-3.832-2.254-5.703-0.01-7.078
			c0.875-0.536,2.41-0.479,2.726,0.411C414.93,429.569,412.172,430.294,411.346,433.8z"/>
		<path fill-rule="evenodd" clip-rule="evenodd" fill="#F7C0AE" d="M434.56,420.056c1.995-2.254,5.425,0.271,7.354-2.21
			c0.68,0.289,1.757,0.408,1.967,0.9c0.642,1.491-0.665,1.493-1.586,1.49C439.715,420.225,437.136,420.122,434.56,420.056z"/>
		<path fill-rule="evenodd" clip-rule="evenodd" fill="#F4AD97" d="M435.468,504.364c1.312-0.436,2.622-0.872,3.934-1.309
			c0.896-0.029,1.637,0.371,1.692,1.249c0.067,1.077-0.921,1.227-1.666,1.097C438.088,505.167,436.786,504.722,435.468,504.364z"/>
		<path fill-rule="evenodd" clip-rule="evenodd" fill="#F36F44" d="M445.731,433.505c1.537,0.499,2.781,1.348,3.444,2.888
			c-0.413,0.482-0.827,0.962-1.242,1.444c-0.752-0.938-1.504-1.878-2.256-2.815C445.126,434.495,445.146,433.99,445.731,433.505z"/>
		<path fill-rule="evenodd" clip-rule="evenodd" fill="#F1F9F9" d="M122.4,260.357c-2.357,6.16-11.971,11.64-17.795,10.446
			c-1.375-0.282-3.09-0.477-2.92-2.384c0.165-1.859,1.753-2.666,3.387-3.058c2.961-0.71,5.959-1.259,8.93-1.933
			C116.753,262.804,118.776,260.307,122.4,260.357z"/>
		<path fill-rule="evenodd" clip-rule="evenodd" fill="#DAEFEF" d="M99.487,263.814c3.148-5.93,8.938-8.768,14.563-11.76
			c0.575-0.306,1.645-0.208,2.223,0.139c0.879,0.526,0.59,1.47-0.119,2.003c-5.073,3.815-10.18,7.583-15.277,11.367
			C100.414,264.98,99.951,264.396,99.487,263.814z"/>
		<path fill-rule="evenodd" clip-rule="evenodd" fill="#B4E1E1" d="M395.076,428.804c0.014,0.458,0.028,0.917,0.043,1.375
			c-0.154,1.146-0.072,2.428-2.073,2.91c0.525-2.493,0.328-4.908,1.83-6.989C394.94,427,395.008,427.901,395.076,428.804z"/>
		<path fill-rule="evenodd" clip-rule="evenodd" fill="#F8FCFC" d="M81.758,305.259c-0.203,1.582-0.872,2.694-2.681,2.654
			c-0.443-3.021,0.066-5.854,1.677-8.468c0.371,0.464,0.741,0.929,1.112,1.393C81.831,302.312,81.794,303.786,81.758,305.259z"/>
		<path fill-rule="evenodd" clip-rule="evenodd" fill="#7ECECC" d="M86.599,293.159c0.519,1.091,1.574,1.158,2.567,1.347
			c-2.005,1.32-4.068,2.187-6.417,0.823c0.875-0.739,1.75-1.477,2.626-2.214C85.784,293.106,86.191,293.12,86.599,293.159z"/>
		<path fill-rule="evenodd" clip-rule="evenodd" fill="#3AB6B2" d="M56.776,286.863c2.105-0.762,4.211-1.524,6.316-2.287
			C61.569,286.947,59.687,288.322,56.776,286.863z"/>
		<path fill-rule="evenodd" clip-rule="evenodd" fill="#3AB6B2" d="M76.686,280.723c-1.654,0.874-3.308,1.748-4.962,2.622
			C73.138,282.018,73.352,278.419,76.686,280.723z"/>
		<path fill-rule="evenodd" clip-rule="evenodd" fill="#E3F3F3" d="M189.033,339.244c-0.05-1.008-0.1-2.017-0.15-3.026
			c1.256-1.22,2.512-2.439,3.768-3.658c0.462,0.453,0.925,0.906,1.387,1.359C192.369,335.694,190.701,337.469,189.033,339.244z"/>
		<path fill-rule="evenodd" clip-rule="evenodd" fill="#FCE8E1" d="M438.403,116.584c-0.113-0.383-0.149-0.772-0.108-1.169
			c0.471,0.009,0.94,0.019,1.413,0.028c-0.09,0.364-0.177,0.73-0.256,1.097c0-0.001-0.523,0.073-0.523,0.073L438.403,116.584z"/>
		<path fill-rule="evenodd" clip-rule="evenodd" fill="#FAE5DE" d="M439.508,112.948c0.468,0.01,0.935,0.021,1.402,0.031
			c-0.046,0.393-0.149,0.77-0.306,1.132c-0.4,0.04-0.803,0.062-1.208,0.067C439.037,113.732,439.093,113.325,439.508,112.948z"/>
		<path fill-rule="evenodd" clip-rule="evenodd" fill="#F8DED4" d="M440.72,111.712c0.008-0.435,0.015-0.87,0.021-1.305
			c0.75,0.082,1.229,0.402,1.104,1.255C441.47,111.706,441.096,111.723,440.72,111.712z"/>
		<path fill-rule="evenodd" clip-rule="evenodd" fill="#EF8563" d="M439.508,112.948c-0.036,0.41-0.072,0.82-0.108,1.23
			c-0.003,0-0.612-0.024-0.612-0.024l-0.61,0.025c0.039-0.383,0.108-0.761,0.21-1.132
			C438.758,112.974,439.129,112.941,439.508,112.948z"/>
		<path fill-rule="evenodd" clip-rule="evenodd" fill="#F08D6E" d="M564.15,174.904c1.519,1.744,1.296,3.85,1.229,5.922
			c0,0-0.477-0.075-0.477-0.075s-0.484,0.019-0.482,0.019C564.722,178.797,562.352,176.946,564.15,174.904z"/>
		<path fill-rule="evenodd" clip-rule="evenodd" fill="#72CAC8" d="M202.604,381.995c1.11-1.567,2.221-3.134,3.958-5.585
			c0.812,3.957-1.562,5.167-2.708,6.922C203.088,383.214,202.968,382.49,202.604,381.995z"/>
		<path fill-rule="evenodd" clip-rule="evenodd" fill="#61C5C2" d="M202.604,381.995c0.417,0.446,0.833,0.892,1.25,1.337
			c-1.126,1.646-1.974,3.534-3.891,4.494c-0.453-0.117-0.747-0.405-0.904-0.84C200.242,385.323,201.423,383.658,202.604,381.995z"/>
		<path fill-rule="evenodd" clip-rule="evenodd" fill="#93D4D4" d="M193.973,383.315c0.631-2.511,3.059-2.756,4.827-3.831
			C198.313,382.175,197.397,384.326,193.973,383.315z"/>
		<path fill-rule="evenodd" clip-rule="evenodd" fill="#5EC5C2" d="M199.061,386.986c0.302,0.281,0.604,0.562,0.905,0.841
			c-0.485,1.965-1.928,3.154-3.458,4.274c-0.083-0.65-0.165-1.299-0.248-1.953C197.192,389.093,198.126,388.04,199.061,386.986z"/>
		<path fill-rule="evenodd" clip-rule="evenodd" fill="#C4E7E8" d="M150.661,414.004c-2.503,2.895-5.008,5.788-7.512,8.683
			c-0.461,1.194-1.227,1.959-2.613,1.844c-0.851-0.363-1.601-0.775-0.855-1.871c2.47-1.77,4.566-3.863,6.213-6.457
			C146.943,414.548,148.104,412.617,150.661,414.004z"/>
		<path fill-rule="evenodd" clip-rule="evenodd" fill="#5BC5C2" d="M139.681,422.659c0.377,0.471,0.754,0.941,1.132,1.411
			c0.814,0.695,0.71,1.38-0.026,2.057c-0.806,0.471-1.613,0.94-2.419,1.41c-0.017-1.297-0.034-2.593-0.051-3.893
			C138.771,423.315,139.227,422.988,139.681,422.659z"/>
		<path fill-rule="evenodd" clip-rule="evenodd" fill="#82CFCF" d="M144.454,428.612c0.035-0.401,0.055-0.803,0.061-1.207
			c0.577-1.338,1.59-2.183,3.455-2.818C147.576,426.935,146.422,428.094,144.454,428.612z"/>
		<path fill-rule="evenodd" clip-rule="evenodd" fill="#79CCCB" d="M140.787,426.127c0.008-0.687,0.018-1.372,0.026-2.058
			c0.78-0.461,1.559-0.921,2.337-1.383c0.531,0.045,1.063,0.088,1.596,0.132C143.755,424.314,142.552,425.558,140.787,426.127z"/>
		<path fill-rule="evenodd" clip-rule="evenodd" fill="#F07E5A" d="M445.731,433.505c-0.018,0.506-0.036,1.011-0.054,1.517
			c-2.847-1.328-5.693-2.655-8.539-3.981c0.453-0.369,0.908-0.739,1.364-1.109C440.944,431.057,444.128,430.683,445.731,433.505z"/>
	</g>
</g>
</svg>
