<?xml version="1.0" encoding="utf-8"?>
<!-- Generator: Adobe Illustrator 16.0.4, SVG Export Plug-In . SVG Version: 6.00 Build 0)  -->
<!DOCTYPE svg PUBLIC "-//W3C//DTD SVG 1.1//EN" "http://www.w3.org/Graphics/SVG/1.1/DTD/svg11.dtd">
<svg version="1.1" id="Layer_1" xmlns="http://www.w3.org/2000/svg" xmlns:xlink="http://www.w3.org/1999/xlink" x="0px" y="0px"
	 width="612px" height="612px" viewBox="0 0 612 612" enable-background="new 0 0 612 612" xml:space="preserve">
<g>
	<path fill="#FFC83F" d="M428.802,472.409c-30.95-0.248-61.473,2.512-89.846,16.146c-12.967,6.229-25.365,13.648-38.006,20.558
		c-20.562,11.237-41.691,21.16-65.276,23.832c-23.727,2.688-44.455-5.167-62.596-20.162c-33.66-27.825-36.027-80.158-14.681-114.83
		c8.691-14.117,20.93-24.924,32.413-36.444c9.464-9.495,17.084-20.237,23.698-31.819c4.323-7.566,9.119-14.865,13.434-22.437
		c12.205-21.415,31.484-32.441,54.654-38.357c22.113-5.646,41.942-0.595,60.745,11.195c14.861,9.317,28.254,20.441,40.773,32.636
		c13.876,13.516,28.253,26.332,44.521,37.024c9.428,6.196,20.062,8.808,30.42,12.364c10.085,3.461,19.949,7.341,28.252,14.289
		c26.482,22.17,25.646,59.312-1.848,81.084c-13.254,10.495-28.033,16.406-45.283,14.968
		C436.409,472.141,432.595,472.409,428.802,472.409z"/>
	<path fill="#FFC83F" d="M167.61,334.784c-24.8,0.373-43.318-17.321-44.3-42.278c-0.575-14.64,2.906-28.605,7.088-42.43
		c4.06-13.418,9.211-26.522,11.522-40.437c1.56-9.393-0.28-18.982,1.605-28.359c0.261-1.298,0.432-2.622,0.785-3.896
		c2.874-10.367,8.986-16.017,17.844-16.543c8.973-0.533,18.419,5.364,22.074,14.203c3.185,7.703,5.815,15.634,8.978,23.348
		C198.577,211.499,206.57,223,215.385,234c26.147,32.633,14.609,67.82-8.161,88.035C197.232,330.904,186.656,334.498,167.61,334.784
		z"/>
	<path fill="#FFC83F" d="M548.846,316.275c1.731,40.425-43.053,58.428-69.446,46.52c-10.744-4.848-20.008-11.425-27.497-20.552
		c-10.982-13.384-11.681-27.798-4.625-43.097c3.353-7.27,7.798-13.876,12.276-20.458c9.209-13.53,17.359-27.564,22.221-43.349
		c2.416-7.845,6.876-14.289,14.45-18.212c9.36-4.847,17.446-2.692,22.896,6.274c3.207,5.278,4.65,11.205,5.829,17.141
		c2.386,12.015,6.715,23.209,12.572,33.967C545.79,289.693,548.836,301.858,548.846,316.275z"/>
	<path fill="#FFC83F" d="M226.778,214.123c-0.205-10.981,2.415-21.438,6.159-31.626c5.057-13.756,8.775-27.731,10.115-42.432
		c1.093-11.99,6.947-21.643,18.026-27.239c10.733-5.423,20.558-1.921,25.222,9.076c6.976,16.449,15.482,32.067,24.386,47.524
		c8.182,14.2,15.16,28.898,15.309,45.863c0.221,25.447-17.76,44.315-43.284,45.401c-9.784,0.417-19.288-1.023-28.564-3.979
		C236.585,251.117,226.719,235.677,226.778,214.123z"/>
	<path fill="#FFC83F" d="M437.35,254.794c-0.009,15.438-6.947,25.834-22.432,31.166s-31.288,5.668-46.794-0.135
		c-23.438-8.772-34.733-36.604-25.255-61.49c3.256-8.548,7.968-16.342,12.359-24.299c6.425-11.636,11.982-23.653,16.483-36.164
		c0.896-2.492,1.979-4.927,3.126-7.317c7.169-14.931,25.694-16.613,35.628-3.249c5.134,6.904,7.515,14.937,8.436,23.26
		c1.697,15.368,5.53,30.113,10.964,44.556C433.864,231.75,437.701,242.505,437.35,254.794z"/>
	<path fill="#FFC83F" d="M64.231,371.643c0.473-23.985,3.448-43.855,5.989-63.758c1.179-9.231-0.261-18.58,1.78-27.746
		c2.378-10.674,12.924-16.399,22.033-11.799c5.041,2.544,6.796,7.415,8.521,12.259c5.316,14.934,12.696,28.807,22.41,41.284
		c6.038,7.756,12.955,14.829,19.487,22.199c18.491,20.859,17.194,49.443-2.984,65.673c-22.671,18.237-56.446,11.433-70.388-14.185
		C66.124,386.465,64.197,378.622,64.231,371.643z"/>
	<path fill="#FFC840" d="M408.354,116.548c-0.188,11.358-12.436,18.725-21.206,14.233c-2.777-1.422-4.126-3.8-4.353-6.831
		c-0.213-2.837-0.061-5.649,0.673-8.431c1.976-7.495,3.948-14.971,1.63-22.82c-0.455-1.542-0.326-3.469,0.15-5.03
		c0.949-3.105,3.484-4.818,5.879-2.072C399.354,95.026,406.405,105.217,408.354,116.548z"/>
	<path fill="#FFC840" d="M253.031,91.791c0.804-8.857,6.919-17.537,13.325-25.972c2.401-3.162,4.982-2.036,6.453,1.332
		c0.595,1.362,1.013,2.911,1.05,4.387c0.171,6.746,1.854,12.982,5.177,18.905c2.396,4.272,0.912,8.07-2.724,11.053
		c-4.02,3.298-8.85,4.34-13.832,4.026C255.659,105.09,252.86,101.46,253.031,91.791z"/>
	<path fill="#FFC840" d="M491.093,192.824c0.742-9.31,2.47-19.328,6.781-28.713c1.205-2.623,2.104-6.441,5.802-6.039
		c3.811,0.416,3.646,4.389,4.142,7.221c1.598,9.1,3.005,18.235,4.407,27.368c1.236,8.038-1.46,11.039-10.28,11.629
		C493.939,204.826,490.932,201.907,491.093,192.824z"/>
	<path fill="#FFC841" d="M165.622,143.546c-0.071,3.939-0.731,7.648-4.717,9.618c-4.253,2.102-8.548,1.853-12.399-0.825
		c-3.77-2.623-3.952-6.562-3.173-10.74c1.386-7.437,2.591-14.908,3.975-22.345c0.342-1.837,0.824-4.024,3.161-4.193
		c2.538-0.183,2.84,2.255,3.334,3.93c1.419,4.812,4.4,8.797,6.627,13.175C164.255,135.755,165.685,139.432,165.622,143.546z"/>
	<path fill="#FFC843" d="M78.465,254.107c-6.019-0.091-8.018-2.62-7.059-8.59c0.688-4.285,1.078-8.617,1.679-12.917
		c0.42-3.006,1.128-5.961,2.666-8.612c0.841-1.45,1.848-3.218,3.887-2.488c1.802,0.645,1.522,2.562,1.186,3.964
		c-1.048,4.37,0.42,8.186,2.227,11.983c1.299,2.732,2.585,5.456,2.808,8.563C86.272,251.797,84.125,254.192,78.465,254.107z"/>
</g>
<g enable-background="new    ">
	<path fill="#3284BF" d="M244.292,372.299c4.813-1.559,9.35-2.521,13.609-2.892c4.26-0.371,8.143,0.027,11.647,1.189
		c3.505,1.164,6.595,3.22,9.269,6.164c2.675,2.948,4.834,6.957,6.477,12.031c1.775,5.48,2.097,10.421,0.968,14.823
		c-1.13,4.402-3.58,8.504-7.355,12.303c6.854-0.087,12.593,1.783,17.223,5.608c4.627,3.828,8.044,9.144,10.246,15.94
		c1.774,5.48,2.32,10.546,1.636,15.195c-0.684,4.652-2.291,8.788-4.819,12.408c-2.529,3.623-5.743,6.737-9.643,9.346
		c-3.901,2.609-8.115,4.646-12.645,6.112l-48.982,15.861l-35.198-108.688L244.292,372.299z M255.707,417.209
		c3.964-1.284,6.892-3.352,8.782-6.207c1.892-2.854,2.097-6.566,0.618-11.133c-0.821-2.536-1.92-4.479-3.295-5.829
		c-1.375-1.347-2.919-2.25-4.63-2.705s-3.544-0.56-5.5-0.321c-1.956,0.241-3.924,0.682-5.907,1.323l-20.811,6.738l8.233,25.422
		L255.707,417.209z M271.918,462.92c2.17-0.702,4.173-1.604,6.007-2.702c1.834-1.099,3.333-2.424,4.499-3.979
		c1.164-1.554,1.898-3.391,2.205-5.508c0.304-2.116-0.002-4.596-0.923-7.438c-1.807-5.579-4.561-9.089-8.258-10.528
		c-3.699-1.435-7.954-1.377-12.767,0.182l-24.208,7.839l9.662,29.836L271.918,462.92z"/>
</g>
<g enable-background="new    ">
	<path fill="#3284BF" d="M305.448,352.497l21.789,67.284c2.038,6.293,4.431,11.431,7.183,15.417c2.75,3.987,5.854,6.964,9.305,8.929
		c3.452,1.967,7.224,2.988,11.314,3.062c4.093,0.08,8.449-0.632,13.075-2.129c4.718-1.528,8.714-3.521,11.983-5.984
		c3.27-2.459,5.727-5.496,7.372-9.113c1.644-3.615,2.41-7.845,2.304-12.688c-0.109-4.842-1.182-10.407-3.219-16.7l-21.789-67.284
		l9.627-3.117l22.527,69.566c1.809,5.583,2.793,11.121,2.957,16.618c0.163,5.497-0.727,10.637-2.672,15.414
		c-1.947,4.78-5.043,9.062-9.291,12.848s-9.912,6.824-16.99,9.117c-6.985,2.262-13.307,3.104-18.968,2.525
		c-5.661-0.576-10.682-2.23-15.06-4.963c-4.379-2.729-8.111-6.371-11.2-10.922c-3.092-4.549-5.538-9.613-7.347-15.196
		l-22.527-69.566L305.448,352.497z"/>
</g>
</svg>
