<?xml version="1.0" encoding="utf-8"?>
<!-- Generator: Adobe Illustrator 16.0.4, SVG Export Plug-In . SVG Version: 6.00 Build 0)  -->
<!DOCTYPE svg PUBLIC "-//W3C//DTD SVG 1.1//EN" "http://www.w3.org/Graphics/SVG/1.1/DTD/svg11.dtd">
<svg version="1.1" id="Layer_1" xmlns="http://www.w3.org/2000/svg" xmlns:xlink="http://www.w3.org/1999/xlink" x="0px" y="0px"
	 width="302px" height="308px" viewBox="0 0 302 308" enable-background="new 0 0 302 308" xml:space="preserve">
<g>
	<path fill="#666666" d="M149,25.67c0.689-0.478,2-1.339,3-1.339s2.014,0.524,3,1.339s4.303,4.131,6.014,6.514
		c24.064,33.551,48.033,67.17,72.072,100.739c4.531,6.326,9.271,12.502,13.914,18.747c0,2.667,0,5.333,0,8
		c-2.791,3.82-6.506,5.132-11.24,5.01c-9.99-0.258-19.994-0.139-29.99-0.06c-8.033,0.063-7.274-1.288-7.285,7.041
		c-0.034,32.491-0.071,64.985,0.05,97.478c0.021,4.879-0.681,9.196-4.533,12.53c-27.666,0-55.334,0-83,0
		c-3.863-2.5-5.145-6.019-5.127-10.61c0.13-33.83,0.014-67.662,0.15-101.492c0.016-3.799-0.814-5.178-4.898-5.067
		c-10.824,0.296-21.667-0.088-32.493,0.181c-5.203,0.129-9.085-1.428-11.633-6.011c0-2,0-4,0-6c0.25-0.206,0.561-0.368,0.741-0.622
		c28.556-40.273,57.087-80.565,85.699-120.798C144.941,29.139,148.311,26.147,149,25.67z"/>
</g>
</svg>
